# vtk DataFile Version 3.0
PyVPM Particles
ASCII
DATASET UNSTRUCTURED_GRID
POINTS 221 float
-5.113104e-01 -2.413104e-01 0.0
-5.113104e-01 -2.113104e-01 0.0
-5.113104e-01 -1.813104e-01 0.0
-5.113104e-01 1.786896e-01 0.0
-5.113104e-01 2.086896e-01 0.0
-5.113104e-01 2.386896e-01 0.0
-4.813104e-01 -3.013104e-01 0.0
-4.813104e-01 -2.713104e-01 0.0
-4.813104e-01 -2.413104e-01 0.0
-4.813104e-01 2.386896e-01 0.0
-4.813104e-01 2.686896e-01 0.0
-4.813104e-01 2.986896e-01 0.0
-4.513104e-01 -3.613104e-01 0.0
-4.513104e-01 -3.313104e-01 0.0
-4.513104e-01 -3.013104e-01 0.0
-4.513104e-01 -2.713104e-01 0.0
-4.513104e-01 2.686896e-01 0.0
-4.513104e-01 2.986896e-01 0.0
-4.513104e-01 3.286896e-01 0.0
-4.513104e-01 3.586896e-01 0.0
-4.213104e-01 -3.913104e-01 0.0
-4.213104e-01 -3.613104e-01 0.0
-4.213104e-01 -3.313104e-01 0.0
-4.213104e-01 -3.013104e-01 0.0
-4.213104e-01 2.986896e-01 0.0
-4.213104e-01 3.286896e-01 0.0
-4.213104e-01 3.586896e-01 0.0
-4.213104e-01 3.886896e-01 0.0
-3.913104e-01 -4.213104e-01 0.0
-3.913104e-01 -3.913104e-01 0.0
-3.913104e-01 -3.613104e-01 0.0
-3.913104e-01 3.586896e-01 0.0
-3.913104e-01 3.886896e-01 0.0
-3.913104e-01 4.186896e-01 0.0
-3.613104e-01 -4.513104e-01 0.0
-3.613104e-01 -4.213104e-01 0.0
-3.613104e-01 -3.913104e-01 0.0
-3.613104e-01 3.886896e-01 0.0
-3.613104e-01 4.186896e-01 0.0
-3.613104e-01 4.486896e-01 0.0
-3.313104e-01 -4.813104e-01 0.0
-3.313104e-01 -4.513104e-01 0.0
-3.313104e-01 -4.213104e-01 0.0
-3.313104e-01 -3.913104e-01 0.0
-3.313104e-01 3.886896e-01 0.0
-3.313104e-01 4.186896e-01 0.0
-3.313104e-01 4.486896e-01 0.0
-3.313104e-01 4.786896e-01 0.0
-3.013104e-01 -4.813104e-01 0.0
-3.013104e-01 -4.513104e-01 0.0
-3.013104e-01 -4.213104e-01 0.0
-3.013104e-01 4.186896e-01 0.0
-3.013104e-01 4.486896e-01 0.0
-3.013104e-01 4.786896e-01 0.0
-2.713104e-01 -5.113104e-01 0.0
-2.713104e-01 -4.813104e-01 0.0
-2.713104e-01 -4.513104e-01 0.0
-2.713104e-01 4.486896e-01 0.0
-2.713104e-01 4.786896e-01 0.0
-2.713104e-01 5.086896e-01 0.0
-2.413104e-01 -5.113104e-01 0.0
-2.413104e-01 -4.813104e-01 0.0
-2.413104e-01 -4.513104e-01 0.0
-2.413104e-01 4.486896e-01 0.0
-2.413104e-01 4.786896e-01 0.0
-2.413104e-01 5.086896e-01 0.0
-2.413104e-01 5.386896e-01 0.0
-2.113104e-01 -5.413104e-01 0.0
-2.113104e-01 -5.113104e-01 0.0
-2.113104e-01 -4.813104e-01 0.0
-2.113104e-01 4.786896e-01 0.0
-2.113104e-01 5.086896e-01 0.0
-2.113104e-01 5.386896e-01 0.0
-1.813104e-01 -5.413104e-01 0.0
-1.813104e-01 -5.113104e-01 0.0
-1.813104e-01 -4.813104e-01 0.0
-1.813104e-01 4.786896e-01 0.0
-1.813104e-01 5.086896e-01 0.0
-1.813104e-01 5.386896e-01 0.0
-1.513104e-01 -5.713104e-01 0.0
-1.513104e-01 -5.413104e-01 0.0
-1.513104e-01 -5.113104e-01 0.0
-1.513104e-01 5.086896e-01 0.0
-1.513104e-01 5.386896e-01 0.0
-1.513104e-01 5.686896e-01 0.0
-1.213104e-01 -5.713104e-01 0.0
-1.213104e-01 -5.413104e-01 0.0
-1.213104e-01 -5.113104e-01 0.0
-1.213104e-01 5.086896e-01 0.0
-1.213104e-01 5.386896e-01 0.0
-1.213104e-01 5.686896e-01 0.0
-9.131038e-02 -5.713104e-01 0.0
-9.131038e-02 -5.413104e-01 0.0
-9.131038e-02 -5.113104e-01 0.0
-9.131038e-02 5.086896e-01 0.0
-9.131038e-02 5.386896e-01 0.0
-9.131038e-02 5.686896e-01 0.0
-6.131038e-02 -5.713104e-01 0.0
-6.131038e-02 -5.413104e-01 0.0
-6.131038e-02 -5.113104e-01 0.0
-6.131038e-02 5.086896e-01 0.0
-6.131038e-02 5.386896e-01 0.0
-6.131038e-02 5.686896e-01 0.0
-3.131038e-02 -5.713104e-01 0.0
-3.131038e-02 -5.413104e-01 0.0
-3.131038e-02 -5.113104e-01 0.0
-3.131038e-02 5.086896e-01 0.0
-3.131038e-02 5.386896e-01 0.0
-3.131038e-02 5.686896e-01 0.0
-1.310379e-03 -5.713104e-01 0.0
-1.310379e-03 -5.413104e-01 0.0
-1.310379e-03 -5.113104e-01 0.0
-1.310379e-03 5.086896e-01 0.0
-1.310379e-03 5.386896e-01 0.0
-1.310379e-03 5.686896e-01 0.0
2.868962e-02 -5.713104e-01 0.0
2.868962e-02 -5.413104e-01 0.0
2.868962e-02 -5.113104e-01 0.0
2.868962e-02 5.086896e-01 0.0
2.868962e-02 5.386896e-01 0.0
2.868962e-02 5.686896e-01 0.0
5.868962e-02 -5.713104e-01 0.0
5.868962e-02 -5.413104e-01 0.0
5.868962e-02 -5.113104e-01 0.0
5.868962e-02 5.086896e-01 0.0
5.868962e-02 5.386896e-01 0.0
5.868962e-02 5.686896e-01 0.0
8.868962e-02 -5.713104e-01 0.0
8.868962e-02 -5.413104e-01 0.0
8.868962e-02 -5.113104e-01 0.0
8.868962e-02 5.086896e-01 0.0
8.868962e-02 5.386896e-01 0.0
8.868962e-02 5.686896e-01 0.0
1.186896e-01 -5.713104e-01 0.0
1.186896e-01 -5.413104e-01 0.0
1.186896e-01 -5.113104e-01 0.0
1.186896e-01 5.086896e-01 0.0
1.186896e-01 5.386896e-01 0.0
1.186896e-01 5.686896e-01 0.0
1.486896e-01 -5.713104e-01 0.0
1.486896e-01 -5.413104e-01 0.0
1.486896e-01 -5.113104e-01 0.0
1.486896e-01 5.086896e-01 0.0
1.486896e-01 5.386896e-01 0.0
1.486896e-01 5.686896e-01 0.0
1.786896e-01 -5.413104e-01 0.0
1.786896e-01 -5.113104e-01 0.0
1.786896e-01 -4.813104e-01 0.0
1.786896e-01 4.786896e-01 0.0
1.786896e-01 5.086896e-01 0.0
1.786896e-01 5.386896e-01 0.0
2.086896e-01 -5.413104e-01 0.0
2.086896e-01 -5.113104e-01 0.0
2.086896e-01 -4.813104e-01 0.0
2.086896e-01 4.786896e-01 0.0
2.086896e-01 5.086896e-01 0.0
2.086896e-01 5.386896e-01 0.0
2.386896e-01 -5.113104e-01 0.0
2.386896e-01 -4.813104e-01 0.0
2.386896e-01 -4.513104e-01 0.0
2.386896e-01 4.486896e-01 0.0
2.386896e-01 4.786896e-01 0.0
2.386896e-01 5.086896e-01 0.0
2.386896e-01 5.386896e-01 0.0
2.686896e-01 -5.113104e-01 0.0
2.686896e-01 -4.813104e-01 0.0
2.686896e-01 -4.513104e-01 0.0
2.686896e-01 4.486896e-01 0.0
2.686896e-01 4.786896e-01 0.0
2.686896e-01 5.086896e-01 0.0
2.986896e-01 -4.813104e-01 0.0
2.986896e-01 -4.513104e-01 0.0
2.986896e-01 -4.213104e-01 0.0
2.986896e-01 4.186896e-01 0.0
2.986896e-01 4.486896e-01 0.0
2.986896e-01 4.786896e-01 0.0
3.286896e-01 -4.813104e-01 0.0
3.286896e-01 -4.513104e-01 0.0
3.286896e-01 -4.213104e-01 0.0
3.286896e-01 -3.913104e-01 0.0
3.286896e-01 4.186896e-01 0.0
3.286896e-01 4.486896e-01 0.0
3.286896e-01 4.786896e-01 0.0
3.586896e-01 -4.513104e-01 0.0
3.586896e-01 -4.213104e-01 0.0
3.586896e-01 -3.913104e-01 0.0
3.586896e-01 3.886896e-01 0.0
3.586896e-01 4.186896e-01 0.0
3.586896e-01 4.486896e-01 0.0
3.886896e-01 -4.213104e-01 0.0
3.886896e-01 -3.913104e-01 0.0
3.886896e-01 -3.613104e-01 0.0
3.886896e-01 3.586896e-01 0.0
3.886896e-01 3.886896e-01 0.0
3.886896e-01 4.186896e-01 0.0
4.186896e-01 -3.913104e-01 0.0
4.186896e-01 -3.613104e-01 0.0
4.186896e-01 -3.313104e-01 0.0
4.186896e-01 3.286896e-01 0.0
4.186896e-01 3.586896e-01 0.0
4.186896e-01 3.886896e-01 0.0
4.486896e-01 -3.613104e-01 0.0
4.486896e-01 -3.313104e-01 0.0
4.486896e-01 -3.013104e-01 0.0
4.486896e-01 -2.713104e-01 0.0
4.486896e-01 2.686896e-01 0.0
4.486896e-01 2.986896e-01 0.0
4.486896e-01 3.286896e-01 0.0
4.486896e-01 3.586896e-01 0.0
4.786896e-01 -3.013104e-01 0.0
4.786896e-01 -2.713104e-01 0.0
4.786896e-01 -2.413104e-01 0.0
4.786896e-01 2.386896e-01 0.0
4.786896e-01 2.686896e-01 0.0
4.786896e-01 2.986896e-01 0.0
5.086896e-01 -2.413104e-01 0.0
5.086896e-01 -2.113104e-01 0.0
5.086896e-01 -1.813104e-01 0.0
5.086896e-01 1.786896e-01 0.0
5.086896e-01 2.086896e-01 0.0
5.086896e-01 2.386896e-01 0.0

CELLS 221 442
1 0
1 1
1 2
1 3
1 4
1 5
1 6
1 7
1 8
1 9
1 10
1 11
1 12
1 13
1 14
1 15
1 16
1 17
1 18
1 19
1 20
1 21
1 22
1 23
1 24
1 25
1 26
1 27
1 28
1 29
1 30
1 31
1 32
1 33
1 34
1 35
1 36
1 37
1 38
1 39
1 40
1 41
1 42
1 43
1 44
1 45
1 46
1 47
1 48
1 49
1 50
1 51
1 52
1 53
1 54
1 55
1 56
1 57
1 58
1 59
1 60
1 61
1 62
1 63
1 64
1 65
1 66
1 67
1 68
1 69
1 70
1 71
1 72
1 73
1 74
1 75
1 76
1 77
1 78
1 79
1 80
1 81
1 82
1 83
1 84
1 85
1 86
1 87
1 88
1 89
1 90
1 91
1 92
1 93
1 94
1 95
1 96
1 97
1 98
1 99
1 100
1 101
1 102
1 103
1 104
1 105
1 106
1 107
1 108
1 109
1 110
1 111
1 112
1 113
1 114
1 115
1 116
1 117
1 118
1 119
1 120
1 121
1 122
1 123
1 124
1 125
1 126
1 127
1 128
1 129
1 130
1 131
1 132
1 133
1 134
1 135
1 136
1 137
1 138
1 139
1 140
1 141
1 142
1 143
1 144
1 145
1 146
1 147
1 148
1 149
1 150
1 151
1 152
1 153
1 154
1 155
1 156
1 157
1 158
1 159
1 160
1 161
1 162
1 163
1 164
1 165
1 166
1 167
1 168
1 169
1 170
1 171
1 172
1 173
1 174
1 175
1 176
1 177
1 178
1 179
1 180
1 181
1 182
1 183
1 184
1 185
1 186
1 187
1 188
1 189
1 190
1 191
1 192
1 193
1 194
1 195
1 196
1 197
1 198
1 199
1 200
1 201
1 202
1 203
1 204
1 205
1 206
1 207
1 208
1 209
1 210
1 211
1 212
1 213
1 214
1 215
1 216
1 217
1 218
1 219
1 220

CELL_TYPES 221
1
1
1
1
1
1
1
1
1
1
1
1
1
1
1
1
1
1
1
1
1
1
1
1
1
1
1
1
1
1
1
1
1
1
1
1
1
1
1
1
1
1
1
1
1
1
1
1
1
1
1
1
1
1
1
1
1
1
1
1
1
1
1
1
1
1
1
1
1
1
1
1
1
1
1
1
1
1
1
1
1
1
1
1
1
1
1
1
1
1
1
1
1
1
1
1
1
1
1
1
1
1
1
1
1
1
1
1
1
1
1
1
1
1
1
1
1
1
1
1
1
1
1
1
1
1
1
1
1
1
1
1
1
1
1
1
1
1
1
1
1
1
1
1
1
1
1
1
1
1
1
1
1
1
1
1
1
1
1
1
1
1
1
1
1
1
1
1
1
1
1
1
1
1
1
1
1
1
1
1
1
1
1
1
1
1
1
1
1
1
1
1
1
1
1
1
1
1
1
1
1
1
1
1
1
1
1
1
1
1
1
1
1
1
1
1
1
1
1
1
1

POINT_DATA 221
SCALARS Vorticity float 1
LOOKUP_TABLE default
4.126124e-08
4.349250e-08
3.772934e-08
-3.698340e-08
-4.325750e-08
-4.183272e-08
4.853747e-08
5.614295e-08
4.855429e-08
-4.738692e-08
-5.603006e-08
-4.981430e-08
4.177075e-08
6.306432e-08
6.275138e-08
4.405294e-08
-4.210993e-08
-6.163133e-08
-6.402689e-08
-4.410030e-08
5.073399e-08
7.322001e-08
6.469646e-08
3.750248e-08
-3.513512e-08
-6.266692e-08
-7.379164e-08
-5.351126e-08
5.462276e-08
8.045518e-08
6.687373e-08
-6.417703e-08
-8.091876e-08
-5.789616e-08
5.217592e-08
8.537840e-08
7.242750e-08
-6.933643e-08
-8.632349e-08
-5.599428e-08
4.275589e-08
8.590470e-08
8.227143e-08
3.960633e-08
-3.603385e-08
-7.926199e-08
-8.808422e-08
-4.686218e-08
7.753430e-08
9.399007e-08
5.243946e-08
-4.810906e-08
-9.206099e-08
-8.141523e-08
5.749156e-08
9.959739e-08
7.328001e-08
-6.858815e-08
-1.002769e-07
-6.247245e-08
8.742843e-08
9.684448e-08
4.382649e-08
-3.923877e-08
-9.360247e-08
-9.149502e-08
-3.550897e-08
5.547833e-08
1.052382e-07
7.627872e-08
-7.091336e-08
-1.062857e-07
-6.100023e-08
8.018035e-08
1.063997e-07
5.207892e-08
-4.669719e-08
-1.039879e-07
-8.556213e-08
3.618204e-08
9.919760e-08
9.568386e-08
-9.080567e-08
-1.030722e-07
-4.120662e-08
5.138795e-08
1.100033e-07
8.071329e-08
-7.468661e-08
-1.117229e-07
-5.732738e-08
6.493347e-08
1.138568e-07
6.694634e-08
-6.068947e-08
-1.135240e-07
-7.124195e-08
7.513354e-08
1.137367e-07
5.678387e-08
-5.070108e-08
-1.118726e-07
-8.142969e-08
8.134044e-08
1.124485e-07
5.072966e-08
-4.487142e-08
-1.096800e-07
-8.749332e-08
8.350262e-08
1.117790e-07
4.864403e-08
-4.288286e-08
-1.087018e-07
-8.957823e-08
8.168996e-08
1.123497e-07
5.039951e-08
-4.455596e-08
-1.095319e-07
-8.783209e-08
7.583827e-08
1.136376e-07
5.609296e-08
-5.003177e-08
-1.116706e-07
-8.212443e-08
6.597399e-08
1.139602e-07
6.589988e-08
-5.964874e-08
-1.134701e-07
-7.229346e-08
5.266942e-08
1.105793e-07
7.940957e-08
-7.333421e-08
-1.121070e-07
-5.866187e-08
3.751407e-08
1.004711e-07
9.444378e-08
-8.941541e-08
-1.041708e-07
-4.264029e-08
8.212966e-08
1.058253e-07
5.014109e-08
-4.482448e-08
-1.031451e-07
-8.743046e-08
5.771916e-08
1.059834e-07
7.412801e-08
-6.868667e-08
-1.067172e-07
-6.329043e-08
8.961104e-08
9.555343e-08
4.148312e-08
-3.699831e-08
-9.202946e-08
-9.347660e-08
-3.758503e-08
6.028930e-08
1.003663e-07
7.073103e-08
-6.594186e-08
-1.006822e-07
-6.529063e-08
8.027203e-08
9.312228e-08
4.956002e-08
-4.527280e-08
-9.084765e-08
-8.398263e-08
4.573667e-08
8.791306e-08
8.032581e-08
3.678130e-08
-7.705759e-08
-8.978687e-08
-4.994151e-08
5.548818e-08
8.667344e-08
7.001439e-08
-6.673179e-08
-8.726575e-08
-5.931226e-08
5.800269e-08
8.146414e-08
6.445095e-08
-6.158028e-08
-8.158601e-08
-6.122263e-08
5.411050e-08
7.449378e-08
6.271999e-08
-6.049339e-08
-7.476089e-08
-5.683683e-08
4.508945e-08
6.504200e-08
6.182237e-08
4.147306e-08
-3.948796e-08
-6.047698e-08
-6.577490e-08
-4.741486e-08
5.124726e-08
5.683524e-08
4.718568e-08
-4.588906e-08
-5.651411e-08
-5.240224e-08
4.340258e-08
4.415172e-08
3.706408e-08
-3.623242e-08
-4.378132e-08
-4.386168e-08
