# vtk DataFile Version 3.0
PyVPM Particles
ASCII
DATASET UNSTRUCTURED_GRID
POINTS 1328 float
-2.011310e+00 -2.413104e-01 0.0
-2.011310e+00 -2.113104e-01 0.0
-2.011310e+00 -1.813104e-01 0.0
-2.011310e+00 1.786896e-01 0.0
-2.011310e+00 2.086896e-01 0.0
-2.011310e+00 2.386896e-01 0.0
-1.981310e+00 -3.013104e-01 0.0
-1.981310e+00 -2.713104e-01 0.0
-1.981310e+00 -2.413104e-01 0.0
-1.981310e+00 2.386896e-01 0.0
-1.981310e+00 2.686896e-01 0.0
-1.981310e+00 2.986896e-01 0.0
-1.951310e+00 -3.613104e-01 0.0
-1.951310e+00 -3.313104e-01 0.0
-1.951310e+00 -3.013104e-01 0.0
-1.951310e+00 -2.713104e-01 0.0
-1.951310e+00 2.686896e-01 0.0
-1.951310e+00 2.986896e-01 0.0
-1.951310e+00 3.286896e-01 0.0
-1.951310e+00 3.586896e-01 0.0
-1.921310e+00 -3.913104e-01 0.0
-1.921310e+00 -3.613104e-01 0.0
-1.921310e+00 -3.313104e-01 0.0
-1.921310e+00 -3.013104e-01 0.0
-1.921310e+00 2.986896e-01 0.0
-1.921310e+00 3.286896e-01 0.0
-1.921310e+00 3.586896e-01 0.0
-1.921310e+00 3.886896e-01 0.0
-1.891310e+00 -4.213104e-01 0.0
-1.891310e+00 -3.913104e-01 0.0
-1.891310e+00 -3.613104e-01 0.0
-1.891310e+00 3.586896e-01 0.0
-1.891310e+00 3.886896e-01 0.0
-1.891310e+00 4.186896e-01 0.0
-1.861310e+00 -4.513104e-01 0.0
-1.861310e+00 -4.213104e-01 0.0
-1.861310e+00 -3.913104e-01 0.0
-1.861310e+00 3.886896e-01 0.0
-1.861310e+00 4.186896e-01 0.0
-1.861310e+00 4.486896e-01 0.0
-1.831310e+00 -4.813104e-01 0.0
-1.831310e+00 -4.513104e-01 0.0
-1.831310e+00 -4.213104e-01 0.0
-1.831310e+00 -3.913104e-01 0.0
-1.831310e+00 3.886896e-01 0.0
-1.831310e+00 4.186896e-01 0.0
-1.831310e+00 4.486896e-01 0.0
-1.831310e+00 4.786896e-01 0.0
-1.801310e+00 -4.813104e-01 0.0
-1.801310e+00 -4.513104e-01 0.0
-1.801310e+00 -4.213104e-01 0.0
-1.801310e+00 4.186896e-01 0.0
-1.801310e+00 4.486896e-01 0.0
-1.801310e+00 4.786896e-01 0.0
-1.771310e+00 -5.113104e-01 0.0
-1.771310e+00 -4.813104e-01 0.0
-1.771310e+00 -4.513104e-01 0.0
-1.771310e+00 4.486896e-01 0.0
-1.771310e+00 4.786896e-01 0.0
-1.771310e+00 5.086896e-01 0.0
-1.741310e+00 -5.113104e-01 0.0
-1.741310e+00 -4.813104e-01 0.0
-1.741310e+00 -4.513104e-01 0.0
-1.741310e+00 4.486896e-01 0.0
-1.741310e+00 4.786896e-01 0.0
-1.741310e+00 5.086896e-01 0.0
-1.741310e+00 5.386896e-01 0.0
-1.711310e+00 -5.413104e-01 0.0
-1.711310e+00 -5.113104e-01 0.0
-1.711310e+00 -4.813104e-01 0.0
-1.711310e+00 4.786896e-01 0.0
-1.711310e+00 5.086896e-01 0.0
-1.711310e+00 5.386896e-01 0.0
-1.681310e+00 -5.413104e-01 0.0
-1.681310e+00 -5.113104e-01 0.0
-1.681310e+00 -4.813104e-01 0.0
-1.681310e+00 4.786896e-01 0.0
-1.681310e+00 5.086896e-01 0.0
-1.681310e+00 5.386896e-01 0.0
-1.651310e+00 -5.713104e-01 0.0
-1.651310e+00 -5.413104e-01 0.0
-1.651310e+00 -5.113104e-01 0.0
-1.651310e+00 5.086896e-01 0.0
-1.651310e+00 5.386896e-01 0.0
-1.651310e+00 5.686896e-01 0.0
-1.621310e+00 -5.713104e-01 0.0
-1.621310e+00 -5.413104e-01 0.0
-1.621310e+00 -5.113104e-01 0.0
-1.621310e+00 5.086896e-01 0.0
-1.621310e+00 5.386896e-01 0.0
-1.621310e+00 5.686896e-01 0.0
-1.591310e+00 -5.713104e-01 0.0
-1.591310e+00 -5.413104e-01 0.0
-1.591310e+00 -5.113104e-01 0.0
-1.591310e+00 5.086896e-01 0.0
-1.591310e+00 5.386896e-01 0.0
-1.591310e+00 5.686896e-01 0.0
-1.561310e+00 -5.713104e-01 0.0
-1.561310e+00 -5.413104e-01 0.0
-1.561310e+00 -5.113104e-01 0.0
-1.561310e+00 5.086896e-01 0.0
-1.561310e+00 5.386896e-01 0.0
-1.561310e+00 5.686896e-01 0.0
-1.531310e+00 -5.713104e-01 0.0
-1.531310e+00 -5.413104e-01 0.0
-1.531310e+00 -5.113104e-01 0.0
-1.531310e+00 5.086896e-01 0.0
-1.531310e+00 5.386896e-01 0.0
-1.531310e+00 5.686896e-01 0.0
-1.501310e+00 -5.713104e-01 0.0
-1.501310e+00 -5.413104e-01 0.0
-1.501310e+00 -5.113104e-01 0.0
-1.501310e+00 5.086896e-01 0.0
-1.501310e+00 5.386896e-01 0.0
-1.501310e+00 5.686896e-01 0.0
-1.471310e+00 -5.713104e-01 0.0
-1.471310e+00 -5.413104e-01 0.0
-1.471310e+00 -5.113104e-01 0.0
-1.471310e+00 5.086896e-01 0.0
-1.471310e+00 5.386896e-01 0.0
-1.471310e+00 5.686896e-01 0.0
-1.441310e+00 -5.713104e-01 0.0
-1.441310e+00 -5.413104e-01 0.0
-1.441310e+00 -5.113104e-01 0.0
-1.441310e+00 5.086896e-01 0.0
-1.441310e+00 5.386896e-01 0.0
-1.441310e+00 5.686896e-01 0.0
-1.411310e+00 -5.713104e-01 0.0
-1.411310e+00 -5.413104e-01 0.0
-1.411310e+00 -5.113104e-01 0.0
-1.411310e+00 5.086896e-01 0.0
-1.411310e+00 5.386896e-01 0.0
-1.411310e+00 5.686896e-01 0.0
-1.381310e+00 -5.713104e-01 0.0
-1.381310e+00 -5.413104e-01 0.0
-1.381310e+00 -5.113104e-01 0.0
-1.381310e+00 5.086896e-01 0.0
-1.381310e+00 5.386896e-01 0.0
-1.381310e+00 5.686896e-01 0.0
-1.351310e+00 -5.713104e-01 0.0
-1.351310e+00 -5.413104e-01 0.0
-1.351310e+00 -5.113104e-01 0.0
-1.351310e+00 5.086896e-01 0.0
-1.351310e+00 5.386896e-01 0.0
-1.351310e+00 5.686896e-01 0.0
-1.321310e+00 -5.413104e-01 0.0
-1.321310e+00 -5.113104e-01 0.0
-1.321310e+00 -4.813104e-01 0.0
-1.321310e+00 4.786896e-01 0.0
-1.321310e+00 5.086896e-01 0.0
-1.321310e+00 5.386896e-01 0.0
-1.291310e+00 -5.413104e-01 0.0
-1.291310e+00 -5.113104e-01 0.0
-1.291310e+00 -4.813104e-01 0.0
-1.291310e+00 4.786896e-01 0.0
-1.291310e+00 5.086896e-01 0.0
-1.291310e+00 5.386896e-01 0.0
-1.261310e+00 -1.531310e+00 0.0
-1.261310e+00 -1.501310e+00 0.0
-1.261310e+00 -1.471310e+00 0.0
-1.261310e+00 -1.111310e+00 0.0
-1.261310e+00 -1.081310e+00 0.0
-1.261310e+00 -1.051310e+00 0.0
-1.261310e+00 -5.113104e-01 0.0
-1.261310e+00 -4.813104e-01 0.0
-1.261310e+00 -4.513104e-01 0.0
-1.261310e+00 4.486896e-01 0.0
-1.261310e+00 4.786896e-01 0.0
-1.261310e+00 5.086896e-01 0.0
-1.261310e+00 5.386896e-01 0.0
-1.261310e+00 1.048690e+00 0.0
-1.261310e+00 1.078690e+00 0.0
-1.261310e+00 1.108690e+00 0.0
-1.261310e+00 1.498690e+00 0.0
-1.261310e+00 1.528690e+00 0.0
-1.261310e+00 1.558690e+00 0.0
-1.231310e+00 -1.621310e+00 0.0
-1.231310e+00 -1.591310e+00 0.0
-1.231310e+00 -1.561310e+00 0.0
-1.231310e+00 -1.531310e+00 0.0
-1.231310e+00 -1.081310e+00 0.0
-1.231310e+00 -1.051310e+00 0.0
-1.231310e+00 -1.021310e+00 0.0
-1.231310e+00 -9.913104e-01 0.0
-1.231310e+00 -5.113104e-01 0.0
-1.231310e+00 -4.813104e-01 0.0
-1.231310e+00 -4.513104e-01 0.0
-1.231310e+00 4.486896e-01 0.0
-1.231310e+00 4.786896e-01 0.0
-1.231310e+00 5.086896e-01 0.0
-1.231310e+00 9.886896e-01 0.0
-1.231310e+00 1.018690e+00 0.0
-1.231310e+00 1.048690e+00 0.0
-1.231310e+00 1.078690e+00 0.0
-1.231310e+00 1.528690e+00 0.0
-1.231310e+00 1.558690e+00 0.0
-1.231310e+00 1.588690e+00 0.0
-1.231310e+00 1.618690e+00 0.0
-1.201310e+00 -1.651310e+00 0.0
-1.201310e+00 -1.621310e+00 0.0
-1.201310e+00 -1.591310e+00 0.0
-1.201310e+00 -1.561310e+00 0.0
-1.201310e+00 -1.021310e+00 0.0
-1.201310e+00 -9.913104e-01 0.0
-1.201310e+00 -9.613104e-01 0.0
-1.201310e+00 -9.313104e-01 0.0
-1.201310e+00 -4.813104e-01 0.0
-1.201310e+00 -4.513104e-01 0.0
-1.201310e+00 -4.213104e-01 0.0
-1.201310e+00 4.186896e-01 0.0
-1.201310e+00 4.486896e-01 0.0
-1.201310e+00 4.786896e-01 0.0
-1.201310e+00 9.586896e-01 0.0
-1.201310e+00 9.886896e-01 0.0
-1.201310e+00 1.018690e+00 0.0
-1.201310e+00 1.558690e+00 0.0
-1.201310e+00 1.588690e+00 0.0
-1.201310e+00 1.618690e+00 0.0
-1.201310e+00 1.648690e+00 0.0
-1.171310e+00 -1.681310e+00 0.0
-1.171310e+00 -1.651310e+00 0.0
-1.171310e+00 -1.621310e+00 0.0
-1.171310e+00 -9.913104e-01 0.0
-1.171310e+00 -9.613104e-01 0.0
-1.171310e+00 -9.313104e-01 0.0
-1.171310e+00 -9.013104e-01 0.0
-1.171310e+00 -4.813104e-01 0.0
-1.171310e+00 -4.513104e-01 0.0
-1.171310e+00 -4.213104e-01 0.0
-1.171310e+00 -3.913104e-01 0.0
-1.171310e+00 4.186896e-01 0.0
-1.171310e+00 4.486896e-01 0.0
-1.171310e+00 4.786896e-01 0.0
-1.171310e+00 8.986896e-01 0.0
-1.171310e+00 9.286896e-01 0.0
-1.171310e+00 9.586896e-01 0.0
-1.171310e+00 9.886896e-01 0.0
-1.171310e+00 1.618690e+00 0.0
-1.171310e+00 1.648690e+00 0.0
-1.171310e+00 1.678690e+00 0.0
-1.141310e+00 -1.711310e+00 0.0
-1.141310e+00 -1.681310e+00 0.0
-1.141310e+00 -1.651310e+00 0.0
-1.141310e+00 -9.613104e-01 0.0
-1.141310e+00 -9.313104e-01 0.0
-1.141310e+00 -9.013104e-01 0.0
-1.141310e+00 -8.713104e-01 0.0
-1.141310e+00 -4.513104e-01 0.0
-1.141310e+00 -4.213104e-01 0.0
-1.141310e+00 -3.913104e-01 0.0
-1.141310e+00 3.886896e-01 0.0
-1.141310e+00 4.186896e-01 0.0
-1.141310e+00 4.486896e-01 0.0
-1.141310e+00 8.686896e-01 0.0
-1.141310e+00 8.986896e-01 0.0
-1.141310e+00 9.286896e-01 0.0
-1.141310e+00 9.586896e-01 0.0
-1.141310e+00 1.648690e+00 0.0
-1.141310e+00 1.678690e+00 0.0
-1.141310e+00 1.708690e+00 0.0
-1.111310e+00 -1.741310e+00 0.0
-1.111310e+00 -1.711310e+00 0.0
-1.111310e+00 -1.681310e+00 0.0
-1.111310e+00 -9.313104e-01 0.0
-1.111310e+00 -9.013104e-01 0.0
-1.111310e+00 -8.713104e-01 0.0
-1.111310e+00 -8.413104e-01 0.0
-1.111310e+00 -4.213104e-01 0.0
-1.111310e+00 -3.913104e-01 0.0
-1.111310e+00 -3.613104e-01 0.0
-1.111310e+00 3.586896e-01 0.0
-1.111310e+00 3.886896e-01 0.0
-1.111310e+00 4.186896e-01 0.0
-1.111310e+00 8.386896e-01 0.0
-1.111310e+00 8.686896e-01 0.0
-1.111310e+00 8.986896e-01 0.0
-1.111310e+00 9.286896e-01 0.0
-1.111310e+00 1.678690e+00 0.0
-1.111310e+00 1.708690e+00 0.0
-1.111310e+00 1.738690e+00 0.0
-1.081310e+00 -1.771310e+00 0.0
-1.081310e+00 -1.741310e+00 0.0
-1.081310e+00 -1.711310e+00 0.0
-1.081310e+00 -9.013104e-01 0.0
-1.081310e+00 -8.713104e-01 0.0
-1.081310e+00 -8.413104e-01 0.0
-1.081310e+00 -3.913104e-01 0.0
-1.081310e+00 -3.613104e-01 0.0
-1.081310e+00 -3.313104e-01 0.0
-1.081310e+00 3.286896e-01 0.0
-1.081310e+00 3.586896e-01 0.0
-1.081310e+00 3.886896e-01 0.0
-1.081310e+00 8.386896e-01 0.0
-1.081310e+00 8.686896e-01 0.0
-1.081310e+00 8.986896e-01 0.0
-1.081310e+00 1.708690e+00 0.0
-1.081310e+00 1.738690e+00 0.0
-1.081310e+00 1.768690e+00 0.0
-1.051310e+00 -1.801310e+00 0.0
-1.051310e+00 -1.771310e+00 0.0
-1.051310e+00 -1.741310e+00 0.0
-1.051310e+00 -1.711310e+00 0.0
-1.051310e+00 -8.713104e-01 0.0
-1.051310e+00 -8.413104e-01 0.0
-1.051310e+00 -8.113104e-01 0.0
-1.051310e+00 -3.613104e-01 0.0
-1.051310e+00 -3.313104e-01 0.0
-1.051310e+00 -3.013104e-01 0.0
-1.051310e+00 -2.713104e-01 0.0
-1.051310e+00 2.686896e-01 0.0
-1.051310e+00 2.986896e-01 0.0
-1.051310e+00 3.286896e-01 0.0
-1.051310e+00 3.586896e-01 0.0
-1.051310e+00 8.086896e-01 0.0
-1.051310e+00 8.386896e-01 0.0
-1.051310e+00 8.686896e-01 0.0
-1.051310e+00 1.738690e+00 0.0
-1.051310e+00 1.768690e+00 0.0
-1.051310e+00 1.798690e+00 0.0
-1.021310e+00 -1.801310e+00 0.0
-1.021310e+00 -1.771310e+00 0.0
-1.021310e+00 -1.741310e+00 0.0
-1.021310e+00 -8.413104e-01 0.0
-1.021310e+00 -8.113104e-01 0.0
-1.021310e+00 -7.813104e-01 0.0
-1.021310e+00 -3.013104e-01 0.0
-1.021310e+00 -2.713104e-01 0.0
-1.021310e+00 -2.413104e-01 0.0
-1.021310e+00 2.386896e-01 0.0
-1.021310e+00 2.686896e-01 0.0
-1.021310e+00 2.986896e-01 0.0
-1.021310e+00 7.786896e-01 0.0
-1.021310e+00 8.086896e-01 0.0
-1.021310e+00 8.386896e-01 0.0
-1.021310e+00 8.686896e-01 0.0
-1.021310e+00 1.738690e+00 0.0
-1.021310e+00 1.768690e+00 0.0
-1.021310e+00 1.798690e+00 0.0
-9.913104e-01 -1.831310e+00 0.0
-9.913104e-01 -1.801310e+00 0.0
-9.913104e-01 -1.771310e+00 0.0
-9.913104e-01 -8.413104e-01 0.0
-9.913104e-01 -8.113104e-01 0.0
-9.913104e-01 -7.813104e-01 0.0
-9.913104e-01 -2.413104e-01 0.0
-9.913104e-01 -2.113104e-01 0.0
-9.913104e-01 -1.813104e-01 0.0
-9.913104e-01 1.786896e-01 0.0
-9.913104e-01 2.086896e-01 0.0
-9.913104e-01 2.386896e-01 0.0
-9.913104e-01 7.786896e-01 0.0
-9.913104e-01 8.086896e-01 0.0
-9.913104e-01 8.386896e-01 0.0
-9.913104e-01 1.768690e+00 0.0
-9.913104e-01 1.798690e+00 0.0
-9.913104e-01 1.828690e+00 0.0
-9.613104e-01 -1.831310e+00 0.0
-9.613104e-01 -1.801310e+00 0.0
-9.613104e-01 -1.771310e+00 0.0
-9.613104e-01 -8.113104e-01 0.0
-9.613104e-01 -7.813104e-01 0.0
-9.613104e-01 -7.513104e-01 0.0
-9.613104e-01 7.486896e-01 0.0
-9.613104e-01 7.786896e-01 0.0
-9.613104e-01 8.086896e-01 0.0
-9.613104e-01 8.386896e-01 0.0
-9.613104e-01 1.768690e+00 0.0
-9.613104e-01 1.798690e+00 0.0
-9.613104e-01 1.828690e+00 0.0
-9.313104e-01 -1.861310e+00 0.0
-9.313104e-01 -1.831310e+00 0.0
-9.313104e-01 -1.801310e+00 0.0
-9.313104e-01 -8.113104e-01 0.0
-9.313104e-01 -7.813104e-01 0.0
-9.313104e-01 -7.513104e-01 0.0
-9.313104e-01 7.486896e-01 0.0
-9.313104e-01 7.786896e-01 0.0
-9.313104e-01 8.086896e-01 0.0
-9.313104e-01 1.798690e+00 0.0
-9.313104e-01 1.828690e+00 0.0
-9.313104e-01 1.858690e+00 0.0
-9.013104e-01 -1.861310e+00 0.0
-9.013104e-01 -1.831310e+00 0.0
-9.013104e-01 -1.801310e+00 0.0
-9.013104e-01 -8.113104e-01 0.0
-9.013104e-01 -7.813104e-01 0.0
-9.013104e-01 -7.513104e-01 0.0
-9.013104e-01 7.486896e-01 0.0
-9.013104e-01 7.786896e-01 0.0
-9.013104e-01 8.086896e-01 0.0
-9.013104e-01 1.798690e+00 0.0
-9.013104e-01 1.828690e+00 0.0
-9.013104e-01 1.858690e+00 0.0
-8.713104e-01 -1.861310e+00 0.0
-8.713104e-01 -1.831310e+00 0.0
-8.713104e-01 -1.801310e+00 0.0
-8.713104e-01 -7.813104e-01 0.0
-8.713104e-01 -7.513104e-01 0.0
-8.713104e-01 -7.213104e-01 0.0
-8.713104e-01 7.486896e-01 0.0
-8.713104e-01 7.786896e-01 0.0
-8.713104e-01 1.798690e+00 0.0
-8.713104e-01 1.828690e+00 0.0
-8.713104e-01 1.858690e+00 0.0
-8.413104e-01 -1.861310e+00 0.0
-8.413104e-01 -1.831310e+00 0.0
-8.413104e-01 -1.801310e+00 0.0
-8.413104e-01 -7.813104e-01 0.0
-8.413104e-01 -7.513104e-01 0.0
-8.413104e-01 -7.213104e-01 0.0
-8.413104e-01 7.186896e-01 0.0
-8.413104e-01 7.486896e-01 0.0
-8.413104e-01 7.786896e-01 0.0
-8.413104e-01 1.798690e+00 0.0
-8.413104e-01 1.828690e+00 0.0
-8.413104e-01 1.858690e+00 0.0
-8.113104e-01 -1.861310e+00 0.0
-8.113104e-01 -1.831310e+00 0.0
-8.113104e-01 -1.801310e+00 0.0
-8.113104e-01 -7.813104e-01 0.0
-8.113104e-01 -7.513104e-01 0.0
-8.113104e-01 -7.213104e-01 0.0
-8.113104e-01 7.186896e-01 0.0
-8.113104e-01 7.486896e-01 0.0
-8.113104e-01 7.786896e-01 0.0
-8.113104e-01 1.828690e+00 0.0
-8.113104e-01 1.858690e+00 0.0
-7.813104e-01 -1.861310e+00 0.0
-7.813104e-01 -1.831310e+00 0.0
-7.813104e-01 -7.813104e-01 0.0
-7.813104e-01 -7.513104e-01 0.0
-7.813104e-01 -7.213104e-01 0.0
-7.813104e-01 7.186896e-01 0.0
-7.813104e-01 7.486896e-01 0.0
-7.813104e-01 7.786896e-01 0.0
-7.813104e-01 1.828690e+00 0.0
-7.813104e-01 1.858690e+00 0.0
-7.813104e-01 1.888690e+00 0.0
-7.513104e-01 -1.891310e+00 0.0
-7.513104e-01 -1.861310e+00 0.0
-7.513104e-01 -1.831310e+00 0.0
-7.513104e-01 -7.813104e-01 0.0
-7.513104e-01 -7.513104e-01 0.0
-7.513104e-01 -7.213104e-01 0.0
-7.513104e-01 7.186896e-01 0.0
-7.513104e-01 7.486896e-01 0.0
-7.513104e-01 7.786896e-01 0.0
-7.513104e-01 1.828690e+00 0.0
-7.513104e-01 1.858690e+00 0.0
-7.513104e-01 1.888690e+00 0.0
-7.213104e-01 -1.861310e+00 0.0
-7.213104e-01 -1.831310e+00 0.0
-7.213104e-01 -7.813104e-01 0.0
-7.213104e-01 -7.513104e-01 0.0
-7.213104e-01 -7.213104e-01 0.0
-7.213104e-01 7.186896e-01 0.0
-7.213104e-01 7.486896e-01 0.0
-7.213104e-01 7.786896e-01 0.0
-7.213104e-01 1.828690e+00 0.0
-7.213104e-01 1.858690e+00 0.0
-7.213104e-01 1.888690e+00 0.0
-6.913104e-01 -1.861310e+00 0.0
-6.913104e-01 -1.831310e+00 0.0
-6.913104e-01 -1.801310e+00 0.0
-6.913104e-01 -7.813104e-01 0.0
-6.913104e-01 -7.513104e-01 0.0
-6.913104e-01 -7.213104e-01 0.0
-6.913104e-01 7.186896e-01 0.0
-6.913104e-01 7.486896e-01 0.0
-6.913104e-01 7.786896e-01 0.0
-6.913104e-01 1.828690e+00 0.0
-6.913104e-01 1.858690e+00 0.0
-6.613104e-01 -1.861310e+00 0.0
-6.613104e-01 -1.831310e+00 0.0
-6.613104e-01 -1.801310e+00 0.0
-6.613104e-01 -7.813104e-01 0.0
-6.613104e-01 -7.513104e-01 0.0
-6.613104e-01 -7.213104e-01 0.0
-6.613104e-01 7.186896e-01 0.0
-6.613104e-01 7.486896e-01 0.0
-6.613104e-01 7.786896e-01 0.0
-6.613104e-01 1.798690e+00 0.0
-6.613104e-01 1.828690e+00 0.0
-6.613104e-01 1.858690e+00 0.0
-6.313104e-01 -1.861310e+00 0.0
-6.313104e-01 -1.831310e+00 0.0
-6.313104e-01 -1.801310e+00 0.0
-6.313104e-01 -7.813104e-01 0.0
-6.313104e-01 -7.513104e-01 0.0
-6.313104e-01 -7.213104e-01 0.0
-6.313104e-01 7.486896e-01 0.0
-6.313104e-01 7.786896e-01 0.0
-6.313104e-01 1.798690e+00 0.0
-6.313104e-01 1.828690e+00 0.0
-6.313104e-01 1.858690e+00 0.0
-6.013104e-01 -1.861310e+00 0.0
-6.013104e-01 -1.831310e+00 0.0
-6.013104e-01 -1.801310e+00 0.0
-6.013104e-01 -8.113104e-01 0.0
-6.013104e-01 -7.813104e-01 0.0
-6.013104e-01 -7.513104e-01 0.0
-6.013104e-01 7.486896e-01 0.0
-6.013104e-01 7.786896e-01 0.0
-6.013104e-01 8.086896e-01 0.0
-6.013104e-01 1.798690e+00 0.0
-6.013104e-01 1.828690e+00 0.0
-6.013104e-01 1.858690e+00 0.0
-5.713104e-01 -1.861310e+00 0.0
-5.713104e-01 -1.831310e+00 0.0
-5.713104e-01 -1.801310e+00 0.0
-5.713104e-01 -8.113104e-01 0.0
-5.713104e-01 -7.813104e-01 0.0
-5.713104e-01 -7.513104e-01 0.0
-5.713104e-01 7.486896e-01 0.0
-5.713104e-01 7.786896e-01 0.0
-5.713104e-01 8.086896e-01 0.0
-5.713104e-01 1.798690e+00 0.0
-5.713104e-01 1.828690e+00 0.0
-5.713104e-01 1.858690e+00 0.0
-5.413104e-01 -1.831310e+00 0.0
-5.413104e-01 -1.801310e+00 0.0
-5.413104e-01 -1.771310e+00 0.0
-5.413104e-01 -8.113104e-01 0.0
-5.413104e-01 -7.813104e-01 0.0
-5.413104e-01 -7.513104e-01 0.0
-5.413104e-01 7.486896e-01 0.0
-5.413104e-01 7.786896e-01 0.0
-5.413104e-01 8.086896e-01 0.0
-5.413104e-01 1.768690e+00 0.0
-5.413104e-01 1.798690e+00 0.0
-5.413104e-01 1.828690e+00 0.0
-5.113104e-01 -1.831310e+00 0.0
-5.113104e-01 -1.801310e+00 0.0
-5.113104e-01 -1.771310e+00 0.0
-5.113104e-01 -8.413104e-01 0.0
-5.113104e-01 -8.113104e-01 0.0
-5.113104e-01 -7.813104e-01 0.0
-5.113104e-01 7.786896e-01 0.0
-5.113104e-01 8.086896e-01 0.0
-5.113104e-01 8.386896e-01 0.0
-5.113104e-01 1.768690e+00 0.0
-5.113104e-01 1.798690e+00 0.0
-5.113104e-01 1.828690e+00 0.0
-4.813104e-01 -1.801310e+00 0.0
-4.813104e-01 -1.771310e+00 0.0
-4.813104e-01 -1.741310e+00 0.0
-4.813104e-01 -8.413104e-01 0.0
-4.813104e-01 -8.113104e-01 0.0
-4.813104e-01 -7.813104e-01 0.0
-4.813104e-01 7.786896e-01 0.0
-4.813104e-01 8.086896e-01 0.0
-4.813104e-01 8.386896e-01 0.0
-4.813104e-01 1.738690e+00 0.0
-4.813104e-01 1.768690e+00 0.0
-4.813104e-01 1.798690e+00 0.0
-4.513104e-01 -1.801310e+00 0.0
-4.513104e-01 -1.771310e+00 0.0
-4.513104e-01 -1.741310e+00 0.0
-4.513104e-01 -1.711310e+00 0.0
-4.513104e-01 -8.713104e-01 0.0
-4.513104e-01 -8.413104e-01 0.0
-4.513104e-01 -8.113104e-01 0.0
-4.513104e-01 8.086896e-01 0.0
-4.513104e-01 8.386896e-01 0.0
-4.513104e-01 8.686896e-01 0.0
-4.513104e-01 1.738690e+00 0.0
-4.513104e-01 1.768690e+00 0.0
-4.513104e-01 1.798690e+00 0.0
-4.213104e-01 -1.771310e+00 0.0
-4.213104e-01 -1.741310e+00 0.0
-4.213104e-01 -1.711310e+00 0.0
-4.213104e-01 -9.013104e-01 0.0
-4.213104e-01 -8.713104e-01 0.0
-4.213104e-01 -8.413104e-01 0.0
-4.213104e-01 -8.113104e-01 0.0
-4.213104e-01 8.386896e-01 0.0
-4.213104e-01 8.686896e-01 0.0
-4.213104e-01 8.986896e-01 0.0
-4.213104e-01 1.708690e+00 0.0
-4.213104e-01 1.738690e+00 0.0
-4.213104e-01 1.768690e+00 0.0
-3.913104e-01 -1.741310e+00 0.0
-3.913104e-01 -1.711310e+00 0.0
-3.913104e-01 -1.681310e+00 0.0
-3.913104e-01 -9.313104e-01 0.0
-3.913104e-01 -9.013104e-01 0.0
-3.913104e-01 -8.713104e-01 0.0
-3.913104e-01 -8.413104e-01 0.0
-3.913104e-01 8.386896e-01 0.0
-3.913104e-01 8.686896e-01 0.0
-3.913104e-01 8.986896e-01 0.0
-3.913104e-01 9.286896e-01 0.0
-3.913104e-01 1.678690e+00 0.0
-3.913104e-01 1.708690e+00 0.0
-3.913104e-01 1.738690e+00 0.0
-3.613104e-01 -1.711310e+00 0.0
-3.613104e-01 -1.681310e+00 0.0
-3.613104e-01 -1.651310e+00 0.0
-3.613104e-01 -9.613104e-01 0.0
-3.613104e-01 -9.313104e-01 0.0
-3.613104e-01 -9.013104e-01 0.0
-3.613104e-01 -8.713104e-01 0.0
-3.613104e-01 8.686896e-01 0.0
-3.613104e-01 8.986896e-01 0.0
-3.613104e-01 9.286896e-01 0.0
-3.613104e-01 9.586896e-01 0.0
-3.613104e-01 1.648690e+00 0.0
-3.613104e-01 1.678690e+00 0.0
-3.613104e-01 1.708690e+00 0.0
-3.313104e-01 -1.681310e+00 0.0
-3.313104e-01 -1.651310e+00 0.0
-3.313104e-01 -1.621310e+00 0.0
-3.313104e-01 -9.913104e-01 0.0
-3.313104e-01 -9.613104e-01 0.0
-3.313104e-01 -9.313104e-01 0.0
-3.313104e-01 -9.013104e-01 0.0
-3.313104e-01 8.986896e-01 0.0
-3.313104e-01 9.286896e-01 0.0
-3.313104e-01 9.586896e-01 0.0
-3.313104e-01 9.886896e-01 0.0
-3.313104e-01 1.618690e+00 0.0
-3.313104e-01 1.648690e+00 0.0
-3.313104e-01 1.678690e+00 0.0
-3.013104e-01 -1.651310e+00 0.0
-3.013104e-01 -1.621310e+00 0.0
-3.013104e-01 -1.591310e+00 0.0
-3.013104e-01 -1.021310e+00 0.0
-3.013104e-01 -9.913104e-01 0.0
-3.013104e-01 -9.613104e-01 0.0
-3.013104e-01 -9.313104e-01 0.0
-3.013104e-01 9.286896e-01 0.0
-3.013104e-01 9.586896e-01 0.0
-3.013104e-01 9.886896e-01 0.0
-3.013104e-01 1.018690e+00 0.0
-3.013104e-01 1.588690e+00 0.0
-3.013104e-01 1.618690e+00 0.0
-3.013104e-01 1.648690e+00 0.0
-2.713104e-01 -1.621310e+00 0.0
-2.713104e-01 -1.591310e+00 0.0
-2.713104e-01 -1.561310e+00 0.0
-2.713104e-01 -1.531310e+00 0.0
-2.713104e-01 -1.051310e+00 0.0
-2.713104e-01 -1.021310e+00 0.0
-2.713104e-01 -9.913104e-01 0.0
-2.713104e-01 9.886896e-01 0.0
-2.713104e-01 1.018690e+00 0.0
-2.713104e-01 1.048690e+00 0.0
-2.713104e-01 1.078690e+00 0.0
-2.713104e-01 1.528690e+00 0.0
-2.713104e-01 1.558690e+00 0.0
-2.713104e-01 1.588690e+00 0.0
-2.713104e-01 1.618690e+00 0.0
-2.413104e-01 -1.561310e+00 0.0
-2.413104e-01 -1.531310e+00 0.0
-2.413104e-01 -1.501310e+00 0.0
-2.413104e-01 -1.111310e+00 0.0
-2.413104e-01 -1.081310e+00 0.0
-2.413104e-01 -1.051310e+00 0.0
-2.413104e-01 1.048690e+00 0.0
-2.413104e-01 1.078690e+00 0.0
-2.413104e-01 1.108690e+00 0.0
-2.413104e-01 1.498690e+00 0.0
-2.413104e-01 1.528690e+00 0.0
-2.413104e-01 1.558690e+00 0.0
2.386896e-01 -1.531310e+00 0.0
2.386896e-01 -1.501310e+00 0.0
2.386896e-01 -1.471310e+00 0.0
2.386896e-01 -1.111310e+00 0.0
2.386896e-01 -1.081310e+00 0.0
2.386896e-01 -1.051310e+00 0.0
2.386896e-01 1.048690e+00 0.0
2.386896e-01 1.078690e+00 0.0
2.386896e-01 1.108690e+00 0.0
2.386896e-01 1.498690e+00 0.0
2.386896e-01 1.528690e+00 0.0
2.386896e-01 1.558690e+00 0.0
2.686896e-01 -1.621310e+00 0.0
2.686896e-01 -1.591310e+00 0.0
2.686896e-01 -1.561310e+00 0.0
2.686896e-01 -1.531310e+00 0.0
2.686896e-01 -1.081310e+00 0.0
2.686896e-01 -1.051310e+00 0.0
2.686896e-01 -1.021310e+00 0.0
2.686896e-01 -9.913104e-01 0.0
2.686896e-01 9.886896e-01 0.0
2.686896e-01 1.018690e+00 0.0
2.686896e-01 1.048690e+00 0.0
2.686896e-01 1.078690e+00 0.0
2.686896e-01 1.528690e+00 0.0
2.686896e-01 1.558690e+00 0.0
2.686896e-01 1.588690e+00 0.0
2.686896e-01 1.618690e+00 0.0
2.986896e-01 -1.651310e+00 0.0
2.986896e-01 -1.621310e+00 0.0
2.986896e-01 -1.591310e+00 0.0
2.986896e-01 -1.561310e+00 0.0
2.986896e-01 -1.021310e+00 0.0
2.986896e-01 -9.913104e-01 0.0
2.986896e-01 -9.613104e-01 0.0
2.986896e-01 -9.313104e-01 0.0
2.986896e-01 9.586896e-01 0.0
2.986896e-01 9.886896e-01 0.0
2.986896e-01 1.018690e+00 0.0
2.986896e-01 1.558690e+00 0.0
2.986896e-01 1.588690e+00 0.0
2.986896e-01 1.618690e+00 0.0
2.986896e-01 1.648690e+00 0.0
3.286896e-01 -1.681310e+00 0.0
3.286896e-01 -1.651310e+00 0.0
3.286896e-01 -1.621310e+00 0.0
3.286896e-01 -9.913104e-01 0.0
3.286896e-01 -9.613104e-01 0.0
3.286896e-01 -9.313104e-01 0.0
3.286896e-01 -9.013104e-01 0.0
3.286896e-01 8.986896e-01 0.0
3.286896e-01 9.286896e-01 0.0
3.286896e-01 9.586896e-01 0.0
3.286896e-01 9.886896e-01 0.0
3.286896e-01 1.618690e+00 0.0
3.286896e-01 1.648690e+00 0.0
3.286896e-01 1.678690e+00 0.0
3.586896e-01 -1.711310e+00 0.0
3.586896e-01 -1.681310e+00 0.0
3.586896e-01 -1.651310e+00 0.0
3.586896e-01 -9.613104e-01 0.0
3.586896e-01 -9.313104e-01 0.0
3.586896e-01 -9.013104e-01 0.0
3.586896e-01 -8.713104e-01 0.0
3.586896e-01 8.686896e-01 0.0
3.586896e-01 8.986896e-01 0.0
3.586896e-01 9.286896e-01 0.0
3.586896e-01 9.586896e-01 0.0
3.586896e-01 1.648690e+00 0.0
3.586896e-01 1.678690e+00 0.0
3.586896e-01 1.708690e+00 0.0
3.886896e-01 -1.741310e+00 0.0
3.886896e-01 -1.711310e+00 0.0
3.886896e-01 -1.681310e+00 0.0
3.886896e-01 -9.313104e-01 0.0
3.886896e-01 -9.013104e-01 0.0
3.886896e-01 -8.713104e-01 0.0
3.886896e-01 -8.413104e-01 0.0
3.886896e-01 8.386896e-01 0.0
3.886896e-01 8.686896e-01 0.0
3.886896e-01 8.986896e-01 0.0
3.886896e-01 9.286896e-01 0.0
3.886896e-01 1.678690e+00 0.0
3.886896e-01 1.708690e+00 0.0
3.886896e-01 1.738690e+00 0.0
4.186896e-01 -1.771310e+00 0.0
4.186896e-01 -1.741310e+00 0.0
4.186896e-01 -1.711310e+00 0.0
4.186896e-01 -9.013104e-01 0.0
4.186896e-01 -8.713104e-01 0.0
4.186896e-01 -8.413104e-01 0.0
4.186896e-01 8.386896e-01 0.0
4.186896e-01 8.686896e-01 0.0
4.186896e-01 8.986896e-01 0.0
4.186896e-01 1.708690e+00 0.0
4.186896e-01 1.738690e+00 0.0
4.186896e-01 1.768690e+00 0.0
4.486896e-01 -1.801310e+00 0.0
4.486896e-01 -1.771310e+00 0.0
4.486896e-01 -1.741310e+00 0.0
4.486896e-01 -1.711310e+00 0.0
4.486896e-01 -8.713104e-01 0.0
4.486896e-01 -8.413104e-01 0.0
4.486896e-01 -8.113104e-01 0.0
4.486896e-01 8.086896e-01 0.0
4.486896e-01 8.386896e-01 0.0
4.486896e-01 8.686896e-01 0.0
4.486896e-01 1.738690e+00 0.0
4.486896e-01 1.768690e+00 0.0
4.486896e-01 1.798690e+00 0.0
4.786896e-01 -1.801310e+00 0.0
4.786896e-01 -1.771310e+00 0.0
4.786896e-01 -1.741310e+00 0.0
4.786896e-01 -8.413104e-01 0.0
4.786896e-01 -8.113104e-01 0.0
4.786896e-01 -7.813104e-01 0.0
4.786896e-01 7.786896e-01 0.0
4.786896e-01 8.086896e-01 0.0
4.786896e-01 8.386896e-01 0.0
4.786896e-01 8.686896e-01 0.0
4.786896e-01 1.738690e+00 0.0
4.786896e-01 1.768690e+00 0.0
4.786896e-01 1.798690e+00 0.0
5.086896e-01 -1.831310e+00 0.0
5.086896e-01 -1.801310e+00 0.0
5.086896e-01 -1.771310e+00 0.0
5.086896e-01 -8.413104e-01 0.0
5.086896e-01 -8.113104e-01 0.0
5.086896e-01 -7.813104e-01 0.0
5.086896e-01 7.786896e-01 0.0
5.086896e-01 8.086896e-01 0.0
5.086896e-01 8.386896e-01 0.0
5.086896e-01 1.768690e+00 0.0
5.086896e-01 1.798690e+00 0.0
5.086896e-01 1.828690e+00 0.0
5.386896e-01 -1.831310e+00 0.0
5.386896e-01 -1.801310e+00 0.0
5.386896e-01 -1.771310e+00 0.0
5.386896e-01 -8.113104e-01 0.0
5.386896e-01 -7.813104e-01 0.0
5.386896e-01 -7.513104e-01 0.0
5.386896e-01 7.486896e-01 0.0
5.386896e-01 7.786896e-01 0.0
5.386896e-01 8.086896e-01 0.0
5.386896e-01 8.386896e-01 0.0
5.386896e-01 1.768690e+00 0.0
5.386896e-01 1.798690e+00 0.0
5.386896e-01 1.828690e+00 0.0
5.686896e-01 -1.861310e+00 0.0
5.686896e-01 -1.831310e+00 0.0
5.686896e-01 -1.801310e+00 0.0
5.686896e-01 -8.113104e-01 0.0
5.686896e-01 -7.813104e-01 0.0
5.686896e-01 -7.513104e-01 0.0
5.686896e-01 7.486896e-01 0.0
5.686896e-01 7.786896e-01 0.0
5.686896e-01 8.086896e-01 0.0
5.686896e-01 1.798690e+00 0.0
5.686896e-01 1.828690e+00 0.0
5.686896e-01 1.858690e+00 0.0
5.986896e-01 -1.861310e+00 0.0
5.986896e-01 -1.831310e+00 0.0
5.986896e-01 -1.801310e+00 0.0
5.986896e-01 -8.113104e-01 0.0
5.986896e-01 -7.813104e-01 0.0
5.986896e-01 -7.513104e-01 0.0
5.986896e-01 7.486896e-01 0.0
5.986896e-01 7.786896e-01 0.0
5.986896e-01 8.086896e-01 0.0
5.986896e-01 1.798690e+00 0.0
5.986896e-01 1.828690e+00 0.0
5.986896e-01 1.858690e+00 0.0
6.286896e-01 -1.861310e+00 0.0
6.286896e-01 -1.831310e+00 0.0
6.286896e-01 -1.801310e+00 0.0
6.286896e-01 -7.813104e-01 0.0
6.286896e-01 -7.513104e-01 0.0
6.286896e-01 -7.213104e-01 0.0
6.286896e-01 7.486896e-01 0.0
6.286896e-01 7.786896e-01 0.0
6.286896e-01 1.798690e+00 0.0
6.286896e-01 1.828690e+00 0.0
6.286896e-01 1.858690e+00 0.0
6.586896e-01 -1.861310e+00 0.0
6.586896e-01 -1.831310e+00 0.0
6.586896e-01 -1.801310e+00 0.0
6.586896e-01 -7.813104e-01 0.0
6.586896e-01 -7.513104e-01 0.0
6.586896e-01 -7.213104e-01 0.0
6.586896e-01 7.186896e-01 0.0
6.586896e-01 7.486896e-01 0.0
6.586896e-01 7.786896e-01 0.0
6.586896e-01 1.798690e+00 0.0
6.586896e-01 1.828690e+00 0.0
6.586896e-01 1.858690e+00 0.0
6.886896e-01 -1.861310e+00 0.0
6.886896e-01 -1.831310e+00 0.0
6.886896e-01 -1.801310e+00 0.0
6.886896e-01 -7.813104e-01 0.0
6.886896e-01 -7.513104e-01 0.0
6.886896e-01 -7.213104e-01 0.0
6.886896e-01 7.186896e-01 0.0
6.886896e-01 7.486896e-01 0.0
6.886896e-01 7.786896e-01 0.0
6.886896e-01 1.828690e+00 0.0
6.886896e-01 1.858690e+00 0.0
7.186896e-01 -1.861310e+00 0.0
7.186896e-01 -1.831310e+00 0.0
7.186896e-01 -7.813104e-01 0.0
7.186896e-01 -7.513104e-01 0.0
7.186896e-01 -7.213104e-01 0.0
7.186896e-01 7.186896e-01 0.0
7.186896e-01 7.486896e-01 0.0
7.186896e-01 7.786896e-01 0.0
7.186896e-01 1.828690e+00 0.0
7.186896e-01 1.858690e+00 0.0
7.186896e-01 1.888690e+00 0.0
7.486896e-01 -1.891310e+00 0.0
7.486896e-01 -1.861310e+00 0.0
7.486896e-01 -1.831310e+00 0.0
7.486896e-01 -7.813104e-01 0.0
7.486896e-01 -7.513104e-01 0.0
7.486896e-01 -7.213104e-01 0.0
7.486896e-01 7.186896e-01 0.0
7.486896e-01 7.486896e-01 0.0
7.486896e-01 7.786896e-01 0.0
7.486896e-01 1.828690e+00 0.0
7.486896e-01 1.858690e+00 0.0
7.486896e-01 1.888690e+00 0.0
7.786896e-01 -1.861310e+00 0.0
7.786896e-01 -1.831310e+00 0.0
7.786896e-01 -7.813104e-01 0.0
7.786896e-01 -7.513104e-01 0.0
7.786896e-01 -7.213104e-01 0.0
7.786896e-01 7.186896e-01 0.0
7.786896e-01 7.486896e-01 0.0
7.786896e-01 7.786896e-01 0.0
7.786896e-01 1.828690e+00 0.0
7.786896e-01 1.858690e+00 0.0
7.786896e-01 1.888690e+00 0.0
8.086896e-01 -1.861310e+00 0.0
8.086896e-01 -1.831310e+00 0.0
8.086896e-01 -1.801310e+00 0.0
8.086896e-01 -7.813104e-01 0.0
8.086896e-01 -7.513104e-01 0.0
8.086896e-01 -7.213104e-01 0.0
8.086896e-01 7.186896e-01 0.0
8.086896e-01 7.486896e-01 0.0
8.086896e-01 7.786896e-01 0.0
8.086896e-01 1.828690e+00 0.0
8.086896e-01 1.858690e+00 0.0
8.386896e-01 -1.861310e+00 0.0
8.386896e-01 -1.831310e+00 0.0
8.386896e-01 -1.801310e+00 0.0
8.386896e-01 -7.813104e-01 0.0
8.386896e-01 -7.513104e-01 0.0
8.386896e-01 -7.213104e-01 0.0
8.386896e-01 7.186896e-01 0.0
8.386896e-01 7.486896e-01 0.0
8.386896e-01 7.786896e-01 0.0
8.386896e-01 1.798690e+00 0.0
8.386896e-01 1.828690e+00 0.0
8.386896e-01 1.858690e+00 0.0
8.686896e-01 -1.861310e+00 0.0
8.686896e-01 -1.831310e+00 0.0
8.686896e-01 -1.801310e+00 0.0
8.686896e-01 -7.813104e-01 0.0
8.686896e-01 -7.513104e-01 0.0
8.686896e-01 -7.213104e-01 0.0
8.686896e-01 7.486896e-01 0.0
8.686896e-01 7.786896e-01 0.0
8.686896e-01 1.798690e+00 0.0
8.686896e-01 1.828690e+00 0.0
8.686896e-01 1.858690e+00 0.0
8.986896e-01 -1.861310e+00 0.0
8.986896e-01 -1.831310e+00 0.0
8.986896e-01 -1.801310e+00 0.0
8.986896e-01 -8.113104e-01 0.0
8.986896e-01 -7.813104e-01 0.0
8.986896e-01 -7.513104e-01 0.0
8.986896e-01 7.486896e-01 0.0
8.986896e-01 7.786896e-01 0.0
8.986896e-01 8.086896e-01 0.0
8.986896e-01 1.798690e+00 0.0
8.986896e-01 1.828690e+00 0.0
8.986896e-01 1.858690e+00 0.0
9.286896e-01 -1.861310e+00 0.0
9.286896e-01 -1.831310e+00 0.0
9.286896e-01 -1.801310e+00 0.0
9.286896e-01 -8.113104e-01 0.0
9.286896e-01 -7.813104e-01 0.0
9.286896e-01 -7.513104e-01 0.0
9.286896e-01 7.486896e-01 0.0
9.286896e-01 7.786896e-01 0.0
9.286896e-01 8.086896e-01 0.0
9.286896e-01 1.798690e+00 0.0
9.286896e-01 1.828690e+00 0.0
9.286896e-01 1.858690e+00 0.0
9.586896e-01 -1.831310e+00 0.0
9.586896e-01 -1.801310e+00 0.0
9.586896e-01 -1.771310e+00 0.0
9.586896e-01 -8.113104e-01 0.0
9.586896e-01 -7.813104e-01 0.0
9.586896e-01 -7.513104e-01 0.0
9.586896e-01 7.486896e-01 0.0
9.586896e-01 7.786896e-01 0.0
9.586896e-01 8.086896e-01 0.0
9.586896e-01 1.768690e+00 0.0
9.586896e-01 1.798690e+00 0.0
9.586896e-01 1.828690e+00 0.0
9.886896e-01 -1.831310e+00 0.0
9.886896e-01 -1.801310e+00 0.0
9.886896e-01 -1.771310e+00 0.0
9.886896e-01 -8.413104e-01 0.0
9.886896e-01 -8.113104e-01 0.0
9.886896e-01 -7.813104e-01 0.0
9.886896e-01 -2.413104e-01 0.0
9.886896e-01 -2.113104e-01 0.0
9.886896e-01 -1.813104e-01 0.0
9.886896e-01 1.786896e-01 0.0
9.886896e-01 2.086896e-01 0.0
9.886896e-01 2.386896e-01 0.0
9.886896e-01 7.786896e-01 0.0
9.886896e-01 8.086896e-01 0.0
9.886896e-01 8.386896e-01 0.0
9.886896e-01 1.768690e+00 0.0
9.886896e-01 1.798690e+00 0.0
9.886896e-01 1.828690e+00 0.0
1.018690e+00 -1.801310e+00 0.0
1.018690e+00 -1.771310e+00 0.0
1.018690e+00 -1.741310e+00 0.0
1.018690e+00 -8.413104e-01 0.0
1.018690e+00 -8.113104e-01 0.0
1.018690e+00 -7.813104e-01 0.0
1.018690e+00 -3.013104e-01 0.0
1.018690e+00 -2.713104e-01 0.0
1.018690e+00 -2.413104e-01 0.0
1.018690e+00 2.386896e-01 0.0
1.018690e+00 2.686896e-01 0.0
1.018690e+00 2.986896e-01 0.0
1.018690e+00 7.786896e-01 0.0
1.018690e+00 8.086896e-01 0.0
1.018690e+00 8.386896e-01 0.0
1.018690e+00 1.738690e+00 0.0
1.018690e+00 1.768690e+00 0.0
1.018690e+00 1.798690e+00 0.0
1.048690e+00 -1.801310e+00 0.0
1.048690e+00 -1.771310e+00 0.0
1.048690e+00 -1.741310e+00 0.0
1.048690e+00 -1.711310e+00 0.0
1.048690e+00 -8.713104e-01 0.0
1.048690e+00 -8.413104e-01 0.0
1.048690e+00 -8.113104e-01 0.0
1.048690e+00 -3.613104e-01 0.0
1.048690e+00 -3.313104e-01 0.0
1.048690e+00 -3.013104e-01 0.0
1.048690e+00 -2.713104e-01 0.0
1.048690e+00 2.686896e-01 0.0
1.048690e+00 2.986896e-01 0.0
1.048690e+00 3.286896e-01 0.0
1.048690e+00 3.586896e-01 0.0
1.048690e+00 8.086896e-01 0.0
1.048690e+00 8.386896e-01 0.0
1.048690e+00 8.686896e-01 0.0
1.048690e+00 1.738690e+00 0.0
1.048690e+00 1.768690e+00 0.0
1.048690e+00 1.798690e+00 0.0
1.078690e+00 -1.771310e+00 0.0
1.078690e+00 -1.741310e+00 0.0
1.078690e+00 -1.711310e+00 0.0
1.078690e+00 -9.013104e-01 0.0
1.078690e+00 -8.713104e-01 0.0
1.078690e+00 -8.413104e-01 0.0
1.078690e+00 -8.113104e-01 0.0
1.078690e+00 -3.913104e-01 0.0
1.078690e+00 -3.613104e-01 0.0
1.078690e+00 -3.313104e-01 0.0
1.078690e+00 -3.013104e-01 0.0
1.078690e+00 2.986896e-01 0.0
1.078690e+00 3.286896e-01 0.0
1.078690e+00 3.586896e-01 0.0
1.078690e+00 3.886896e-01 0.0
1.078690e+00 8.386896e-01 0.0
1.078690e+00 8.686896e-01 0.0
1.078690e+00 8.986896e-01 0.0
1.078690e+00 1.708690e+00 0.0
1.078690e+00 1.738690e+00 0.0
1.078690e+00 1.768690e+00 0.0
1.108690e+00 -1.741310e+00 0.0
1.108690e+00 -1.711310e+00 0.0
1.108690e+00 -1.681310e+00 0.0
1.108690e+00 -9.313104e-01 0.0
1.108690e+00 -9.013104e-01 0.0
1.108690e+00 -8.713104e-01 0.0
1.108690e+00 -8.413104e-01 0.0
1.108690e+00 -4.213104e-01 0.0
1.108690e+00 -3.913104e-01 0.0
1.108690e+00 -3.613104e-01 0.0
1.108690e+00 3.586896e-01 0.0
1.108690e+00 3.886896e-01 0.0
1.108690e+00 4.186896e-01 0.0
1.108690e+00 8.386896e-01 0.0
1.108690e+00 8.686896e-01 0.0
1.108690e+00 8.986896e-01 0.0
1.108690e+00 9.286896e-01 0.0
1.108690e+00 1.678690e+00 0.0
1.108690e+00 1.708690e+00 0.0
1.108690e+00 1.738690e+00 0.0
1.138690e+00 -1.711310e+00 0.0
1.138690e+00 -1.681310e+00 0.0
1.138690e+00 -1.651310e+00 0.0
1.138690e+00 -9.613104e-01 0.0
1.138690e+00 -9.313104e-01 0.0
1.138690e+00 -9.013104e-01 0.0
1.138690e+00 -8.713104e-01 0.0
1.138690e+00 -4.513104e-01 0.0
1.138690e+00 -4.213104e-01 0.0
1.138690e+00 -3.913104e-01 0.0
1.138690e+00 3.886896e-01 0.0
1.138690e+00 4.186896e-01 0.0
1.138690e+00 4.486896e-01 0.0
1.138690e+00 8.686896e-01 0.0
1.138690e+00 8.986896e-01 0.0
1.138690e+00 9.286896e-01 0.0
1.138690e+00 9.586896e-01 0.0
1.138690e+00 1.648690e+00 0.0
1.138690e+00 1.678690e+00 0.0
1.138690e+00 1.708690e+00 0.0
1.168690e+00 -1.681310e+00 0.0
1.168690e+00 -1.651310e+00 0.0
1.168690e+00 -1.621310e+00 0.0
1.168690e+00 -9.913104e-01 0.0
1.168690e+00 -9.613104e-01 0.0
1.168690e+00 -9.313104e-01 0.0
1.168690e+00 -9.013104e-01 0.0
1.168690e+00 -4.813104e-01 0.0
1.168690e+00 -4.513104e-01 0.0
1.168690e+00 -4.213104e-01 0.0
1.168690e+00 -3.913104e-01 0.0
1.168690e+00 3.886896e-01 0.0
1.168690e+00 4.186896e-01 0.0
1.168690e+00 4.486896e-01 0.0
1.168690e+00 4.786896e-01 0.0
1.168690e+00 8.986896e-01 0.0
1.168690e+00 9.286896e-01 0.0
1.168690e+00 9.586896e-01 0.0
1.168690e+00 9.886896e-01 0.0
1.168690e+00 1.618690e+00 0.0
1.168690e+00 1.648690e+00 0.0
1.168690e+00 1.678690e+00 0.0
1.198690e+00 -1.651310e+00 0.0
1.198690e+00 -1.621310e+00 0.0
1.198690e+00 -1.591310e+00 0.0
1.198690e+00 -1.021310e+00 0.0
1.198690e+00 -9.913104e-01 0.0
1.198690e+00 -9.613104e-01 0.0
1.198690e+00 -9.313104e-01 0.0
1.198690e+00 -4.813104e-01 0.0
1.198690e+00 -4.513104e-01 0.0
1.198690e+00 -4.213104e-01 0.0
1.198690e+00 4.186896e-01 0.0
1.198690e+00 4.486896e-01 0.0
1.198690e+00 4.786896e-01 0.0
1.198690e+00 9.286896e-01 0.0
1.198690e+00 9.586896e-01 0.0
1.198690e+00 9.886896e-01 0.0
1.198690e+00 1.018690e+00 0.0
1.198690e+00 1.588690e+00 0.0
1.198690e+00 1.618690e+00 0.0
1.198690e+00 1.648690e+00 0.0
1.228690e+00 -1.621310e+00 0.0
1.228690e+00 -1.591310e+00 0.0
1.228690e+00 -1.561310e+00 0.0
1.228690e+00 -1.531310e+00 0.0
1.228690e+00 -1.051310e+00 0.0
1.228690e+00 -1.021310e+00 0.0
1.228690e+00 -9.913104e-01 0.0
1.228690e+00 -5.113104e-01 0.0
1.228690e+00 -4.813104e-01 0.0
1.228690e+00 -4.513104e-01 0.0
1.228690e+00 4.486896e-01 0.0
1.228690e+00 4.786896e-01 0.0
1.228690e+00 5.086896e-01 0.0
1.228690e+00 9.886896e-01 0.0
1.228690e+00 1.018690e+00 0.0
1.228690e+00 1.048690e+00 0.0
1.228690e+00 1.078690e+00 0.0
1.228690e+00 1.528690e+00 0.0
1.228690e+00 1.558690e+00 0.0
1.228690e+00 1.588690e+00 0.0
1.228690e+00 1.618690e+00 0.0
1.258690e+00 -1.561310e+00 0.0
1.258690e+00 -1.531310e+00 0.0
1.258690e+00 -1.501310e+00 0.0
1.258690e+00 -1.111310e+00 0.0
1.258690e+00 -1.081310e+00 0.0
1.258690e+00 -1.051310e+00 0.0
1.258690e+00 -5.113104e-01 0.0
1.258690e+00 -4.813104e-01 0.0
1.258690e+00 -4.513104e-01 0.0
1.258690e+00 4.486896e-01 0.0
1.258690e+00 4.786896e-01 0.0
1.258690e+00 5.086896e-01 0.0
1.258690e+00 5.386896e-01 0.0
1.258690e+00 1.048690e+00 0.0
1.258690e+00 1.078690e+00 0.0
1.258690e+00 1.108690e+00 0.0
1.258690e+00 1.498690e+00 0.0
1.258690e+00 1.528690e+00 0.0
1.258690e+00 1.558690e+00 0.0
1.288690e+00 -5.413104e-01 0.0
1.288690e+00 -5.113104e-01 0.0
1.288690e+00 -4.813104e-01 0.0
1.288690e+00 4.786896e-01 0.0
1.288690e+00 5.086896e-01 0.0
1.288690e+00 5.386896e-01 0.0
1.318690e+00 -5.413104e-01 0.0
1.318690e+00 -5.113104e-01 0.0
1.318690e+00 -4.813104e-01 0.0
1.318690e+00 4.786896e-01 0.0
1.318690e+00 5.086896e-01 0.0
1.318690e+00 5.386896e-01 0.0
1.348690e+00 -5.713104e-01 0.0
1.348690e+00 -5.413104e-01 0.0
1.348690e+00 -5.113104e-01 0.0
1.348690e+00 5.086896e-01 0.0
1.348690e+00 5.386896e-01 0.0
1.348690e+00 5.686896e-01 0.0
1.378690e+00 -5.713104e-01 0.0
1.378690e+00 -5.413104e-01 0.0
1.378690e+00 -5.113104e-01 0.0
1.378690e+00 5.086896e-01 0.0
1.378690e+00 5.386896e-01 0.0
1.378690e+00 5.686896e-01 0.0
1.408690e+00 -5.713104e-01 0.0
1.408690e+00 -5.413104e-01 0.0
1.408690e+00 -5.113104e-01 0.0
1.408690e+00 5.086896e-01 0.0
1.408690e+00 5.386896e-01 0.0
1.408690e+00 5.686896e-01 0.0
1.438690e+00 -5.713104e-01 0.0
1.438690e+00 -5.413104e-01 0.0
1.438690e+00 -5.113104e-01 0.0
1.438690e+00 5.086896e-01 0.0
1.438690e+00 5.386896e-01 0.0
1.438690e+00 5.686896e-01 0.0
1.468690e+00 -5.713104e-01 0.0
1.468690e+00 -5.413104e-01 0.0
1.468690e+00 -5.113104e-01 0.0
1.468690e+00 5.086896e-01 0.0
1.468690e+00 5.386896e-01 0.0
1.468690e+00 5.686896e-01 0.0
1.498690e+00 -5.713104e-01 0.0
1.498690e+00 -5.413104e-01 0.0
1.498690e+00 -5.113104e-01 0.0
1.498690e+00 5.086896e-01 0.0
1.498690e+00 5.386896e-01 0.0
1.498690e+00 5.686896e-01 0.0
1.528690e+00 -5.713104e-01 0.0
1.528690e+00 -5.413104e-01 0.0
1.528690e+00 -5.113104e-01 0.0
1.528690e+00 5.086896e-01 0.0
1.528690e+00 5.386896e-01 0.0
1.528690e+00 5.686896e-01 0.0
1.558690e+00 -5.713104e-01 0.0
1.558690e+00 -5.413104e-01 0.0
1.558690e+00 -5.113104e-01 0.0
1.558690e+00 5.086896e-01 0.0
1.558690e+00 5.386896e-01 0.0
1.558690e+00 5.686896e-01 0.0
1.588690e+00 -5.713104e-01 0.0
1.588690e+00 -5.413104e-01 0.0
1.588690e+00 -5.113104e-01 0.0
1.588690e+00 5.086896e-01 0.0
1.588690e+00 5.386896e-01 0.0
1.588690e+00 5.686896e-01 0.0
1.618690e+00 -5.713104e-01 0.0
1.618690e+00 -5.413104e-01 0.0
1.618690e+00 -5.113104e-01 0.0
1.618690e+00 5.086896e-01 0.0
1.618690e+00 5.386896e-01 0.0
1.618690e+00 5.686896e-01 0.0
1.648690e+00 -5.713104e-01 0.0
1.648690e+00 -5.413104e-01 0.0
1.648690e+00 -5.113104e-01 0.0
1.648690e+00 5.086896e-01 0.0
1.648690e+00 5.386896e-01 0.0
1.648690e+00 5.686896e-01 0.0
1.678690e+00 -5.413104e-01 0.0
1.678690e+00 -5.113104e-01 0.0
1.678690e+00 -4.813104e-01 0.0
1.678690e+00 4.786896e-01 0.0
1.678690e+00 5.086896e-01 0.0
1.678690e+00 5.386896e-01 0.0
1.708690e+00 -5.413104e-01 0.0
1.708690e+00 -5.113104e-01 0.0
1.708690e+00 -4.813104e-01 0.0
1.708690e+00 4.786896e-01 0.0
1.708690e+00 5.086896e-01 0.0
1.708690e+00 5.386896e-01 0.0
1.738690e+00 -5.113104e-01 0.0
1.738690e+00 -4.813104e-01 0.0
1.738690e+00 -4.513104e-01 0.0
1.738690e+00 4.486896e-01 0.0
1.738690e+00 4.786896e-01 0.0
1.738690e+00 5.086896e-01 0.0
1.738690e+00 5.386896e-01 0.0
1.768690e+00 -5.113104e-01 0.0
1.768690e+00 -4.813104e-01 0.0
1.768690e+00 -4.513104e-01 0.0
1.768690e+00 4.486896e-01 0.0
1.768690e+00 4.786896e-01 0.0
1.768690e+00 5.086896e-01 0.0
1.798690e+00 -4.813104e-01 0.0
1.798690e+00 -4.513104e-01 0.0
1.798690e+00 -4.213104e-01 0.0
1.798690e+00 4.186896e-01 0.0
1.798690e+00 4.486896e-01 0.0
1.798690e+00 4.786896e-01 0.0
1.828690e+00 -4.813104e-01 0.0
1.828690e+00 -4.513104e-01 0.0
1.828690e+00 -4.213104e-01 0.0
1.828690e+00 -3.913104e-01 0.0
1.828690e+00 4.186896e-01 0.0
1.828690e+00 4.486896e-01 0.0
1.828690e+00 4.786896e-01 0.0
1.858690e+00 -4.513104e-01 0.0
1.858690e+00 -4.213104e-01 0.0
1.858690e+00 -3.913104e-01 0.0
1.858690e+00 3.886896e-01 0.0
1.858690e+00 4.186896e-01 0.0
1.858690e+00 4.486896e-01 0.0
1.888690e+00 -4.213104e-01 0.0
1.888690e+00 -3.913104e-01 0.0
1.888690e+00 -3.613104e-01 0.0
1.888690e+00 3.586896e-01 0.0
1.888690e+00 3.886896e-01 0.0
1.888690e+00 4.186896e-01 0.0
1.918690e+00 -3.913104e-01 0.0
1.918690e+00 -3.613104e-01 0.0
1.918690e+00 -3.313104e-01 0.0
1.918690e+00 3.286896e-01 0.0
1.918690e+00 3.586896e-01 0.0
1.918690e+00 3.886896e-01 0.0
1.948690e+00 -3.613104e-01 0.0
1.948690e+00 -3.313104e-01 0.0
1.948690e+00 -3.013104e-01 0.0
1.948690e+00 -2.713104e-01 0.0
1.948690e+00 2.686896e-01 0.0
1.948690e+00 2.986896e-01 0.0
1.948690e+00 3.286896e-01 0.0
1.948690e+00 3.586896e-01 0.0
1.978690e+00 -3.013104e-01 0.0
1.978690e+00 -2.713104e-01 0.0
1.978690e+00 -2.413104e-01 0.0
1.978690e+00 2.386896e-01 0.0
1.978690e+00 2.686896e-01 0.0
1.978690e+00 2.986896e-01 0.0
2.008690e+00 -2.413104e-01 0.0
2.008690e+00 -2.113104e-01 0.0
2.008690e+00 -1.813104e-01 0.0
2.008690e+00 1.786896e-01 0.0
2.008690e+00 2.086896e-01 0.0
2.008690e+00 2.386896e-01 0.0

CELLS 1328 2656
1 0
1 1
1 2
1 3
1 4
1 5
1 6
1 7
1 8
1 9
1 10
1 11
1 12
1 13
1 14
1 15
1 16
1 17
1 18
1 19
1 20
1 21
1 22
1 23
1 24
1 25
1 26
1 27
1 28
1 29
1 30
1 31
1 32
1 33
1 34
1 35
1 36
1 37
1 38
1 39
1 40
1 41
1 42
1 43
1 44
1 45
1 46
1 47
1 48
1 49
1 50
1 51
1 52
1 53
1 54
1 55
1 56
1 57
1 58
1 59
1 60
1 61
1 62
1 63
1 64
1 65
1 66
1 67
1 68
1 69
1 70
1 71
1 72
1 73
1 74
1 75
1 76
1 77
1 78
1 79
1 80
1 81
1 82
1 83
1 84
1 85
1 86
1 87
1 88
1 89
1 90
1 91
1 92
1 93
1 94
1 95
1 96
1 97
1 98
1 99
1 100
1 101
1 102
1 103
1 104
1 105
1 106
1 107
1 108
1 109
1 110
1 111
1 112
1 113
1 114
1 115
1 116
1 117
1 118
1 119
1 120
1 121
1 122
1 123
1 124
1 125
1 126
1 127
1 128
1 129
1 130
1 131
1 132
1 133
1 134
1 135
1 136
1 137
1 138
1 139
1 140
1 141
1 142
1 143
1 144
1 145
1 146
1 147
1 148
1 149
1 150
1 151
1 152
1 153
1 154
1 155
1 156
1 157
1 158
1 159
1 160
1 161
1 162
1 163
1 164
1 165
1 166
1 167
1 168
1 169
1 170
1 171
1 172
1 173
1 174
1 175
1 176
1 177
1 178
1 179
1 180
1 181
1 182
1 183
1 184
1 185
1 186
1 187
1 188
1 189
1 190
1 191
1 192
1 193
1 194
1 195
1 196
1 197
1 198
1 199
1 200
1 201
1 202
1 203
1 204
1 205
1 206
1 207
1 208
1 209
1 210
1 211
1 212
1 213
1 214
1 215
1 216
1 217
1 218
1 219
1 220
1 221
1 222
1 223
1 224
1 225
1 226
1 227
1 228
1 229
1 230
1 231
1 232
1 233
1 234
1 235
1 236
1 237
1 238
1 239
1 240
1 241
1 242
1 243
1 244
1 245
1 246
1 247
1 248
1 249
1 250
1 251
1 252
1 253
1 254
1 255
1 256
1 257
1 258
1 259
1 260
1 261
1 262
1 263
1 264
1 265
1 266
1 267
1 268
1 269
1 270
1 271
1 272
1 273
1 274
1 275
1 276
1 277
1 278
1 279
1 280
1 281
1 282
1 283
1 284
1 285
1 286
1 287
1 288
1 289
1 290
1 291
1 292
1 293
1 294
1 295
1 296
1 297
1 298
1 299
1 300
1 301
1 302
1 303
1 304
1 305
1 306
1 307
1 308
1 309
1 310
1 311
1 312
1 313
1 314
1 315
1 316
1 317
1 318
1 319
1 320
1 321
1 322
1 323
1 324
1 325
1 326
1 327
1 328
1 329
1 330
1 331
1 332
1 333
1 334
1 335
1 336
1 337
1 338
1 339
1 340
1 341
1 342
1 343
1 344
1 345
1 346
1 347
1 348
1 349
1 350
1 351
1 352
1 353
1 354
1 355
1 356
1 357
1 358
1 359
1 360
1 361
1 362
1 363
1 364
1 365
1 366
1 367
1 368
1 369
1 370
1 371
1 372
1 373
1 374
1 375
1 376
1 377
1 378
1 379
1 380
1 381
1 382
1 383
1 384
1 385
1 386
1 387
1 388
1 389
1 390
1 391
1 392
1 393
1 394
1 395
1 396
1 397
1 398
1 399
1 400
1 401
1 402
1 403
1 404
1 405
1 406
1 407
1 408
1 409
1 410
1 411
1 412
1 413
1 414
1 415
1 416
1 417
1 418
1 419
1 420
1 421
1 422
1 423
1 424
1 425
1 426
1 427
1 428
1 429
1 430
1 431
1 432
1 433
1 434
1 435
1 436
1 437
1 438
1 439
1 440
1 441
1 442
1 443
1 444
1 445
1 446
1 447
1 448
1 449
1 450
1 451
1 452
1 453
1 454
1 455
1 456
1 457
1 458
1 459
1 460
1 461
1 462
1 463
1 464
1 465
1 466
1 467
1 468
1 469
1 470
1 471
1 472
1 473
1 474
1 475
1 476
1 477
1 478
1 479
1 480
1 481
1 482
1 483
1 484
1 485
1 486
1 487
1 488
1 489
1 490
1 491
1 492
1 493
1 494
1 495
1 496
1 497
1 498
1 499
1 500
1 501
1 502
1 503
1 504
1 505
1 506
1 507
1 508
1 509
1 510
1 511
1 512
1 513
1 514
1 515
1 516
1 517
1 518
1 519
1 520
1 521
1 522
1 523
1 524
1 525
1 526
1 527
1 528
1 529
1 530
1 531
1 532
1 533
1 534
1 535
1 536
1 537
1 538
1 539
1 540
1 541
1 542
1 543
1 544
1 545
1 546
1 547
1 548
1 549
1 550
1 551
1 552
1 553
1 554
1 555
1 556
1 557
1 558
1 559
1 560
1 561
1 562
1 563
1 564
1 565
1 566
1 567
1 568
1 569
1 570
1 571
1 572
1 573
1 574
1 575
1 576
1 577
1 578
1 579
1 580
1 581
1 582
1 583
1 584
1 585
1 586
1 587
1 588
1 589
1 590
1 591
1 592
1 593
1 594
1 595
1 596
1 597
1 598
1 599
1 600
1 601
1 602
1 603
1 604
1 605
1 606
1 607
1 608
1 609
1 610
1 611
1 612
1 613
1 614
1 615
1 616
1 617
1 618
1 619
1 620
1 621
1 622
1 623
1 624
1 625
1 626
1 627
1 628
1 629
1 630
1 631
1 632
1 633
1 634
1 635
1 636
1 637
1 638
1 639
1 640
1 641
1 642
1 643
1 644
1 645
1 646
1 647
1 648
1 649
1 650
1 651
1 652
1 653
1 654
1 655
1 656
1 657
1 658
1 659
1 660
1 661
1 662
1 663
1 664
1 665
1 666
1 667
1 668
1 669
1 670
1 671
1 672
1 673
1 674
1 675
1 676
1 677
1 678
1 679
1 680
1 681
1 682
1 683
1 684
1 685
1 686
1 687
1 688
1 689
1 690
1 691
1 692
1 693
1 694
1 695
1 696
1 697
1 698
1 699
1 700
1 701
1 702
1 703
1 704
1 705
1 706
1 707
1 708
1 709
1 710
1 711
1 712
1 713
1 714
1 715
1 716
1 717
1 718
1 719
1 720
1 721
1 722
1 723
1 724
1 725
1 726
1 727
1 728
1 729
1 730
1 731
1 732
1 733
1 734
1 735
1 736
1 737
1 738
1 739
1 740
1 741
1 742
1 743
1 744
1 745
1 746
1 747
1 748
1 749
1 750
1 751
1 752
1 753
1 754
1 755
1 756
1 757
1 758
1 759
1 760
1 761
1 762
1 763
1 764
1 765
1 766
1 767
1 768
1 769
1 770
1 771
1 772
1 773
1 774
1 775
1 776
1 777
1 778
1 779
1 780
1 781
1 782
1 783
1 784
1 785
1 786
1 787
1 788
1 789
1 790
1 791
1 792
1 793
1 794
1 795
1 796
1 797
1 798
1 799
1 800
1 801
1 802
1 803
1 804
1 805
1 806
1 807
1 808
1 809
1 810
1 811
1 812
1 813
1 814
1 815
1 816
1 817
1 818
1 819
1 820
1 821
1 822
1 823
1 824
1 825
1 826
1 827
1 828
1 829
1 830
1 831
1 832
1 833
1 834
1 835
1 836
1 837
1 838
1 839
1 840
1 841
1 842
1 843
1 844
1 845
1 846
1 847
1 848
1 849
1 850
1 851
1 852
1 853
1 854
1 855
1 856
1 857
1 858
1 859
1 860
1 861
1 862
1 863
1 864
1 865
1 866
1 867
1 868
1 869
1 870
1 871
1 872
1 873
1 874
1 875
1 876
1 877
1 878
1 879
1 880
1 881
1 882
1 883
1 884
1 885
1 886
1 887
1 888
1 889
1 890
1 891
1 892
1 893
1 894
1 895
1 896
1 897
1 898
1 899
1 900
1 901
1 902
1 903
1 904
1 905
1 906
1 907
1 908
1 909
1 910
1 911
1 912
1 913
1 914
1 915
1 916
1 917
1 918
1 919
1 920
1 921
1 922
1 923
1 924
1 925
1 926
1 927
1 928
1 929
1 930
1 931
1 932
1 933
1 934
1 935
1 936
1 937
1 938
1 939
1 940
1 941
1 942
1 943
1 944
1 945
1 946
1 947
1 948
1 949
1 950
1 951
1 952
1 953
1 954
1 955
1 956
1 957
1 958
1 959
1 960
1 961
1 962
1 963
1 964
1 965
1 966
1 967
1 968
1 969
1 970
1 971
1 972
1 973
1 974
1 975
1 976
1 977
1 978
1 979
1 980
1 981
1 982
1 983
1 984
1 985
1 986
1 987
1 988
1 989
1 990
1 991
1 992
1 993
1 994
1 995
1 996
1 997
1 998
1 999
1 1000
1 1001
1 1002
1 1003
1 1004
1 1005
1 1006
1 1007
1 1008
1 1009
1 1010
1 1011
1 1012
1 1013
1 1014
1 1015
1 1016
1 1017
1 1018
1 1019
1 1020
1 1021
1 1022
1 1023
1 1024
1 1025
1 1026
1 1027
1 1028
1 1029
1 1030
1 1031
1 1032
1 1033
1 1034
1 1035
1 1036
1 1037
1 1038
1 1039
1 1040
1 1041
1 1042
1 1043
1 1044
1 1045
1 1046
1 1047
1 1048
1 1049
1 1050
1 1051
1 1052
1 1053
1 1054
1 1055
1 1056
1 1057
1 1058
1 1059
1 1060
1 1061
1 1062
1 1063
1 1064
1 1065
1 1066
1 1067
1 1068
1 1069
1 1070
1 1071
1 1072
1 1073
1 1074
1 1075
1 1076
1 1077
1 1078
1 1079
1 1080
1 1081
1 1082
1 1083
1 1084
1 1085
1 1086
1 1087
1 1088
1 1089
1 1090
1 1091
1 1092
1 1093
1 1094
1 1095
1 1096
1 1097
1 1098
1 1099
1 1100
1 1101
1 1102
1 1103
1 1104
1 1105
1 1106
1 1107
1 1108
1 1109
1 1110
1 1111
1 1112
1 1113
1 1114
1 1115
1 1116
1 1117
1 1118
1 1119
1 1120
1 1121
1 1122
1 1123
1 1124
1 1125
1 1126
1 1127
1 1128
1 1129
1 1130
1 1131
1 1132
1 1133
1 1134
1 1135
1 1136
1 1137
1 1138
1 1139
1 1140
1 1141
1 1142
1 1143
1 1144
1 1145
1 1146
1 1147
1 1148
1 1149
1 1150
1 1151
1 1152
1 1153
1 1154
1 1155
1 1156
1 1157
1 1158
1 1159
1 1160
1 1161
1 1162
1 1163
1 1164
1 1165
1 1166
1 1167
1 1168
1 1169
1 1170
1 1171
1 1172
1 1173
1 1174
1 1175
1 1176
1 1177
1 1178
1 1179
1 1180
1 1181
1 1182
1 1183
1 1184
1 1185
1 1186
1 1187
1 1188
1 1189
1 1190
1 1191
1 1192
1 1193
1 1194
1 1195
1 1196
1 1197
1 1198
1 1199
1 1200
1 1201
1 1202
1 1203
1 1204
1 1205
1 1206
1 1207
1 1208
1 1209
1 1210
1 1211
1 1212
1 1213
1 1214
1 1215
1 1216
1 1217
1 1218
1 1219
1 1220
1 1221
1 1222
1 1223
1 1224
1 1225
1 1226
1 1227
1 1228
1 1229
1 1230
1 1231
1 1232
1 1233
1 1234
1 1235
1 1236
1 1237
1 1238
1 1239
1 1240
1 1241
1 1242
1 1243
1 1244
1 1245
1 1246
1 1247
1 1248
1 1249
1 1250
1 1251
1 1252
1 1253
1 1254
1 1255
1 1256
1 1257
1 1258
1 1259
1 1260
1 1261
1 1262
1 1263
1 1264
1 1265
1 1266
1 1267
1 1268
1 1269
1 1270
1 1271
1 1272
1 1273
1 1274
1 1275
1 1276
1 1277
1 1278
1 1279
1 1280
1 1281
1 1282
1 1283
1 1284
1 1285
1 1286
1 1287
1 1288
1 1289
1 1290
1 1291
1 1292
1 1293
1 1294
1 1295
1 1296
1 1297
1 1298
1 1299
1 1300
1 1301
1 1302
1 1303
1 1304
1 1305
1 1306
1 1307
1 1308
1 1309
1 1310
1 1311
1 1312
1 1313
1 1314
1 1315
1 1316
1 1317
1 1318
1 1319
1 1320
1 1321
1 1322
1 1323
1 1324
1 1325
1 1326
1 1327

CELL_TYPES 1328
1
1
1
1
1
1
1
1
1
1
1
1
1
1
1
1
1
1
1
1
1
1
1
1
1
1
1
1
1
1
1
1
1
1
1
1
1
1
1
1
1
1
1
1
1
1
1
1
1
1
1
1
1
1
1
1
1
1
1
1
1
1
1
1
1
1
1
1
1
1
1
1
1
1
1
1
1
1
1
1
1
1
1
1
1
1
1
1
1
1
1
1
1
1
1
1
1
1
1
1
1
1
1
1
1
1
1
1
1
1
1
1
1
1
1
1
1
1
1
1
1
1
1
1
1
1
1
1
1
1
1
1
1
1
1
1
1
1
1
1
1
1
1
1
1
1
1
1
1
1
1
1
1
1
1
1
1
1
1
1
1
1
1
1
1
1
1
1
1
1
1
1
1
1
1
1
1
1
1
1
1
1
1
1
1
1
1
1
1
1
1
1
1
1
1
1
1
1
1
1
1
1
1
1
1
1
1
1
1
1
1
1
1
1
1
1
1
1
1
1
1
1
1
1
1
1
1
1
1
1
1
1
1
1
1
1
1
1
1
1
1
1
1
1
1
1
1
1
1
1
1
1
1
1
1
1
1
1
1
1
1
1
1
1
1
1
1
1
1
1
1
1
1
1
1
1
1
1
1
1
1
1
1
1
1
1
1
1
1
1
1
1
1
1
1
1
1
1
1
1
1
1
1
1
1
1
1
1
1
1
1
1
1
1
1
1
1
1
1
1
1
1
1
1
1
1
1
1
1
1
1
1
1
1
1
1
1
1
1
1
1
1
1
1
1
1
1
1
1
1
1
1
1
1
1
1
1
1
1
1
1
1
1
1
1
1
1
1
1
1
1
1
1
1
1
1
1
1
1
1
1
1
1
1
1
1
1
1
1
1
1
1
1
1
1
1
1
1
1
1
1
1
1
1
1
1
1
1
1
1
1
1
1
1
1
1
1
1
1
1
1
1
1
1
1
1
1
1
1
1
1
1
1
1
1
1
1
1
1
1
1
1
1
1
1
1
1
1
1
1
1
1
1
1
1
1
1
1
1
1
1
1
1
1
1
1
1
1
1
1
1
1
1
1
1
1
1
1
1
1
1
1
1
1
1
1
1
1
1
1
1
1
1
1
1
1
1
1
1
1
1
1
1
1
1
1
1
1
1
1
1
1
1
1
1
1
1
1
1
1
1
1
1
1
1
1
1
1
1
1
1
1
1
1
1
1
1
1
1
1
1
1
1
1
1
1
1
1
1
1
1
1
1
1
1
1
1
1
1
1
1
1
1
1
1
1
1
1
1
1
1
1
1
1
1
1
1
1
1
1
1
1
1
1
1
1
1
1
1
1
1
1
1
1
1
1
1
1
1
1
1
1
1
1
1
1
1
1
1
1
1
1
1
1
1
1
1
1
1
1
1
1
1
1
1
1
1
1
1
1
1
1
1
1
1
1
1
1
1
1
1
1
1
1
1
1
1
1
1
1
1
1
1
1
1
1
1
1
1
1
1
1
1
1
1
1
1
1
1
1
1
1
1
1
1
1
1
1
1
1
1
1
1
1
1
1
1
1
1
1
1
1
1
1
1
1
1
1
1
1
1
1
1
1
1
1
1
1
1
1
1
1
1
1
1
1
1
1
1
1
1
1
1
1
1
1
1
1
1
1
1
1
1
1
1
1
1
1
1
1
1
1
1
1
1
1
1
1
1
1
1
1
1
1
1
1
1
1
1
1
1
1
1
1
1
1
1
1
1
1
1
1
1
1
1
1
1
1
1
1
1
1
1
1
1
1
1
1
1
1
1
1
1
1
1
1
1
1
1
1
1
1
1
1
1
1
1
1
1
1
1
1
1
1
1
1
1
1
1
1
1
1
1
1
1
1
1
1
1
1
1
1
1
1
1
1
1
1
1
1
1
1
1
1
1
1
1
1
1
1
1
1
1
1
1
1
1
1
1
1
1
1
1
1
1
1
1
1
1
1
1
1
1
1
1
1
1
1
1
1
1
1
1
1
1
1
1
1
1
1
1
1
1
1
1
1
1
1
1
1
1
1
1
1
1
1
1
1
1
1
1
1
1
1
1
1
1
1
1
1
1
1
1
1
1
1
1
1
1
1
1
1
1
1
1
1
1
1
1
1
1
1
1
1
1
1
1
1
1
1
1
1
1
1
1
1
1
1
1
1
1
1
1
1
1
1
1
1
1
1
1
1
1
1
1
1
1
1
1
1
1
1
1
1
1
1
1
1
1
1
1
1
1
1
1
1
1
1
1
1
1
1
1
1
1
1
1
1
1
1
1
1
1
1
1
1
1
1
1
1
1
1
1
1
1
1
1
1
1
1
1
1
1
1
1
1
1
1
1
1
1
1
1
1
1
1
1
1
1
1
1
1
1
1
1
1
1
1
1
1
1
1
1
1
1
1
1
1
1
1
1
1
1
1
1
1
1
1
1
1
1
1
1
1
1
1
1
1
1
1
1
1
1
1
1
1
1
1
1
1
1
1
1
1
1
1
1
1
1
1
1
1
1
1
1
1
1
1
1
1
1
1
1
1
1
1
1
1
1
1
1
1
1
1
1
1
1
1
1
1
1
1
1
1
1
1
1
1
1
1
1
1
1
1
1
1
1
1
1
1
1
1
1
1
1
1
1
1
1
1
1
1
1
1
1
1
1
1
1
1
1
1
1
1
1
1
1
1
1
1
1
1
1
1
1
1
1
1
1
1
1
1
1
1
1
1
1
1
1
1
1
1
1
1
1
1
1
1
1
1
1
1
1
1
1
1
1
1
1
1
1
1
1
1
1
1
1
1
1
1
1
1
1
1
1
1
1
1
1
1
1
1
1
1
1
1
1
1
1
1
1
1
1
1
1
1
1
1
1
1
1
1
1
1
1
1
1
1
1
1
1
1
1
1
1
1
1
1
1
1
1
1
1
1
1
1
1
1
1
1
1
1
1
1
1
1
1
1
1
1
1
1
1
1
1
1
1
1
1
1
1
1
1
1
1
1
1
1

POINT_DATA 1328
SCALARS Vorticity float 1
LOOKUP_TABLE default
4.126124e-08
4.349250e-08
3.772934e-08
-3.698340e-08
-4.325750e-08
-4.183272e-08
4.853747e-08
5.614295e-08
4.855429e-08
-4.738692e-08
-5.603006e-08
-4.981430e-08
4.177075e-08
6.306432e-08
6.275138e-08
4.405294e-08
-4.210993e-08
-6.163133e-08
-6.402689e-08
-4.410030e-08
5.073399e-08
7.322001e-08
6.469646e-08
3.750248e-08
-3.513512e-08
-6.266692e-08
-7.379164e-08
-5.351126e-08
5.462276e-08
8.045518e-08
6.687373e-08
-6.417703e-08
-8.091876e-08
-5.789616e-08
5.217592e-08
8.537840e-08
7.242750e-08
-6.933643e-08
-8.632349e-08
-5.599428e-08
4.275589e-08
8.590470e-08
8.227143e-08
3.960633e-08
-3.603385e-08
-7.926199e-08
-8.808422e-08
-4.686218e-08
7.753430e-08
9.399007e-08
5.243946e-08
-4.810906e-08
-9.206099e-08
-8.141523e-08
5.749156e-08
9.959739e-08
7.328001e-08
-6.858815e-08
-1.002769e-07
-6.247245e-08
8.742843e-08
9.684448e-08
4.382649e-08
-3.923877e-08
-9.360247e-08
-9.149502e-08
-3.550897e-08
5.547833e-08
1.052382e-07
7.627872e-08
-7.091336e-08
-1.062857e-07
-6.100023e-08
8.018035e-08
1.063997e-07
5.207892e-08
-4.669719e-08
-1.039879e-07
-8.556213e-08
3.618204e-08
9.919760e-08
9.568386e-08
-9.080567e-08
-1.030722e-07
-4.120662e-08
5.138795e-08
1.100033e-07
8.071329e-08
-7.468661e-08
-1.117229e-07
-5.732738e-08
6.493347e-08
1.138568e-07
6.694634e-08
-6.068947e-08
-1.135240e-07
-7.124195e-08
7.513354e-08
1.137367e-07
5.678387e-08
-5.070108e-08
-1.118726e-07
-8.142969e-08
8.134044e-08
1.124485e-07
5.072966e-08
-4.487142e-08
-1.096800e-07
-8.749332e-08
8.350262e-08
1.117790e-07
4.864403e-08
-4.288286e-08
-1.087018e-07
-8.957823e-08
8.168996e-08
1.123497e-07
5.039951e-08
-4.455596e-08
-1.095319e-07
-8.783209e-08
7.583827e-08
1.136376e-07
5.609296e-08
-5.003177e-08
-1.116706e-07
-8.212443e-08
6.597399e-08
1.139602e-07
6.589988e-08
-5.964874e-08
-1.134701e-07
-7.229346e-08
5.266942e-08
1.105793e-07
7.940957e-08
-7.333421e-08
-1.121070e-07
-5.866187e-08
3.751407e-08
1.004711e-07
9.444378e-08
-8.941541e-08
-1.041708e-07
-4.264029e-08
8.212966e-08
1.058253e-07
5.014109e-08
-4.482448e-08
-1.031451e-07
-8.743046e-08
5.771916e-08
1.059834e-07
7.412801e-08
-6.868667e-08
-1.067172e-07
-6.329043e-08
4.292941e-08
4.243113e-08
3.506207e-08
-3.943464e-08
-4.379719e-08
-3.957999e-08
8.961104e-08
9.555343e-08
4.148312e-08
-3.699831e-08
-9.202946e-08
-9.347660e-08
-3.758503e-08
3.877974e-08
4.380372e-08
4.007148e-08
-4.199465e-08
-4.325025e-08
-3.546734e-08
3.565425e-08
5.249219e-08
5.524455e-08
4.433030e-08
-3.683718e-08
-5.116150e-08
-5.589406e-08
-4.502756e-08
6.028930e-08
1.003663e-07
7.073103e-08
-6.594186e-08
-1.006822e-07
-6.529063e-08
4.345859e-08
5.557180e-08
5.210354e-08
3.821117e-08
-4.302023e-08
-5.473167e-08
-5.338932e-08
-3.743704e-08
4.960490e-08
6.559281e-08
5.832800e-08
3.737973e-08
-4.875843e-08
-6.484401e-08
-5.994134e-08
-3.600463e-08
8.027203e-08
9.312228e-08
4.956002e-08
-4.527280e-08
-9.084765e-08
-8.398263e-08
5.838020e-08
6.540637e-08
5.062788e-08
-3.548381e-08
-5.678355e-08
-6.589540e-08
-5.172839e-08
5.989948e-08
7.404924e-08
5.719564e-08
-4.350439e-08
-6.899558e-08
-7.070275e-08
-4.373952e-08
4.573667e-08
8.791306e-08
8.032581e-08
3.678130e-08
-7.705759e-08
-8.978687e-08
-4.994151e-08
4.086356e-08
6.924033e-08
7.042835e-08
4.600481e-08
-5.480986e-08
-7.369331e-08
-6.227904e-08
6.543082e-08
8.058456e-08
5.710136e-08
-4.041205e-08
-7.276535e-08
-7.787278e-08
-4.641384e-08
5.548818e-08
8.667344e-08
7.001439e-08
-6.673179e-08
-8.726575e-08
-5.931226e-08
4.306161e-08
7.625524e-08
7.480290e-08
4.335634e-08
-5.409226e-08
-7.986088e-08
-6.822995e-08
6.506525e-08
8.684121e-08
6.114142e-08
-4.174581e-08
-7.904909e-08
-8.135987e-08
-4.289292e-08
5.800269e-08
8.146414e-08
6.445095e-08
-6.158028e-08
-8.158601e-08
-6.122263e-08
3.922250e-08
7.907767e-08
8.127283e-08
4.515108e-08
-5.764021e-08
-8.632019e-08
-6.855011e-08
5.720206e-08
9.146462e-08
7.077763e-08
-4.891957e-08
-8.814809e-08
-7.887644e-08
5.411050e-08
7.449378e-08
6.271999e-08
-6.049339e-08
-7.476089e-08
-5.683683e-08
7.542852e-08
8.983969e-08
5.288092e-08
-6.698322e-08
-9.199543e-08
-6.142340e-08
4.175988e-08
8.939755e-08
8.535989e-08
3.806165e-08
-6.326017e-08
-9.643429e-08
-6.698418e-08
4.508945e-08
6.504200e-08
6.182237e-08
4.147306e-08
-3.948796e-08
-6.047698e-08
-6.577490e-08
-4.741486e-08
6.241741e-08
9.645018e-08
6.764090e-08
-8.193682e-08
-9.189724e-08
-4.613932e-08
7.440600e-08
9.919791e-08
5.682730e-08
-8.392961e-08
-9.528440e-08
-4.558072e-08
5.124726e-08
5.683524e-08
4.718568e-08
-4.588906e-08
-5.651411e-08
-5.240224e-08
4.097201e-08
9.252177e-08
8.775714e-08
3.635139e-08
-5.207066e-08
-9.766416e-08
-7.898195e-08
4.705605e-08
9.927362e-08
8.367224e-08
-5.588813e-08
-1.022755e-07
-7.592084e-08
4.340258e-08
4.415172e-08
3.706408e-08
-3.623242e-08
-4.378132e-08
-4.386168e-08
7.079555e-08
1.033480e-07
6.102400e-08
-7.899838e-08
-1.014000e-07
-5.213578e-08
7.455559e-08
1.055763e-07
5.755769e-08
-8.849094e-08
-9.958631e-08
-4.260553e-08
3.775590e-08
9.613402e-08
9.286607e-08
3.490828e-08
-5.221368e-08
-1.039703e-07
-7.988568e-08
3.605125e-08
9.709117e-08
9.520640e-08
-6.592068e-08
-1.089878e-07
-6.618467e-08
6.038405e-08
1.086204e-07
7.164975e-08
-9.064573e-08
-1.008845e-07
-4.094366e-08
5.476319e-08
1.094678e-07
7.727864e-08
-4.506913e-08
-1.052086e-07
-8.732245e-08
8.175868e-08
1.078889e-07
5.055676e-08
-7.138212e-08
-1.106678e-07
-6.066844e-08
7.237606e-08
1.121156e-07
5.968685e-08
-9.431844e-08
-1.023060e-07
-3.796403e-08
9.793016e-08
9.911909e-08
-5.371208e-08
-1.107096e-07
-7.848498e-08
8.629911e-08
1.088197e-07
4.608699e-08
-8.219089e-08
-1.106983e-07
-4.994254e-08
4.422283e-08
1.078721e-07
8.810469e-08
-4.060319e-08
-1.054303e-07
-9.199177e-08
9.568291e-08
1.036705e-07
3.706833e-08
-7.230954e-08
-1.142654e-07
-5.952042e-08
5.333300e-08
1.128225e-07
7.865727e-08
-9.904144e-08
-1.007154e-07
1.008944e-07
9.953467e-08
-6.608699e-08
-1.152831e-07
-6.561789e-08
5.922884e-08
1.147568e-07
7.254434e-08
-9.426812e-08
-1.053765e-07
-3.842458e-08
3.496234e-08
1.026113e-07
9.791647e-08
-6.388289e-08
-1.154245e-07
-6.780463e-08
6.136202e-08
1.152301e-07
7.035171e-08
-9.244954e-08
-1.068791e-07
-4.017026e-08
1.011784e-07
9.928371e-08
-6.573533e-08
-1.153164e-07
-6.597401e-08
5.957435e-08
1.148417e-07
7.219467e-08
-9.398328e-08
-1.056256e-07
-3.870138e-08
9.629744e-08
1.032422e-07
3.648904e-08
-7.161361e-08
-1.144295e-07
-6.020387e-08
5.398873e-08
1.130856e-07
7.797813e-08
-9.853488e-08
-1.012721e-07
8.730156e-08
1.083938e-07
4.512276e-08
-8.120911e-08
-1.111719e-07
-5.089720e-08
4.512214e-08
1.084777e-07
8.718152e-08
-3.969009e-08
-1.048669e-07
-9.293986e-08
7.376274e-08
1.120000e-07
5.831598e-08
-9.324128e-08
-1.032874e-07
-3.906497e-08
9.904139e-08
9.817599e-08
-5.237056e-08
-1.103912e-07
-7.985532e-08
5.639370e-08
1.100430e-07
7.564550e-08
-4.350730e-08
-1.044429e-07
-8.890411e-08
8.341327e-08
1.073503e-07
4.892935e-08
-6.970149e-08
-1.110019e-07
-6.234328e-08
3.763850e-08
9.860548e-08
9.380039e-08
-6.392738e-08
-1.091107e-07
-6.820302e-08
6.237378e-08
1.090282e-07
6.968438e-08
-8.905716e-08
-1.021974e-07
-4.264722e-08
7.683358e-08
1.052223e-07
5.529856e-08
-8.667608e-08
-1.010148e-07
-4.461853e-08
3.964417e-08
9.779487e-08
9.124981e-08
-4.999578e-08
-1.033044e-07
-8.209629e-08
4.944369e-08
1.006211e-07
8.155750e-08
-5.338650e-08
-1.017617e-07
-7.842288e-08
7.335558e-08
1.031753e-07
5.850692e-08
-7.672743e-08
-1.024405e-07
-5.461597e-08
7.711846e-08
9.870545e-08
5.410375e-08
-8.178219e-08
-9.685922e-08
-4.818651e-08
4.345489e-08
9.438261e-08
8.583851e-08
-4.937608e-08
-9.681950e-08
-8.158706e-08
4.449982e-08
9.136238e-08
8.340447e-08
3.543839e-08
-6.041001e-08
-9.647102e-08
-6.997483e-08
6.544046e-08
9.686331e-08
6.486413e-08
-7.973388e-08
-9.355593e-08
-4.899350e-08
6.039658e-08
9.231475e-08
6.808966e-08
-4.592724e-08
-8.695663e-08
-8.151727e-08
-3.594473e-08
7.826036e-08
8.899524e-08
4.987402e-08
-6.416097e-08
-9.247306e-08
-6.460601e-08
6.825518e-08
8.688866e-08
5.821453e-08
-3.876623e-08
-7.723608e-08
-8.343732e-08
-4.605702e-08
4.227977e-08
8.143045e-08
7.975296e-08
4.211882e-08
-5.463243e-08
-8.600179e-08
-7.162094e-08
6.850033e-08
8.040542e-08
5.420281e-08
-3.742392e-08
-7.088189e-08
-7.966787e-08
-4.977332e-08
4.636422e-08
7.834057e-08
7.318748e-08
4.033043e-08
-5.112086e-08
-7.934422e-08
-7.113688e-08
6.299177e-08
7.425657e-08
5.463959e-08
-4.058582e-08
-6.758566e-08
-7.266908e-08
-4.711512e-08
4.419480e-08
7.146136e-08
6.928086e-08
4.310172e-08
-5.213773e-08
-7.359111e-08
-6.522764e-08
5.281809e-08
6.672204e-08
5.668032e-08
-4.634820e-08
-6.451190e-08
-6.242822e-08
-3.924299e-08
3.684010e-08
6.104434e-08
6.533084e-08
4.831496e-08
-5.495963e-08
-6.676194e-08
-5.486105e-08
3.878812e-08
5.472104e-08
5.523048e-08
4.256709e-08
-5.014769e-08
-5.709030e-08
-4.797845e-08
4.648403e-08
5.696813e-08
5.125064e-08
3.612799e-08
-4.116807e-08
-5.452125e-08
-5.545014e-08
-4.057491e-08
3.716167e-08
4.466336e-08
4.263446e-08
-3.900098e-08
-4.478999e-08
-4.196370e-08
4.124822e-08
4.493372e-08
3.974237e-08
-4.207424e-08
-4.485680e-08
-3.816719e-08
4.292941e-08
4.243113e-08
3.506207e-08
-3.943464e-08
-4.379719e-08
-3.957999e-08
3.877974e-08
4.380372e-08
4.007148e-08
-4.199465e-08
-4.325025e-08
-3.546734e-08
3.565425e-08
5.249219e-08
5.524455e-08
4.433030e-08
-3.683718e-08
-5.116150e-08
-5.589406e-08
-4.502756e-08
4.345859e-08
5.557180e-08
5.210354e-08
3.821117e-08
-4.302023e-08
-5.473167e-08
-5.338932e-08
-3.743704e-08
4.960490e-08
6.559281e-08
5.832800e-08
3.737973e-08
-4.875843e-08
-6.484401e-08
-5.994134e-08
-3.600463e-08
5.838020e-08
6.540637e-08
5.062788e-08
-3.548381e-08
-5.678355e-08
-6.589540e-08
-5.172839e-08
5.989948e-08
7.404924e-08
5.719564e-08
-4.350439e-08
-6.899558e-08
-7.070275e-08
-4.373952e-08
4.086356e-08
6.924033e-08
7.042835e-08
4.600481e-08
-5.480986e-08
-7.369331e-08
-6.227904e-08
6.543082e-08
8.058456e-08
5.710136e-08
-4.041205e-08
-7.276535e-08
-7.787278e-08
-4.641384e-08
4.306161e-08
7.625524e-08
7.480290e-08
4.335634e-08
-5.409226e-08
-7.986088e-08
-6.822995e-08
6.506525e-08
8.684121e-08
6.114142e-08
-4.174581e-08
-7.904909e-08
-8.135987e-08
-4.289292e-08
3.922250e-08
7.907767e-08
8.127283e-08
4.515108e-08
-5.764021e-08
-8.632019e-08
-6.855011e-08
5.720206e-08
9.146462e-08
7.077763e-08
-4.891957e-08
-8.814809e-08
-7.887644e-08
7.542852e-08
8.983969e-08
5.288092e-08
-6.698322e-08
-9.199543e-08
-6.142340e-08
4.175988e-08
8.939755e-08
8.535989e-08
3.806165e-08
-6.326017e-08
-9.643429e-08
-6.698418e-08
6.241741e-08
9.645018e-08
6.764090e-08
-8.193682e-08
-9.189724e-08
-4.613932e-08
7.440600e-08
9.919791e-08
5.682730e-08
-8.392961e-08
-9.528440e-08
-4.558072e-08
4.097201e-08
9.252177e-08
8.775714e-08
3.635139e-08
-5.207066e-08
-9.766416e-08
-7.898195e-08
4.705605e-08
9.927362e-08
8.367224e-08
-5.588813e-08
-1.022755e-07
-7.592084e-08
7.079555e-08
1.033480e-07
6.102400e-08
-7.899838e-08
-1.014000e-07
-5.213578e-08
7.455559e-08
1.055763e-07
5.755769e-08
-8.849094e-08
-9.958631e-08
-4.260553e-08
3.775590e-08
9.613402e-08
9.286607e-08
3.490828e-08
-5.221368e-08
-1.039703e-07
-7.988568e-08
3.605125e-08
9.709117e-08
9.520640e-08
-6.592068e-08
-1.089878e-07
-6.618467e-08
6.038405e-08
1.086204e-07
7.164975e-08
-9.064573e-08
-1.008845e-07
-4.094366e-08
5.476319e-08
1.094678e-07
7.727864e-08
-4.506913e-08
-1.052086e-07
-8.732245e-08
8.175868e-08
1.078889e-07
5.055676e-08
-7.138212e-08
-1.106678e-07
-6.066844e-08
7.237606e-08
1.121156e-07
5.968685e-08
-9.431844e-08
-1.023060e-07
-3.796403e-08
9.793016e-08
9.911909e-08
-5.371208e-08
-1.107096e-07
-7.848498e-08
8.629911e-08
1.088197e-07
4.608699e-08
-8.219089e-08
-1.106983e-07
-4.994254e-08
4.422283e-08
1.078721e-07
8.810469e-08
-4.060319e-08
-1.054303e-07
-9.199177e-08
9.568291e-08
1.036705e-07
3.706833e-08
-7.230954e-08
-1.142654e-07
-5.952042e-08
5.333300e-08
1.128225e-07
7.865727e-08
-9.904144e-08
-1.007154e-07
1.008944e-07
9.953467e-08
-6.608699e-08
-1.152831e-07
-6.561789e-08
5.922884e-08
1.147568e-07
7.254434e-08
-9.426812e-08
-1.053765e-07
-3.842458e-08
3.496234e-08
1.026113e-07
9.791647e-08
-6.388289e-08
-1.154245e-07
-6.780463e-08
6.136202e-08
1.152301e-07
7.035171e-08
-9.244954e-08
-1.068791e-07
-4.017026e-08
1.011784e-07
9.928371e-08
-6.573533e-08
-1.153164e-07
-6.597401e-08
5.957435e-08
1.148417e-07
7.219467e-08
-9.398328e-08
-1.056256e-07
-3.870138e-08
9.629744e-08
1.032422e-07
3.648904e-08
-7.161361e-08
-1.144295e-07
-6.020387e-08
5.398873e-08
1.130856e-07
7.797813e-08
-9.853488e-08
-1.012721e-07
8.730156e-08
1.083938e-07
4.512276e-08
-8.120911e-08
-1.111719e-07
-5.089720e-08
4.512214e-08
1.084777e-07
8.718152e-08
-3.969009e-08
-1.048669e-07
-9.293986e-08
7.376274e-08
1.120000e-07
5.831598e-08
-9.324128e-08
-1.032874e-07
-3.906497e-08
9.904139e-08
9.817599e-08
-5.237056e-08
-1.103912e-07
-7.985532e-08
5.639370e-08
1.100430e-07
7.564550e-08
-4.350730e-08
-1.044429e-07
-8.890411e-08
8.341327e-08
1.073503e-07
4.892935e-08
-6.970149e-08
-1.110019e-07
-6.234328e-08
3.763850e-08
9.860548e-08
9.380039e-08
-6.392738e-08
-1.091107e-07
-6.820302e-08
6.237378e-08
1.090282e-07
6.968438e-08
-8.905716e-08
-1.021974e-07
-4.264722e-08
7.683358e-08
1.052223e-07
5.529856e-08
-8.667608e-08
-1.010148e-07
-4.461853e-08
3.964417e-08
9.779487e-08
9.124981e-08
-4.999578e-08
-1.033044e-07
-8.209629e-08
4.944369e-08
1.006211e-07
8.155750e-08
-5.338650e-08
-1.017617e-07
-7.842288e-08
4.126124e-08
4.349250e-08
3.772934e-08
-3.698340e-08
-4.325750e-08
-4.183272e-08
7.335558e-08
1.031753e-07
5.850692e-08
-7.672743e-08
-1.024405e-07
-5.461597e-08
7.711846e-08
9.870545e-08
5.410375e-08
-8.178219e-08
-9.685922e-08
-4.818651e-08
4.853747e-08
5.614295e-08
4.855429e-08
-4.738692e-08
-5.603006e-08
-4.981430e-08
4.345489e-08
9.438261e-08
8.583851e-08
-4.937608e-08
-9.681950e-08
-8.158706e-08
4.449982e-08
9.136238e-08
8.340447e-08
3.543839e-08
-6.041001e-08
-9.647102e-08
-6.997483e-08
4.177075e-08
6.306432e-08
6.275138e-08
4.405294e-08
-4.210993e-08
-6.163133e-08
-6.402689e-08
-4.410030e-08
6.544046e-08
9.686331e-08
6.486413e-08
-7.973388e-08
-9.355593e-08
-4.899350e-08
6.039658e-08
9.231475e-08
6.808966e-08
-4.592724e-08
-8.695663e-08
-8.151727e-08
-3.594473e-08
5.073399e-08
7.322001e-08
6.469646e-08
3.750248e-08
-3.513512e-08
-6.266692e-08
-7.379164e-08
-5.351126e-08
7.826036e-08
8.899524e-08
4.987402e-08
-6.416097e-08
-9.247306e-08
-6.460601e-08
6.825518e-08
8.688866e-08
5.821453e-08
-3.876623e-08
-7.723608e-08
-8.343732e-08
-4.605702e-08
5.462276e-08
8.045518e-08
6.687373e-08
-6.417703e-08
-8.091876e-08
-5.789616e-08
4.227977e-08
8.143045e-08
7.975296e-08
4.211882e-08
-5.463243e-08
-8.600179e-08
-7.162094e-08
6.850033e-08
8.040542e-08
5.420281e-08
-3.742392e-08
-7.088189e-08
-7.966787e-08
-4.977332e-08
5.217592e-08
8.537840e-08
7.242750e-08
-6.933643e-08
-8.632349e-08
-5.599428e-08
4.636422e-08
7.834057e-08
7.318748e-08
4.033043e-08
-5.112086e-08
-7.934422e-08
-7.113688e-08
6.299177e-08
7.425657e-08
5.463959e-08
-4.058582e-08
-6.758566e-08
-7.266908e-08
-4.711512e-08
4.275589e-08
8.590470e-08
8.227143e-08
3.960633e-08
-3.603385e-08
-7.926199e-08
-8.808422e-08
-4.686218e-08
4.419480e-08
7.146136e-08
6.928086e-08
4.310172e-08
-5.213773e-08
-7.359111e-08
-6.522764e-08
5.281809e-08
6.672204e-08
5.668032e-08
-4.634820e-08
-6.451190e-08
-6.242822e-08
-3.924299e-08
7.753430e-08
9.399007e-08
5.243946e-08
-4.810906e-08
-9.206099e-08
-8.141523e-08
3.684010e-08
6.104434e-08
6.533084e-08
4.831496e-08
-5.495963e-08
-6.676194e-08
-5.486105e-08
3.878812e-08
5.472104e-08
5.523048e-08
4.256709e-08
-5.014769e-08
-5.709030e-08
-4.797845e-08
5.749156e-08
9.959739e-08
7.328001e-08
-6.858815e-08
-1.002769e-07
-6.247245e-08
4.648403e-08
5.696813e-08
5.125064e-08
3.612799e-08
-4.116807e-08
-5.452125e-08
-5.545014e-08
-4.057491e-08
3.716167e-08
4.466336e-08
4.263446e-08
-3.900098e-08
-4.478999e-08
-4.196370e-08
8.742843e-08
9.684448e-08
4.382649e-08
-3.923877e-08
-9.360247e-08
-9.149502e-08
-3.550897e-08
4.124822e-08
4.493372e-08
3.974237e-08
-4.207424e-08
-4.485680e-08
-3.816719e-08
5.547833e-08
1.052382e-07
7.627872e-08
-7.091336e-08
-1.062857e-07
-6.100023e-08
8.018035e-08
1.063997e-07
5.207892e-08
-4.669719e-08
-1.039879e-07
-8.556213e-08
3.618204e-08
9.919760e-08
9.568386e-08
-9.080567e-08
-1.030722e-07
-4.120662e-08
5.138795e-08
1.100033e-07
8.071329e-08
-7.468661e-08
-1.117229e-07
-5.732738e-08
6.493347e-08
1.138568e-07
6.694634e-08
-6.068947e-08
-1.135240e-07
-7.124195e-08
7.513354e-08
1.137367e-07
5.678387e-08
-5.070108e-08
-1.118726e-07
-8.142969e-08
8.134044e-08
1.124485e-07
5.072966e-08
-4.487142e-08
-1.096800e-07
-8.749332e-08
8.350262e-08
1.117790e-07
4.864403e-08
-4.288286e-08
-1.087018e-07
-8.957823e-08
8.168996e-08
1.123497e-07
5.039951e-08
-4.455596e-08
-1.095319e-07
-8.783209e-08
7.583827e-08
1.136376e-07
5.609296e-08
-5.003177e-08
-1.116706e-07
-8.212443e-08
6.597399e-08
1.139602e-07
6.589988e-08
-5.964874e-08
-1.134701e-07
-7.229346e-08
5.266942e-08
1.105793e-07
7.940957e-08
-7.333421e-08
-1.121070e-07
-5.866187e-08
3.751407e-08
1.004711e-07
9.444378e-08
-8.941541e-08
-1.041708e-07
-4.264029e-08
8.212966e-08
1.058253e-07
5.014109e-08
-4.482448e-08
-1.031451e-07
-8.743046e-08
5.771916e-08
1.059834e-07
7.412801e-08
-6.868667e-08
-1.067172e-07
-6.329043e-08
8.961104e-08
9.555343e-08
4.148312e-08
-3.699831e-08
-9.202946e-08
-9.347660e-08
-3.758503e-08
6.028930e-08
1.003663e-07
7.073103e-08
-6.594186e-08
-1.006822e-07
-6.529063e-08
8.027203e-08
9.312228e-08
4.956002e-08
-4.527280e-08
-9.084765e-08
-8.398263e-08
4.573667e-08
8.791306e-08
8.032581e-08
3.678130e-08
-7.705759e-08
-8.978687e-08
-4.994151e-08
5.548818e-08
8.667344e-08
7.001439e-08
-6.673179e-08
-8.726575e-08
-5.931226e-08
5.800269e-08
8.146414e-08
6.445095e-08
-6.158028e-08
-8.158601e-08
-6.122263e-08
5.411050e-08
7.449378e-08
6.271999e-08
-6.049339e-08
-7.476089e-08
-5.683683e-08
4.508945e-08
6.504200e-08
6.182237e-08
4.147306e-08
-3.948796e-08
-6.047698e-08
-6.577490e-08
-4.741486e-08
5.124726e-08
5.683524e-08
4.718568e-08
-4.588906e-08
-5.651411e-08
-5.240224e-08
4.340258e-08
4.415172e-08
3.706408e-08
-3.623242e-08
-4.378132e-08
-4.386168e-08
