# vtk DataFile Version 3.0
PyVPM Particles
ASCII
DATASET UNSTRUCTURED_GRID
POINTS 981 float
-1.501310e+00 -2.713104e-01 0.0
-1.501310e+00 -2.413104e-01 0.0
-1.501310e+00 -2.113104e-01 0.0
-1.501310e+00 2.086896e-01 0.0
-1.501310e+00 2.386896e-01 0.0
-1.501310e+00 2.686896e-01 0.0
-1.471310e+00 -3.313104e-01 0.0
-1.471310e+00 -3.013104e-01 0.0
-1.471310e+00 -2.713104e-01 0.0
-1.471310e+00 -2.413104e-01 0.0
-1.471310e+00 2.386896e-01 0.0
-1.471310e+00 2.686896e-01 0.0
-1.471310e+00 2.986896e-01 0.0
-1.471310e+00 3.286896e-01 0.0
-1.441310e+00 -3.613104e-01 0.0
-1.441310e+00 -3.313104e-01 0.0
-1.441310e+00 -3.013104e-01 0.0
-1.441310e+00 2.986896e-01 0.0
-1.441310e+00 3.286896e-01 0.0
-1.441310e+00 3.586896e-01 0.0
-1.411310e+00 -3.913104e-01 0.0
-1.411310e+00 -3.613104e-01 0.0
-1.411310e+00 -3.313104e-01 0.0
-1.411310e+00 3.286896e-01 0.0
-1.411310e+00 3.586896e-01 0.0
-1.411310e+00 3.886896e-01 0.0
-1.381310e+00 -4.213104e-01 0.0
-1.381310e+00 -3.913104e-01 0.0
-1.381310e+00 -3.613104e-01 0.0
-1.381310e+00 3.586896e-01 0.0
-1.381310e+00 3.886896e-01 0.0
-1.381310e+00 4.186896e-01 0.0
-1.351310e+00 -4.513104e-01 0.0
-1.351310e+00 -4.213104e-01 0.0
-1.351310e+00 -3.913104e-01 0.0
-1.351310e+00 3.886896e-01 0.0
-1.351310e+00 4.186896e-01 0.0
-1.351310e+00 4.486896e-01 0.0
-1.321310e+00 -4.813104e-01 0.0
-1.321310e+00 -4.513104e-01 0.0
-1.321310e+00 -4.213104e-01 0.0
-1.321310e+00 4.186896e-01 0.0
-1.321310e+00 4.486896e-01 0.0
-1.321310e+00 4.786896e-01 0.0
-1.291310e+00 -5.113104e-01 0.0
-1.291310e+00 -4.813104e-01 0.0
-1.291310e+00 -4.513104e-01 0.0
-1.291310e+00 -4.213104e-01 0.0
-1.291310e+00 4.186896e-01 0.0
-1.291310e+00 4.486896e-01 0.0
-1.291310e+00 4.786896e-01 0.0
-1.291310e+00 5.086896e-01 0.0
-1.261310e+00 -5.113104e-01 0.0
-1.261310e+00 -4.813104e-01 0.0
-1.261310e+00 -4.513104e-01 0.0
-1.261310e+00 4.486896e-01 0.0
-1.261310e+00 4.786896e-01 0.0
-1.261310e+00 5.086896e-01 0.0
-1.231310e+00 -5.413104e-01 0.0
-1.231310e+00 -5.113104e-01 0.0
-1.231310e+00 -4.813104e-01 0.0
-1.231310e+00 -4.513104e-01 0.0
-1.231310e+00 4.786896e-01 0.0
-1.231310e+00 5.086896e-01 0.0
-1.231310e+00 5.386896e-01 0.0
-1.201310e+00 -5.413104e-01 0.0
-1.201310e+00 -5.113104e-01 0.0
-1.201310e+00 -4.813104e-01 0.0
-1.201310e+00 4.786896e-01 0.0
-1.201310e+00 5.086896e-01 0.0
-1.201310e+00 5.386896e-01 0.0
-1.171310e+00 -5.413104e-01 0.0
-1.171310e+00 -5.113104e-01 0.0
-1.171310e+00 -4.813104e-01 0.0
-1.171310e+00 4.786896e-01 0.0
-1.171310e+00 5.086896e-01 0.0
-1.171310e+00 5.386896e-01 0.0
-1.141310e+00 -5.713104e-01 0.0
-1.141310e+00 -5.413104e-01 0.0
-1.141310e+00 -5.113104e-01 0.0
-1.141310e+00 5.086896e-01 0.0
-1.141310e+00 5.386896e-01 0.0
-1.141310e+00 5.686896e-01 0.0
-1.111310e+00 -5.713104e-01 0.0
-1.111310e+00 -5.413104e-01 0.0
-1.111310e+00 -5.113104e-01 0.0
-1.111310e+00 5.086896e-01 0.0
-1.111310e+00 5.386896e-01 0.0
-1.111310e+00 5.686896e-01 0.0
-1.081310e+00 -5.713104e-01 0.0
-1.081310e+00 -5.413104e-01 0.0
-1.081310e+00 -5.113104e-01 0.0
-1.081310e+00 5.086896e-01 0.0
-1.081310e+00 5.386896e-01 0.0
-1.081310e+00 5.686896e-01 0.0
-1.051310e+00 -5.713104e-01 0.0
-1.051310e+00 -5.413104e-01 0.0
-1.051310e+00 -5.113104e-01 0.0
-1.051310e+00 5.086896e-01 0.0
-1.051310e+00 5.386896e-01 0.0
-1.051310e+00 5.686896e-01 0.0
-1.021310e+00 -1.081310e+00 0.0
-1.021310e+00 -1.051310e+00 0.0
-1.021310e+00 -6.913104e-01 0.0
-1.021310e+00 -6.613104e-01 0.0
-1.021310e+00 -5.713104e-01 0.0
-1.021310e+00 -5.413104e-01 0.0
-1.021310e+00 -5.113104e-01 0.0
-1.021310e+00 5.086896e-01 0.0
-1.021310e+00 5.386896e-01 0.0
-1.021310e+00 5.686896e-01 0.0
-1.021310e+00 6.586896e-01 0.0
-1.021310e+00 6.886896e-01 0.0
-1.021310e+00 1.048690e+00 0.0
-1.021310e+00 1.078690e+00 0.0
-9.913104e-01 -1.141310e+00 0.0
-9.913104e-01 -1.111310e+00 0.0
-9.913104e-01 -1.081310e+00 0.0
-9.913104e-01 -6.613104e-01 0.0
-9.913104e-01 -6.313104e-01 0.0
-9.913104e-01 -5.713104e-01 0.0
-9.913104e-01 -5.413104e-01 0.0
-9.913104e-01 -5.113104e-01 0.0
-9.913104e-01 5.086896e-01 0.0
-9.913104e-01 5.386896e-01 0.0
-9.913104e-01 5.686896e-01 0.0
-9.913104e-01 6.286896e-01 0.0
-9.913104e-01 6.586896e-01 0.0
-9.913104e-01 1.078690e+00 0.0
-9.913104e-01 1.108690e+00 0.0
-9.913104e-01 1.138690e+00 0.0
-9.913104e-01 1.168690e+00 0.0
-9.613104e-01 -1.201310e+00 0.0
-9.613104e-01 -1.171310e+00 0.0
-9.613104e-01 -1.141310e+00 0.0
-9.613104e-01 -1.111310e+00 0.0
-9.613104e-01 -5.413104e-01 0.0
-9.613104e-01 5.386896e-01 0.0
-9.613104e-01 1.138690e+00 0.0
-9.613104e-01 1.168690e+00 0.0
-9.613104e-01 1.198690e+00 0.0
-9.313104e-01 -1.231310e+00 0.0
-9.313104e-01 -1.201310e+00 0.0
-9.313104e-01 -1.171310e+00 0.0
-9.313104e-01 -5.413104e-01 0.0
-9.313104e-01 5.386896e-01 0.0
-9.313104e-01 1.168690e+00 0.0
-9.313104e-01 1.198690e+00 0.0
-9.313104e-01 1.228690e+00 0.0
-9.313104e-01 1.258690e+00 0.0
-9.013104e-01 -1.291310e+00 0.0
-9.013104e-01 -1.261310e+00 0.0
-9.013104e-01 -1.231310e+00 0.0
-9.013104e-01 -1.201310e+00 0.0
-9.013104e-01 -5.713104e-01 0.0
-9.013104e-01 -5.413104e-01 0.0
-9.013104e-01 5.386896e-01 0.0
-9.013104e-01 5.686896e-01 0.0
-9.013104e-01 1.198690e+00 0.0
-9.013104e-01 1.228690e+00 0.0
-9.013104e-01 1.258690e+00 0.0
-9.013104e-01 1.288690e+00 0.0
-8.713104e-01 -1.291310e+00 0.0
-8.713104e-01 -1.261310e+00 0.0
-8.713104e-01 -1.231310e+00 0.0
-8.713104e-01 -5.413104e-01 0.0
-8.713104e-01 5.386896e-01 0.0
-8.713104e-01 5.686896e-01 0.0
-8.713104e-01 1.228690e+00 0.0
-8.713104e-01 1.258690e+00 0.0
-8.713104e-01 1.288690e+00 0.0
-8.713104e-01 1.318690e+00 0.0
-8.413104e-01 -1.321310e+00 0.0
-8.413104e-01 -1.291310e+00 0.0
-8.413104e-01 -1.261310e+00 0.0
-8.413104e-01 1.258690e+00 0.0
-8.413104e-01 1.288690e+00 0.0
-8.413104e-01 1.318690e+00 0.0
-8.113104e-01 -1.351310e+00 0.0
-8.113104e-01 -1.321310e+00 0.0
-8.113104e-01 -1.291310e+00 0.0
-8.113104e-01 1.288690e+00 0.0
-8.113104e-01 1.318690e+00 0.0
-8.113104e-01 1.348690e+00 0.0
-7.813104e-01 -1.381310e+00 0.0
-7.813104e-01 -1.351310e+00 0.0
-7.813104e-01 -1.321310e+00 0.0
-7.813104e-01 -1.291310e+00 0.0
-7.813104e-01 1.318690e+00 0.0
-7.813104e-01 1.348690e+00 0.0
-7.813104e-01 1.378690e+00 0.0
-7.513104e-01 -1.381310e+00 0.0
-7.513104e-01 -1.351310e+00 0.0
-7.513104e-01 -1.321310e+00 0.0
-7.513104e-01 1.318690e+00 0.0
-7.513104e-01 1.348690e+00 0.0
-7.513104e-01 1.378690e+00 0.0
-7.213104e-01 -1.411310e+00 0.0
-7.213104e-01 -1.381310e+00 0.0
-7.213104e-01 -1.351310e+00 0.0
-7.213104e-01 1.348690e+00 0.0
-7.213104e-01 1.378690e+00 0.0
-7.213104e-01 1.408690e+00 0.0
-6.913104e-01 -1.411310e+00 0.0
-6.913104e-01 -1.381310e+00 0.0
-6.913104e-01 -1.351310e+00 0.0
-6.913104e-01 1.348690e+00 0.0
-6.913104e-01 1.378690e+00 0.0
-6.913104e-01 1.408690e+00 0.0
-6.613104e-01 -1.411310e+00 0.0
-6.613104e-01 -1.381310e+00 0.0
-6.613104e-01 -1.351310e+00 0.0
-6.613104e-01 1.348690e+00 0.0
-6.613104e-01 1.378690e+00 0.0
-6.613104e-01 1.408690e+00 0.0
-6.313104e-01 -1.441310e+00 0.0
-6.313104e-01 -1.411310e+00 0.0
-6.313104e-01 -1.381310e+00 0.0
-6.313104e-01 -3.313104e-01 0.0
-6.313104e-01 -3.013104e-01 0.0
-6.313104e-01 2.986896e-01 0.0
-6.313104e-01 3.286896e-01 0.0
-6.313104e-01 1.378690e+00 0.0
-6.313104e-01 1.408690e+00 0.0
-6.313104e-01 1.438690e+00 0.0
-6.013104e-01 -1.441310e+00 0.0
-6.013104e-01 -1.411310e+00 0.0
-6.013104e-01 -1.381310e+00 0.0
-6.013104e-01 -3.313104e-01 0.0
-6.013104e-01 -3.013104e-01 0.0
-6.013104e-01 2.986896e-01 0.0
-6.013104e-01 3.286896e-01 0.0
-6.013104e-01 1.378690e+00 0.0
-6.013104e-01 1.408690e+00 0.0
-6.013104e-01 1.438690e+00 0.0
-5.713104e-01 -1.441310e+00 0.0
-5.713104e-01 -1.411310e+00 0.0
-5.713104e-01 -1.381310e+00 0.0
-5.713104e-01 -3.313104e-01 0.0
-5.713104e-01 -3.013104e-01 0.0
-5.713104e-01 2.986896e-01 0.0
-5.713104e-01 3.286896e-01 0.0
-5.713104e-01 1.378690e+00 0.0
-5.713104e-01 1.408690e+00 0.0
-5.713104e-01 1.438690e+00 0.0
-5.413104e-01 -1.441310e+00 0.0
-5.413104e-01 -1.411310e+00 0.0
-5.413104e-01 -1.381310e+00 0.0
-5.413104e-01 -3.313104e-01 0.0
-5.413104e-01 3.286896e-01 0.0
-5.413104e-01 1.378690e+00 0.0
-5.413104e-01 1.408690e+00 0.0
-5.413104e-01 1.438690e+00 0.0
-5.113104e-01 -1.441310e+00 0.0
-5.113104e-01 -1.411310e+00 0.0
-5.113104e-01 -1.381310e+00 0.0
-5.113104e-01 -3.313104e-01 0.0
-5.113104e-01 -3.013104e-01 0.0
-5.113104e-01 -2.413104e-01 0.0
-5.113104e-01 -2.113104e-01 0.0
-5.113104e-01 2.086896e-01 0.0
-5.113104e-01 2.386896e-01 0.0
-5.113104e-01 2.986896e-01 0.0
-5.113104e-01 3.286896e-01 0.0
-5.113104e-01 1.378690e+00 0.0
-5.113104e-01 1.408690e+00 0.0
-5.113104e-01 1.438690e+00 0.0
-4.813104e-01 -1.441310e+00 0.0
-4.813104e-01 -1.411310e+00 0.0
-4.813104e-01 -1.381310e+00 0.0
-4.813104e-01 -3.313104e-01 0.0
-4.813104e-01 -3.013104e-01 0.0
-4.813104e-01 -2.113104e-01 0.0
-4.813104e-01 -1.813104e-01 0.0
-4.813104e-01 1.786896e-01 0.0
-4.813104e-01 2.086896e-01 0.0
-4.813104e-01 2.986896e-01 0.0
-4.813104e-01 3.286896e-01 0.0
-4.813104e-01 3.586896e-01 0.0
-4.813104e-01 1.378690e+00 0.0
-4.813104e-01 1.408690e+00 0.0
-4.813104e-01 1.438690e+00 0.0
-4.513104e-01 -1.441310e+00 0.0
-4.513104e-01 -1.411310e+00 0.0
-4.513104e-01 -1.381310e+00 0.0
-4.513104e-01 -3.613104e-01 0.0
-4.513104e-01 -3.313104e-01 0.0
-4.513104e-01 -3.013104e-01 0.0
-4.513104e-01 2.986896e-01 0.0
-4.513104e-01 3.286896e-01 0.0
-4.513104e-01 3.586896e-01 0.0
-4.513104e-01 1.378690e+00 0.0
-4.513104e-01 1.408690e+00 0.0
-4.513104e-01 1.438690e+00 0.0
-4.213104e-01 -1.441310e+00 0.0
-4.213104e-01 -1.411310e+00 0.0
-4.213104e-01 -1.381310e+00 0.0
-4.213104e-01 -3.613104e-01 0.0
-4.213104e-01 -3.313104e-01 0.0
-4.213104e-01 -3.013104e-01 0.0
-4.213104e-01 2.986896e-01 0.0
-4.213104e-01 3.286896e-01 0.0
-4.213104e-01 3.586896e-01 0.0
-4.213104e-01 1.378690e+00 0.0
-4.213104e-01 1.408690e+00 0.0
-4.213104e-01 1.438690e+00 0.0
-3.913104e-01 -1.441310e+00 0.0
-3.913104e-01 -1.411310e+00 0.0
-3.913104e-01 -1.381310e+00 0.0
-3.913104e-01 -3.613104e-01 0.0
-3.913104e-01 -3.313104e-01 0.0
-3.913104e-01 -3.013104e-01 0.0
-3.913104e-01 2.986896e-01 0.0
-3.913104e-01 3.286896e-01 0.0
-3.913104e-01 3.586896e-01 0.0
-3.913104e-01 1.378690e+00 0.0
-3.913104e-01 1.408690e+00 0.0
-3.913104e-01 1.438690e+00 0.0
-3.613104e-01 -1.441310e+00 0.0
-3.613104e-01 -1.411310e+00 0.0
-3.613104e-01 -1.381310e+00 0.0
-3.613104e-01 -3.613104e-01 0.0
-3.613104e-01 -3.313104e-01 0.0
-3.613104e-01 -3.013104e-01 0.0
-3.613104e-01 2.986896e-01 0.0
-3.613104e-01 3.286896e-01 0.0
-3.613104e-01 3.586896e-01 0.0
-3.613104e-01 1.378690e+00 0.0
-3.613104e-01 1.408690e+00 0.0
-3.613104e-01 1.438690e+00 0.0
-3.313104e-01 -1.411310e+00 0.0
-3.313104e-01 -1.381310e+00 0.0
-3.313104e-01 -1.351310e+00 0.0
-3.313104e-01 -3.613104e-01 0.0
-3.313104e-01 -3.313104e-01 0.0
-3.313104e-01 -3.013104e-01 0.0
-3.313104e-01 3.286896e-01 0.0
-3.313104e-01 3.586896e-01 0.0
-3.313104e-01 3.886896e-01 0.0
-3.313104e-01 1.348690e+00 0.0
-3.313104e-01 1.378690e+00 0.0
-3.313104e-01 1.408690e+00 0.0
-3.013104e-01 -1.411310e+00 0.0
-3.013104e-01 -1.381310e+00 0.0
-3.013104e-01 -1.351310e+00 0.0
-3.013104e-01 -3.913104e-01 0.0
-3.013104e-01 -3.613104e-01 0.0
-3.013104e-01 -3.313104e-01 0.0
-3.013104e-01 3.286896e-01 0.0
-3.013104e-01 3.586896e-01 0.0
-3.013104e-01 3.886896e-01 0.0
-3.013104e-01 1.348690e+00 0.0
-3.013104e-01 1.378690e+00 0.0
-3.013104e-01 1.408690e+00 0.0
-2.713104e-01 -1.381310e+00 0.0
-2.713104e-01 -1.351310e+00 0.0
-2.713104e-01 -1.321310e+00 0.0
-2.713104e-01 -3.913104e-01 0.0
-2.713104e-01 -3.613104e-01 0.0
-2.713104e-01 -3.313104e-01 0.0
-2.713104e-01 3.286896e-01 0.0
-2.713104e-01 3.586896e-01 0.0
-2.713104e-01 3.886896e-01 0.0
-2.713104e-01 1.318690e+00 0.0
-2.713104e-01 1.348690e+00 0.0
-2.713104e-01 1.378690e+00 0.0
-2.713104e-01 1.408690e+00 0.0
-2.413104e-01 -1.381310e+00 0.0
-2.413104e-01 -1.351310e+00 0.0
-2.413104e-01 -1.321310e+00 0.0
-2.413104e-01 -4.213104e-01 0.0
-2.413104e-01 -3.913104e-01 0.0
-2.413104e-01 -3.613104e-01 0.0
-2.413104e-01 3.586896e-01 0.0
-2.413104e-01 3.886896e-01 0.0
-2.413104e-01 4.186896e-01 0.0
-2.413104e-01 1.318690e+00 0.0
-2.413104e-01 1.348690e+00 0.0
-2.413104e-01 1.378690e+00 0.0
-2.113104e-01 -1.351310e+00 0.0
-2.113104e-01 -1.321310e+00 0.0
-2.113104e-01 -1.291310e+00 0.0
-2.113104e-01 -4.213104e-01 0.0
-2.113104e-01 -3.913104e-01 0.0
-2.113104e-01 -3.613104e-01 0.0
-2.113104e-01 3.586896e-01 0.0
-2.113104e-01 3.886896e-01 0.0
-2.113104e-01 4.186896e-01 0.0
-2.113104e-01 1.288690e+00 0.0
-2.113104e-01 1.318690e+00 0.0
-2.113104e-01 1.348690e+00 0.0
-2.113104e-01 1.378690e+00 0.0
-1.813104e-01 -1.351310e+00 0.0
-1.813104e-01 -1.321310e+00 0.0
-1.813104e-01 -1.291310e+00 0.0
-1.813104e-01 -4.513104e-01 0.0
-1.813104e-01 -4.213104e-01 0.0
-1.813104e-01 -3.913104e-01 0.0
-1.813104e-01 3.886896e-01 0.0
-1.813104e-01 4.186896e-01 0.0
-1.813104e-01 4.486896e-01 0.0
-1.813104e-01 1.288690e+00 0.0
-1.813104e-01 1.318690e+00 0.0
-1.813104e-01 1.348690e+00 0.0
-1.513104e-01 -1.321310e+00 0.0
-1.513104e-01 -1.291310e+00 0.0
-1.513104e-01 -1.261310e+00 0.0
-1.513104e-01 -4.813104e-01 0.0
-1.513104e-01 -4.513104e-01 0.0
-1.513104e-01 -4.213104e-01 0.0
-1.513104e-01 4.186896e-01 0.0
-1.513104e-01 4.486896e-01 0.0
-1.513104e-01 4.786896e-01 0.0
-1.513104e-01 1.258690e+00 0.0
-1.513104e-01 1.288690e+00 0.0
-1.513104e-01 1.318690e+00 0.0
-1.213104e-01 -1.291310e+00 0.0
-1.213104e-01 -1.261310e+00 0.0
-1.213104e-01 -1.231310e+00 0.0
-1.213104e-01 -5.113104e-01 0.0
-1.213104e-01 -4.813104e-01 0.0
-1.213104e-01 -4.513104e-01 0.0
-1.213104e-01 -4.213104e-01 0.0
-1.213104e-01 4.186896e-01 0.0
-1.213104e-01 4.486896e-01 0.0
-1.213104e-01 4.786896e-01 0.0
-1.213104e-01 5.086896e-01 0.0
-1.213104e-01 1.228690e+00 0.0
-1.213104e-01 1.258690e+00 0.0
-1.213104e-01 1.288690e+00 0.0
-9.131038e-02 -1.261310e+00 0.0
-9.131038e-02 -1.231310e+00 0.0
-9.131038e-02 -1.201310e+00 0.0
-9.131038e-02 -5.413104e-01 0.0
-9.131038e-02 -5.113104e-01 0.0
-9.131038e-02 -4.813104e-01 0.0
-9.131038e-02 -4.513104e-01 0.0
-9.131038e-02 4.486896e-01 0.0
-9.131038e-02 4.786896e-01 0.0
-9.131038e-02 5.086896e-01 0.0
-9.131038e-02 5.386896e-01 0.0
-9.131038e-02 1.198690e+00 0.0
-9.131038e-02 1.228690e+00 0.0
-9.131038e-02 1.258690e+00 0.0
-6.131038e-02 -1.231310e+00 0.0
-6.131038e-02 -1.201310e+00 0.0
-6.131038e-02 -1.171310e+00 0.0
-6.131038e-02 -1.141310e+00 0.0
-6.131038e-02 -5.713104e-01 0.0
-6.131038e-02 -5.413104e-01 0.0
-6.131038e-02 -5.113104e-01 0.0
-6.131038e-02 -4.813104e-01 0.0
-6.131038e-02 5.086896e-01 0.0
-6.131038e-02 5.386896e-01 0.0
-6.131038e-02 5.686896e-01 0.0
-6.131038e-02 1.168690e+00 0.0
-6.131038e-02 1.198690e+00 0.0
-6.131038e-02 1.228690e+00 0.0
-3.131038e-02 -1.201310e+00 0.0
-3.131038e-02 -1.171310e+00 0.0
-3.131038e-02 -1.141310e+00 0.0
-3.131038e-02 -1.111310e+00 0.0
-3.131038e-02 -1.081310e+00 0.0
-3.131038e-02 -1.051310e+00 0.0
-3.131038e-02 -6.613104e-01 0.0
-3.131038e-02 -6.313104e-01 0.0
-3.131038e-02 -6.013104e-01 0.0
-3.131038e-02 -5.713104e-01 0.0
-3.131038e-02 -5.413104e-01 0.0
-3.131038e-02 5.386896e-01 0.0
-3.131038e-02 5.686896e-01 0.0
-3.131038e-02 5.986896e-01 0.0
-3.131038e-02 6.286896e-01 0.0
-3.131038e-02 6.586896e-01 0.0
-3.131038e-02 1.078690e+00 0.0
-3.131038e-02 1.108690e+00 0.0
-3.131038e-02 1.138690e+00 0.0
-3.131038e-02 1.168690e+00 0.0
-3.131038e-02 1.198690e+00 0.0
-1.310379e-03 -1.171310e+00 0.0
-1.310379e-03 -1.141310e+00 0.0
-1.310379e-03 -1.111310e+00 0.0
-1.310379e-03 -1.081310e+00 0.0
-1.310379e-03 -1.051310e+00 0.0
-1.310379e-03 -6.913104e-01 0.0
-1.310379e-03 -6.613104e-01 0.0
-1.310379e-03 -6.313104e-01 0.0
-1.310379e-03 -6.013104e-01 0.0
-1.310379e-03 -5.713104e-01 0.0
-1.310379e-03 5.686896e-01 0.0
-1.310379e-03 5.986896e-01 0.0
-1.310379e-03 6.286896e-01 0.0
-1.310379e-03 6.586896e-01 0.0
-1.310379e-03 6.886896e-01 0.0
-1.310379e-03 1.048690e+00 0.0
-1.310379e-03 1.078690e+00 0.0
-1.310379e-03 1.108690e+00 0.0
-1.310379e-03 1.138690e+00 0.0
-1.310379e-03 1.168690e+00 0.0
2.868962e-02 -1.201310e+00 0.0
2.868962e-02 -1.171310e+00 0.0
2.868962e-02 -1.141310e+00 0.0
2.868962e-02 -1.111310e+00 0.0
2.868962e-02 -1.081310e+00 0.0
2.868962e-02 -1.051310e+00 0.0
2.868962e-02 -6.613104e-01 0.0
2.868962e-02 -6.313104e-01 0.0
2.868962e-02 -6.013104e-01 0.0
2.868962e-02 -5.713104e-01 0.0
2.868962e-02 -5.413104e-01 0.0
2.868962e-02 5.386896e-01 0.0
2.868962e-02 5.686896e-01 0.0
2.868962e-02 5.986896e-01 0.0
2.868962e-02 6.286896e-01 0.0
2.868962e-02 6.586896e-01 0.0
2.868962e-02 1.048690e+00 0.0
2.868962e-02 1.078690e+00 0.0
2.868962e-02 1.108690e+00 0.0
2.868962e-02 1.138690e+00 0.0
2.868962e-02 1.168690e+00 0.0
2.868962e-02 1.198690e+00 0.0
5.868962e-02 -1.231310e+00 0.0
5.868962e-02 -1.201310e+00 0.0
5.868962e-02 -1.171310e+00 0.0
5.868962e-02 -1.141310e+00 0.0
5.868962e-02 -5.713104e-01 0.0
5.868962e-02 -5.413104e-01 0.0
5.868962e-02 -5.113104e-01 0.0
5.868962e-02 5.086896e-01 0.0
5.868962e-02 5.386896e-01 0.0
5.868962e-02 5.686896e-01 0.0
5.868962e-02 1.138690e+00 0.0
5.868962e-02 1.168690e+00 0.0
5.868962e-02 1.198690e+00 0.0
5.868962e-02 1.228690e+00 0.0
8.868962e-02 -1.261310e+00 0.0
8.868962e-02 -1.231310e+00 0.0
8.868962e-02 -1.201310e+00 0.0
8.868962e-02 -5.413104e-01 0.0
8.868962e-02 -5.113104e-01 0.0
8.868962e-02 -4.813104e-01 0.0
8.868962e-02 -4.513104e-01 0.0
8.868962e-02 4.786896e-01 0.0
8.868962e-02 5.086896e-01 0.0
8.868962e-02 5.386896e-01 0.0
8.868962e-02 1.198690e+00 0.0
8.868962e-02 1.228690e+00 0.0
8.868962e-02 1.258690e+00 0.0
1.186896e-01 -1.291310e+00 0.0
1.186896e-01 -1.261310e+00 0.0
1.186896e-01 -1.231310e+00 0.0
1.186896e-01 -5.113104e-01 0.0
1.186896e-01 -4.813104e-01 0.0
1.186896e-01 -4.513104e-01 0.0
1.186896e-01 -4.213104e-01 0.0
1.186896e-01 4.486896e-01 0.0
1.186896e-01 4.786896e-01 0.0
1.186896e-01 5.086896e-01 0.0
1.186896e-01 1.228690e+00 0.0
1.186896e-01 1.258690e+00 0.0
1.186896e-01 1.288690e+00 0.0
1.486896e-01 -1.321310e+00 0.0
1.486896e-01 -1.291310e+00 0.0
1.486896e-01 -1.261310e+00 0.0
1.486896e-01 -4.813104e-01 0.0
1.486896e-01 -4.513104e-01 0.0
1.486896e-01 -4.213104e-01 0.0
1.486896e-01 4.186896e-01 0.0
1.486896e-01 4.486896e-01 0.0
1.486896e-01 4.786896e-01 0.0
1.486896e-01 1.258690e+00 0.0
1.486896e-01 1.288690e+00 0.0
1.486896e-01 1.318690e+00 0.0
1.786896e-01 -1.351310e+00 0.0
1.786896e-01 -1.321310e+00 0.0
1.786896e-01 -1.291310e+00 0.0
1.786896e-01 -4.513104e-01 0.0
1.786896e-01 -4.213104e-01 0.0
1.786896e-01 -3.913104e-01 0.0
1.786896e-01 3.886896e-01 0.0
1.786896e-01 4.186896e-01 0.0
1.786896e-01 4.486896e-01 0.0
1.786896e-01 1.288690e+00 0.0
1.786896e-01 1.318690e+00 0.0
1.786896e-01 1.348690e+00 0.0
2.086896e-01 -1.351310e+00 0.0
2.086896e-01 -1.321310e+00 0.0
2.086896e-01 -1.291310e+00 0.0
2.086896e-01 -4.213104e-01 0.0
2.086896e-01 -3.913104e-01 0.0
2.086896e-01 -3.613104e-01 0.0
2.086896e-01 3.586896e-01 0.0
2.086896e-01 3.886896e-01 0.0
2.086896e-01 4.186896e-01 0.0
2.086896e-01 4.486896e-01 0.0
2.086896e-01 1.288690e+00 0.0
2.086896e-01 1.318690e+00 0.0
2.086896e-01 1.348690e+00 0.0
2.086896e-01 1.378690e+00 0.0
2.386896e-01 -1.381310e+00 0.0
2.386896e-01 -1.351310e+00 0.0
2.386896e-01 -1.321310e+00 0.0
2.386896e-01 -4.213104e-01 0.0
2.386896e-01 -3.913104e-01 0.0
2.386896e-01 -3.613104e-01 0.0
2.386896e-01 3.586896e-01 0.0
2.386896e-01 3.886896e-01 0.0
2.386896e-01 4.186896e-01 0.0
2.386896e-01 1.318690e+00 0.0
2.386896e-01 1.348690e+00 0.0
2.386896e-01 1.378690e+00 0.0
2.686896e-01 -1.381310e+00 0.0
2.686896e-01 -1.351310e+00 0.0
2.686896e-01 -1.321310e+00 0.0
2.686896e-01 -3.913104e-01 0.0
2.686896e-01 -3.613104e-01 0.0
2.686896e-01 -3.313104e-01 0.0
2.686896e-01 3.286896e-01 0.0
2.686896e-01 3.586896e-01 0.0
2.686896e-01 3.886896e-01 0.0
2.686896e-01 1.318690e+00 0.0
2.686896e-01 1.348690e+00 0.0
2.686896e-01 1.378690e+00 0.0
2.686896e-01 1.408690e+00 0.0
2.986896e-01 -1.411310e+00 0.0
2.986896e-01 -1.381310e+00 0.0
2.986896e-01 -1.351310e+00 0.0
2.986896e-01 -3.913104e-01 0.0
2.986896e-01 -3.613104e-01 0.0
2.986896e-01 -3.313104e-01 0.0
2.986896e-01 3.286896e-01 0.0
2.986896e-01 3.586896e-01 0.0
2.986896e-01 3.886896e-01 0.0
2.986896e-01 1.348690e+00 0.0
2.986896e-01 1.378690e+00 0.0
2.986896e-01 1.408690e+00 0.0
3.286896e-01 -1.411310e+00 0.0
3.286896e-01 -1.381310e+00 0.0
3.286896e-01 -1.351310e+00 0.0
3.286896e-01 -3.613104e-01 0.0
3.286896e-01 -3.313104e-01 0.0
3.286896e-01 -3.013104e-01 0.0
3.286896e-01 3.286896e-01 0.0
3.286896e-01 3.586896e-01 0.0
3.286896e-01 3.886896e-01 0.0
3.286896e-01 1.348690e+00 0.0
3.286896e-01 1.378690e+00 0.0
3.286896e-01 1.408690e+00 0.0
3.586896e-01 -1.411310e+00 0.0
3.586896e-01 -1.381310e+00 0.0
3.586896e-01 -3.613104e-01 0.0
3.586896e-01 -3.313104e-01 0.0
3.586896e-01 -3.013104e-01 0.0
3.586896e-01 2.986896e-01 0.0
3.586896e-01 3.286896e-01 0.0
3.586896e-01 3.586896e-01 0.0
3.586896e-01 1.378690e+00 0.0
3.586896e-01 1.408690e+00 0.0
3.586896e-01 1.438690e+00 0.0
3.886896e-01 -1.441310e+00 0.0
3.886896e-01 -1.411310e+00 0.0
3.886896e-01 -1.381310e+00 0.0
3.886896e-01 -3.613104e-01 0.0
3.886896e-01 -3.313104e-01 0.0
3.886896e-01 -3.013104e-01 0.0
3.886896e-01 2.986896e-01 0.0
3.886896e-01 3.286896e-01 0.0
3.886896e-01 3.586896e-01 0.0
3.886896e-01 1.378690e+00 0.0
3.886896e-01 1.408690e+00 0.0
3.886896e-01 1.438690e+00 0.0
4.186896e-01 -1.441310e+00 0.0
4.186896e-01 -1.411310e+00 0.0
4.186896e-01 -1.381310e+00 0.0
4.186896e-01 -3.613104e-01 0.0
4.186896e-01 -3.313104e-01 0.0
4.186896e-01 -3.013104e-01 0.0
4.186896e-01 2.986896e-01 0.0
4.186896e-01 3.286896e-01 0.0
4.186896e-01 3.586896e-01 0.0
4.186896e-01 1.378690e+00 0.0
4.186896e-01 1.408690e+00 0.0
4.186896e-01 1.438690e+00 0.0
4.486896e-01 -1.441310e+00 0.0
4.486896e-01 -1.411310e+00 0.0
4.486896e-01 -1.381310e+00 0.0
4.486896e-01 -3.613104e-01 0.0
4.486896e-01 -3.313104e-01 0.0
4.486896e-01 -3.013104e-01 0.0
4.486896e-01 2.986896e-01 0.0
4.486896e-01 3.286896e-01 0.0
4.486896e-01 3.586896e-01 0.0
4.486896e-01 1.378690e+00 0.0
4.486896e-01 1.408690e+00 0.0
4.486896e-01 1.438690e+00 0.0
4.786896e-01 -1.441310e+00 0.0
4.786896e-01 -1.411310e+00 0.0
4.786896e-01 -1.381310e+00 0.0
4.786896e-01 -3.613104e-01 0.0
4.786896e-01 -3.313104e-01 0.0
4.786896e-01 -3.013104e-01 0.0
4.786896e-01 -2.113104e-01 0.0
4.786896e-01 -1.813104e-01 0.0
4.786896e-01 1.786896e-01 0.0
4.786896e-01 2.086896e-01 0.0
4.786896e-01 2.986896e-01 0.0
4.786896e-01 3.286896e-01 0.0
4.786896e-01 3.586896e-01 0.0
4.786896e-01 1.378690e+00 0.0
4.786896e-01 1.408690e+00 0.0
4.786896e-01 1.438690e+00 0.0
5.086896e-01 -1.441310e+00 0.0
5.086896e-01 -1.411310e+00 0.0
5.086896e-01 -1.381310e+00 0.0
5.086896e-01 -3.313104e-01 0.0
5.086896e-01 -3.013104e-01 0.0
5.086896e-01 -2.413104e-01 0.0
5.086896e-01 -2.113104e-01 0.0
5.086896e-01 2.086896e-01 0.0
5.086896e-01 2.386896e-01 0.0
5.086896e-01 2.986896e-01 0.0
5.086896e-01 3.286896e-01 0.0
5.086896e-01 1.378690e+00 0.0
5.086896e-01 1.408690e+00 0.0
5.086896e-01 1.438690e+00 0.0
5.386896e-01 -1.441310e+00 0.0
5.386896e-01 -1.411310e+00 0.0
5.386896e-01 -1.381310e+00 0.0
5.386896e-01 -3.313104e-01 0.0
5.386896e-01 3.286896e-01 0.0
5.386896e-01 1.378690e+00 0.0
5.386896e-01 1.408690e+00 0.0
5.386896e-01 1.438690e+00 0.0
5.686896e-01 -1.441310e+00 0.0
5.686896e-01 -1.411310e+00 0.0
5.686896e-01 -1.381310e+00 0.0
5.686896e-01 -3.313104e-01 0.0
5.686896e-01 -3.013104e-01 0.0
5.686896e-01 2.986896e-01 0.0
5.686896e-01 3.286896e-01 0.0
5.686896e-01 1.378690e+00 0.0
5.686896e-01 1.408690e+00 0.0
5.686896e-01 1.438690e+00 0.0
5.986896e-01 -1.441310e+00 0.0
5.986896e-01 -1.411310e+00 0.0
5.986896e-01 -1.381310e+00 0.0
5.986896e-01 -3.313104e-01 0.0
5.986896e-01 -3.013104e-01 0.0
5.986896e-01 2.986896e-01 0.0
5.986896e-01 3.286896e-01 0.0
5.986896e-01 1.378690e+00 0.0
5.986896e-01 1.408690e+00 0.0
5.986896e-01 1.438690e+00 0.0
6.286896e-01 -1.441310e+00 0.0
6.286896e-01 -1.411310e+00 0.0
6.286896e-01 -1.381310e+00 0.0
6.286896e-01 -3.313104e-01 0.0
6.286896e-01 -3.013104e-01 0.0
6.286896e-01 2.986896e-01 0.0
6.286896e-01 3.286896e-01 0.0
6.286896e-01 1.378690e+00 0.0
6.286896e-01 1.408690e+00 0.0
6.286896e-01 1.438690e+00 0.0
6.586896e-01 -1.411310e+00 0.0
6.586896e-01 -1.381310e+00 0.0
6.586896e-01 -1.351310e+00 0.0
6.586896e-01 1.348690e+00 0.0
6.586896e-01 1.378690e+00 0.0
6.586896e-01 1.408690e+00 0.0
6.886896e-01 -1.411310e+00 0.0
6.886896e-01 -1.381310e+00 0.0
6.886896e-01 -1.351310e+00 0.0
6.886896e-01 1.348690e+00 0.0
6.886896e-01 1.378690e+00 0.0
6.886896e-01 1.408690e+00 0.0
7.186896e-01 -1.411310e+00 0.0
7.186896e-01 -1.381310e+00 0.0
7.186896e-01 -1.351310e+00 0.0
7.186896e-01 1.348690e+00 0.0
7.186896e-01 1.378690e+00 0.0
7.186896e-01 1.408690e+00 0.0
7.486896e-01 -1.381310e+00 0.0
7.486896e-01 -1.351310e+00 0.0
7.486896e-01 -1.321310e+00 0.0
7.486896e-01 1.318690e+00 0.0
7.486896e-01 1.348690e+00 0.0
7.486896e-01 1.378690e+00 0.0
7.786896e-01 -1.381310e+00 0.0
7.786896e-01 -1.351310e+00 0.0
7.786896e-01 -1.321310e+00 0.0
7.786896e-01 -1.291310e+00 0.0
7.786896e-01 1.318690e+00 0.0
7.786896e-01 1.348690e+00 0.0
7.786896e-01 1.378690e+00 0.0
8.086896e-01 -1.351310e+00 0.0
8.086896e-01 -1.321310e+00 0.0
8.086896e-01 -1.291310e+00 0.0
8.086896e-01 1.288690e+00 0.0
8.086896e-01 1.318690e+00 0.0
8.086896e-01 1.348690e+00 0.0
8.386896e-01 -1.321310e+00 0.0
8.386896e-01 -1.291310e+00 0.0
8.386896e-01 -1.261310e+00 0.0
8.386896e-01 1.258690e+00 0.0
8.386896e-01 1.288690e+00 0.0
8.386896e-01 1.318690e+00 0.0
8.686896e-01 -1.321310e+00 0.0
8.686896e-01 -1.291310e+00 0.0
8.686896e-01 -1.261310e+00 0.0
8.686896e-01 -1.231310e+00 0.0
8.686896e-01 -5.413104e-01 0.0
8.686896e-01 5.386896e-01 0.0
8.686896e-01 1.228690e+00 0.0
8.686896e-01 1.258690e+00 0.0
8.686896e-01 1.288690e+00 0.0
8.686896e-01 1.318690e+00 0.0
8.986896e-01 -1.291310e+00 0.0
8.986896e-01 -1.261310e+00 0.0
8.986896e-01 -1.231310e+00 0.0
8.986896e-01 -1.201310e+00 0.0
8.986896e-01 -5.713104e-01 0.0
8.986896e-01 -5.413104e-01 0.0
8.986896e-01 5.386896e-01 0.0
8.986896e-01 5.686896e-01 0.0
8.986896e-01 1.198690e+00 0.0
8.986896e-01 1.228690e+00 0.0
8.986896e-01 1.258690e+00 0.0
8.986896e-01 1.288690e+00 0.0
9.286896e-01 -1.261310e+00 0.0
9.286896e-01 -1.231310e+00 0.0
9.286896e-01 -1.201310e+00 0.0
9.286896e-01 -1.171310e+00 0.0
9.286896e-01 -5.413104e-01 0.0
9.286896e-01 5.386896e-01 0.0
9.286896e-01 5.686896e-01 0.0
9.286896e-01 1.168690e+00 0.0
9.286896e-01 1.198690e+00 0.0
9.286896e-01 1.228690e+00 0.0
9.286896e-01 1.258690e+00 0.0
9.586896e-01 -1.201310e+00 0.0
9.586896e-01 -1.171310e+00 0.0
9.586896e-01 -1.141310e+00 0.0
9.586896e-01 -5.413104e-01 0.0
9.586896e-01 5.386896e-01 0.0
9.586896e-01 1.138690e+00 0.0
9.586896e-01 1.168690e+00 0.0
9.586896e-01 1.198690e+00 0.0
9.886896e-01 -1.171310e+00 0.0
9.886896e-01 -1.141310e+00 0.0
9.886896e-01 -1.111310e+00 0.0
9.886896e-01 -1.081310e+00 0.0
9.886896e-01 -6.613104e-01 0.0
9.886896e-01 -6.313104e-01 0.0
9.886896e-01 -5.713104e-01 0.0
9.886896e-01 -5.413104e-01 0.0
9.886896e-01 -5.113104e-01 0.0
9.886896e-01 5.386896e-01 0.0
9.886896e-01 5.686896e-01 0.0
9.886896e-01 6.286896e-01 0.0
9.886896e-01 6.586896e-01 0.0
9.886896e-01 1.078690e+00 0.0
9.886896e-01 1.108690e+00 0.0
9.886896e-01 1.138690e+00 0.0
9.886896e-01 1.168690e+00 0.0
1.018690e+00 -1.081310e+00 0.0
1.018690e+00 -1.051310e+00 0.0
1.018690e+00 -6.913104e-01 0.0
1.018690e+00 -6.613104e-01 0.0
1.018690e+00 -5.713104e-01 0.0
1.018690e+00 -5.413104e-01 0.0
1.018690e+00 -5.113104e-01 0.0
1.018690e+00 5.086896e-01 0.0
1.018690e+00 5.386896e-01 0.0
1.018690e+00 5.686896e-01 0.0
1.018690e+00 6.586896e-01 0.0
1.018690e+00 6.886896e-01 0.0
1.018690e+00 1.048690e+00 0.0
1.018690e+00 1.078690e+00 0.0
1.048690e+00 -5.713104e-01 0.0
1.048690e+00 -5.413104e-01 0.0
1.048690e+00 -5.113104e-01 0.0
1.048690e+00 5.086896e-01 0.0
1.048690e+00 5.386896e-01 0.0
1.048690e+00 5.686896e-01 0.0
1.078690e+00 -5.713104e-01 0.0
1.078690e+00 -5.413104e-01 0.0
1.078690e+00 -5.113104e-01 0.0
1.078690e+00 5.086896e-01 0.0
1.078690e+00 5.386896e-01 0.0
1.078690e+00 5.686896e-01 0.0
1.108690e+00 -5.713104e-01 0.0
1.108690e+00 -5.413104e-01 0.0
1.108690e+00 -5.113104e-01 0.0
1.108690e+00 5.086896e-01 0.0
1.108690e+00 5.386896e-01 0.0
1.108690e+00 5.686896e-01 0.0
1.138690e+00 -5.713104e-01 0.0
1.138690e+00 -5.413104e-01 0.0
1.138690e+00 -5.113104e-01 0.0
1.138690e+00 5.086896e-01 0.0
1.138690e+00 5.386896e-01 0.0
1.138690e+00 5.686896e-01 0.0
1.168690e+00 -5.413104e-01 0.0
1.168690e+00 -5.113104e-01 0.0
1.168690e+00 -4.813104e-01 0.0
1.168690e+00 4.786896e-01 0.0
1.168690e+00 5.086896e-01 0.0
1.168690e+00 5.386896e-01 0.0
1.198690e+00 -5.413104e-01 0.0
1.198690e+00 -5.113104e-01 0.0
1.198690e+00 -4.813104e-01 0.0
1.198690e+00 4.786896e-01 0.0
1.198690e+00 5.086896e-01 0.0
1.198690e+00 5.386896e-01 0.0
1.228690e+00 -5.413104e-01 0.0
1.228690e+00 -5.113104e-01 0.0
1.228690e+00 -4.813104e-01 0.0
1.228690e+00 4.786896e-01 0.0
1.228690e+00 5.086896e-01 0.0
1.228690e+00 5.386896e-01 0.0
1.258690e+00 -5.113104e-01 0.0
1.258690e+00 -4.813104e-01 0.0
1.258690e+00 -4.513104e-01 0.0
1.258690e+00 4.486896e-01 0.0
1.258690e+00 4.786896e-01 0.0
1.258690e+00 5.086896e-01 0.0
1.288690e+00 -5.113104e-01 0.0
1.288690e+00 -4.813104e-01 0.0
1.288690e+00 -4.513104e-01 0.0
1.288690e+00 -4.213104e-01 0.0
1.288690e+00 4.186896e-01 0.0
1.288690e+00 4.486896e-01 0.0
1.288690e+00 4.786896e-01 0.0
1.288690e+00 5.086896e-01 0.0
1.318690e+00 -4.813104e-01 0.0
1.318690e+00 -4.513104e-01 0.0
1.318690e+00 -4.213104e-01 0.0
1.318690e+00 4.186896e-01 0.0
1.318690e+00 4.486896e-01 0.0
1.318690e+00 4.786896e-01 0.0
1.348690e+00 -4.513104e-01 0.0
1.348690e+00 -4.213104e-01 0.0
1.348690e+00 -3.913104e-01 0.0
1.348690e+00 3.886896e-01 0.0
1.348690e+00 4.186896e-01 0.0
1.348690e+00 4.486896e-01 0.0
1.378690e+00 -4.213104e-01 0.0
1.378690e+00 -3.913104e-01 0.0
1.378690e+00 -3.613104e-01 0.0
1.378690e+00 3.586896e-01 0.0
1.378690e+00 3.886896e-01 0.0
1.378690e+00 4.186896e-01 0.0
1.408690e+00 -3.913104e-01 0.0
1.408690e+00 -3.613104e-01 0.0
1.408690e+00 -3.313104e-01 0.0
1.408690e+00 3.286896e-01 0.0
1.408690e+00 3.586896e-01 0.0
1.408690e+00 3.886896e-01 0.0
1.408690e+00 4.186896e-01 0.0
1.438690e+00 -3.613104e-01 0.0
1.438690e+00 -3.313104e-01 0.0
1.438690e+00 -3.013104e-01 0.0
1.438690e+00 2.986896e-01 0.0
1.438690e+00 3.286896e-01 0.0
1.438690e+00 3.586896e-01 0.0
1.468690e+00 -3.313104e-01 0.0
1.468690e+00 -3.013104e-01 0.0
1.468690e+00 -2.713104e-01 0.0
1.468690e+00 -2.413104e-01 0.0
1.468690e+00 2.386896e-01 0.0
1.468690e+00 2.686896e-01 0.0
1.468690e+00 2.986896e-01 0.0
1.468690e+00 3.286896e-01 0.0
1.498690e+00 -2.713104e-01 0.0
1.498690e+00 -2.413104e-01 0.0
1.498690e+00 -2.113104e-01 0.0
1.498690e+00 2.086896e-01 0.0
1.498690e+00 2.386896e-01 0.0
1.498690e+00 2.686896e-01 0.0
1.528690e+00 -1.813104e-01 0.0
1.528690e+00 1.786896e-01 0.0

CELLS 981 1962
1 0
1 1
1 2
1 3
1 4
1 5
1 6
1 7
1 8
1 9
1 10
1 11
1 12
1 13
1 14
1 15
1 16
1 17
1 18
1 19
1 20
1 21
1 22
1 23
1 24
1 25
1 26
1 27
1 28
1 29
1 30
1 31
1 32
1 33
1 34
1 35
1 36
1 37
1 38
1 39
1 40
1 41
1 42
1 43
1 44
1 45
1 46
1 47
1 48
1 49
1 50
1 51
1 52
1 53
1 54
1 55
1 56
1 57
1 58
1 59
1 60
1 61
1 62
1 63
1 64
1 65
1 66
1 67
1 68
1 69
1 70
1 71
1 72
1 73
1 74
1 75
1 76
1 77
1 78
1 79
1 80
1 81
1 82
1 83
1 84
1 85
1 86
1 87
1 88
1 89
1 90
1 91
1 92
1 93
1 94
1 95
1 96
1 97
1 98
1 99
1 100
1 101
1 102
1 103
1 104
1 105
1 106
1 107
1 108
1 109
1 110
1 111
1 112
1 113
1 114
1 115
1 116
1 117
1 118
1 119
1 120
1 121
1 122
1 123
1 124
1 125
1 126
1 127
1 128
1 129
1 130
1 131
1 132
1 133
1 134
1 135
1 136
1 137
1 138
1 139
1 140
1 141
1 142
1 143
1 144
1 145
1 146
1 147
1 148
1 149
1 150
1 151
1 152
1 153
1 154
1 155
1 156
1 157
1 158
1 159
1 160
1 161
1 162
1 163
1 164
1 165
1 166
1 167
1 168
1 169
1 170
1 171
1 172
1 173
1 174
1 175
1 176
1 177
1 178
1 179
1 180
1 181
1 182
1 183
1 184
1 185
1 186
1 187
1 188
1 189
1 190
1 191
1 192
1 193
1 194
1 195
1 196
1 197
1 198
1 199
1 200
1 201
1 202
1 203
1 204
1 205
1 206
1 207
1 208
1 209
1 210
1 211
1 212
1 213
1 214
1 215
1 216
1 217
1 218
1 219
1 220
1 221
1 222
1 223
1 224
1 225
1 226
1 227
1 228
1 229
1 230
1 231
1 232
1 233
1 234
1 235
1 236
1 237
1 238
1 239
1 240
1 241
1 242
1 243
1 244
1 245
1 246
1 247
1 248
1 249
1 250
1 251
1 252
1 253
1 254
1 255
1 256
1 257
1 258
1 259
1 260
1 261
1 262
1 263
1 264
1 265
1 266
1 267
1 268
1 269
1 270
1 271
1 272
1 273
1 274
1 275
1 276
1 277
1 278
1 279
1 280
1 281
1 282
1 283
1 284
1 285
1 286
1 287
1 288
1 289
1 290
1 291
1 292
1 293
1 294
1 295
1 296
1 297
1 298
1 299
1 300
1 301
1 302
1 303
1 304
1 305
1 306
1 307
1 308
1 309
1 310
1 311
1 312
1 313
1 314
1 315
1 316
1 317
1 318
1 319
1 320
1 321
1 322
1 323
1 324
1 325
1 326
1 327
1 328
1 329
1 330
1 331
1 332
1 333
1 334
1 335
1 336
1 337
1 338
1 339
1 340
1 341
1 342
1 343
1 344
1 345
1 346
1 347
1 348
1 349
1 350
1 351
1 352
1 353
1 354
1 355
1 356
1 357
1 358
1 359
1 360
1 361
1 362
1 363
1 364
1 365
1 366
1 367
1 368
1 369
1 370
1 371
1 372
1 373
1 374
1 375
1 376
1 377
1 378
1 379
1 380
1 381
1 382
1 383
1 384
1 385
1 386
1 387
1 388
1 389
1 390
1 391
1 392
1 393
1 394
1 395
1 396
1 397
1 398
1 399
1 400
1 401
1 402
1 403
1 404
1 405
1 406
1 407
1 408
1 409
1 410
1 411
1 412
1 413
1 414
1 415
1 416
1 417
1 418
1 419
1 420
1 421
1 422
1 423
1 424
1 425
1 426
1 427
1 428
1 429
1 430
1 431
1 432
1 433
1 434
1 435
1 436
1 437
1 438
1 439
1 440
1 441
1 442
1 443
1 444
1 445
1 446
1 447
1 448
1 449
1 450
1 451
1 452
1 453
1 454
1 455
1 456
1 457
1 458
1 459
1 460
1 461
1 462
1 463
1 464
1 465
1 466
1 467
1 468
1 469
1 470
1 471
1 472
1 473
1 474
1 475
1 476
1 477
1 478
1 479
1 480
1 481
1 482
1 483
1 484
1 485
1 486
1 487
1 488
1 489
1 490
1 491
1 492
1 493
1 494
1 495
1 496
1 497
1 498
1 499
1 500
1 501
1 502
1 503
1 504
1 505
1 506
1 507
1 508
1 509
1 510
1 511
1 512
1 513
1 514
1 515
1 516
1 517
1 518
1 519
1 520
1 521
1 522
1 523
1 524
1 525
1 526
1 527
1 528
1 529
1 530
1 531
1 532
1 533
1 534
1 535
1 536
1 537
1 538
1 539
1 540
1 541
1 542
1 543
1 544
1 545
1 546
1 547
1 548
1 549
1 550
1 551
1 552
1 553
1 554
1 555
1 556
1 557
1 558
1 559
1 560
1 561
1 562
1 563
1 564
1 565
1 566
1 567
1 568
1 569
1 570
1 571
1 572
1 573
1 574
1 575
1 576
1 577
1 578
1 579
1 580
1 581
1 582
1 583
1 584
1 585
1 586
1 587
1 588
1 589
1 590
1 591
1 592
1 593
1 594
1 595
1 596
1 597
1 598
1 599
1 600
1 601
1 602
1 603
1 604
1 605
1 606
1 607
1 608
1 609
1 610
1 611
1 612
1 613
1 614
1 615
1 616
1 617
1 618
1 619
1 620
1 621
1 622
1 623
1 624
1 625
1 626
1 627
1 628
1 629
1 630
1 631
1 632
1 633
1 634
1 635
1 636
1 637
1 638
1 639
1 640
1 641
1 642
1 643
1 644
1 645
1 646
1 647
1 648
1 649
1 650
1 651
1 652
1 653
1 654
1 655
1 656
1 657
1 658
1 659
1 660
1 661
1 662
1 663
1 664
1 665
1 666
1 667
1 668
1 669
1 670
1 671
1 672
1 673
1 674
1 675
1 676
1 677
1 678
1 679
1 680
1 681
1 682
1 683
1 684
1 685
1 686
1 687
1 688
1 689
1 690
1 691
1 692
1 693
1 694
1 695
1 696
1 697
1 698
1 699
1 700
1 701
1 702
1 703
1 704
1 705
1 706
1 707
1 708
1 709
1 710
1 711
1 712
1 713
1 714
1 715
1 716
1 717
1 718
1 719
1 720
1 721
1 722
1 723
1 724
1 725
1 726
1 727
1 728
1 729
1 730
1 731
1 732
1 733
1 734
1 735
1 736
1 737
1 738
1 739
1 740
1 741
1 742
1 743
1 744
1 745
1 746
1 747
1 748
1 749
1 750
1 751
1 752
1 753
1 754
1 755
1 756
1 757
1 758
1 759
1 760
1 761
1 762
1 763
1 764
1 765
1 766
1 767
1 768
1 769
1 770
1 771
1 772
1 773
1 774
1 775
1 776
1 777
1 778
1 779
1 780
1 781
1 782
1 783
1 784
1 785
1 786
1 787
1 788
1 789
1 790
1 791
1 792
1 793
1 794
1 795
1 796
1 797
1 798
1 799
1 800
1 801
1 802
1 803
1 804
1 805
1 806
1 807
1 808
1 809
1 810
1 811
1 812
1 813
1 814
1 815
1 816
1 817
1 818
1 819
1 820
1 821
1 822
1 823
1 824
1 825
1 826
1 827
1 828
1 829
1 830
1 831
1 832
1 833
1 834
1 835
1 836
1 837
1 838
1 839
1 840
1 841
1 842
1 843
1 844
1 845
1 846
1 847
1 848
1 849
1 850
1 851
1 852
1 853
1 854
1 855
1 856
1 857
1 858
1 859
1 860
1 861
1 862
1 863
1 864
1 865
1 866
1 867
1 868
1 869
1 870
1 871
1 872
1 873
1 874
1 875
1 876
1 877
1 878
1 879
1 880
1 881
1 882
1 883
1 884
1 885
1 886
1 887
1 888
1 889
1 890
1 891
1 892
1 893
1 894
1 895
1 896
1 897
1 898
1 899
1 900
1 901
1 902
1 903
1 904
1 905
1 906
1 907
1 908
1 909
1 910
1 911
1 912
1 913
1 914
1 915
1 916
1 917
1 918
1 919
1 920
1 921
1 922
1 923
1 924
1 925
1 926
1 927
1 928
1 929
1 930
1 931
1 932
1 933
1 934
1 935
1 936
1 937
1 938
1 939
1 940
1 941
1 942
1 943
1 944
1 945
1 946
1 947
1 948
1 949
1 950
1 951
1 952
1 953
1 954
1 955
1 956
1 957
1 958
1 959
1 960
1 961
1 962
1 963
1 964
1 965
1 966
1 967
1 968
1 969
1 970
1 971
1 972
1 973
1 974
1 975
1 976
1 977
1 978
1 979
1 980

CELL_TYPES 981
1
1
1
1
1
1
1
1
1
1
1
1
1
1
1
1
1
1
1
1
1
1
1
1
1
1
1
1
1
1
1
1
1
1
1
1
1
1
1
1
1
1
1
1
1
1
1
1
1
1
1
1
1
1
1
1
1
1
1
1
1
1
1
1
1
1
1
1
1
1
1
1
1
1
1
1
1
1
1
1
1
1
1
1
1
1
1
1
1
1
1
1
1
1
1
1
1
1
1
1
1
1
1
1
1
1
1
1
1
1
1
1
1
1
1
1
1
1
1
1
1
1
1
1
1
1
1
1
1
1
1
1
1
1
1
1
1
1
1
1
1
1
1
1
1
1
1
1
1
1
1
1
1
1
1
1
1
1
1
1
1
1
1
1
1
1
1
1
1
1
1
1
1
1
1
1
1
1
1
1
1
1
1
1
1
1
1
1
1
1
1
1
1
1
1
1
1
1
1
1
1
1
1
1
1
1
1
1
1
1
1
1
1
1
1
1
1
1
1
1
1
1
1
1
1
1
1
1
1
1
1
1
1
1
1
1
1
1
1
1
1
1
1
1
1
1
1
1
1
1
1
1
1
1
1
1
1
1
1
1
1
1
1
1
1
1
1
1
1
1
1
1
1
1
1
1
1
1
1
1
1
1
1
1
1
1
1
1
1
1
1
1
1
1
1
1
1
1
1
1
1
1
1
1
1
1
1
1
1
1
1
1
1
1
1
1
1
1
1
1
1
1
1
1
1
1
1
1
1
1
1
1
1
1
1
1
1
1
1
1
1
1
1
1
1
1
1
1
1
1
1
1
1
1
1
1
1
1
1
1
1
1
1
1
1
1
1
1
1
1
1
1
1
1
1
1
1
1
1
1
1
1
1
1
1
1
1
1
1
1
1
1
1
1
1
1
1
1
1
1
1
1
1
1
1
1
1
1
1
1
1
1
1
1
1
1
1
1
1
1
1
1
1
1
1
1
1
1
1
1
1
1
1
1
1
1
1
1
1
1
1
1
1
1
1
1
1
1
1
1
1
1
1
1
1
1
1
1
1
1
1
1
1
1
1
1
1
1
1
1
1
1
1
1
1
1
1
1
1
1
1
1
1
1
1
1
1
1
1
1
1
1
1
1
1
1
1
1
1
1
1
1
1
1
1
1
1
1
1
1
1
1
1
1
1
1
1
1
1
1
1
1
1
1
1
1
1
1
1
1
1
1
1
1
1
1
1
1
1
1
1
1
1
1
1
1
1
1
1
1
1
1
1
1
1
1
1
1
1
1
1
1
1
1
1
1
1
1
1
1
1
1
1
1
1
1
1
1
1
1
1
1
1
1
1
1
1
1
1
1
1
1
1
1
1
1
1
1
1
1
1
1
1
1
1
1
1
1
1
1
1
1
1
1
1
1
1
1
1
1
1
1
1
1
1
1
1
1
1
1
1
1
1
1
1
1
1
1
1
1
1
1
1
1
1
1
1
1
1
1
1
1
1
1
1
1
1
1
1
1
1
1
1
1
1
1
1
1
1
1
1
1
1
1
1
1
1
1
1
1
1
1
1
1
1
1
1
1
1
1
1
1
1
1
1
1
1
1
1
1
1
1
1
1
1
1
1
1
1
1
1
1
1
1
1
1
1
1
1
1
1
1
1
1
1
1
1
1
1
1
1
1
1
1
1
1
1
1
1
1
1
1
1
1
1
1
1
1
1
1
1
1
1
1
1
1
1
1
1
1
1
1
1
1
1
1
1
1
1
1
1
1
1
1
1
1
1
1
1
1
1
1
1
1
1
1
1
1
1
1
1
1
1
1
1
1
1
1
1
1
1
1
1
1
1
1
1
1
1
1
1
1
1
1
1
1
1
1
1
1
1
1
1
1
1
1
1
1
1
1
1
1
1
1
1
1
1
1
1
1
1
1
1
1
1
1
1
1
1
1
1
1
1
1
1
1
1
1
1
1
1
1
1
1
1
1
1
1
1
1
1
1
1
1
1
1
1
1
1
1
1
1
1
1
1
1
1
1
1
1
1
1
1
1
1
1
1
1
1
1
1
1
1
1
1
1
1
1
1
1
1
1
1
1
1
1
1
1
1
1
1
1
1
1
1
1
1
1
1
1
1
1
1
1
1
1
1
1
1
1
1
1
1
1
1
1
1
1
1
1
1
1
1
1
1
1
1
1
1
1
1
1
1
1
1
1
1
1
1
1
1
1
1
1
1
1
1
1
1
1
1

POINT_DATA 981
SCALARS Vorticity float 1
LOOKUP_TABLE default
4.119120e-08
4.819904e-08
4.428986e-08
-4.354550e-08
-4.826529e-08
-4.222954e-08
4.130273e-08
5.777712e-08
5.682022e-08
4.197834e-08
-4.042048e-08
-5.591659e-08
-5.844866e-08
-4.320423e-08
5.433399e-08
6.885653e-08
5.744968e-08
-5.556291e-08
-6.884481e-08
-5.649979e-08
6.325005e-08
7.615867e-08
5.590190e-08
-5.326959e-08
-7.553098e-08
-6.567041e-08
6.716748e-08
8.246311e-08
5.672371e-08
-5.352504e-08
-8.160158e-08
-7.009066e-08
6.473926e-08
8.868146e-08
6.237783e-08
-5.872001e-08
-8.824080e-08
-6.843252e-08
5.439288e-08
9.232094e-08
7.385842e-08
-7.000899e-08
-9.322783e-08
-5.877066e-08
3.705129e-08
8.729638e-08
8.950302e-08
4.171126e-08
-3.764663e-08
-8.634358e-08
-9.038523e-08
-4.132220e-08
6.811100e-08
1.014339e-07
6.335074e-08
-5.841471e-08
-1.007240e-07
-7.307349e-08
3.885019e-08
9.517543e-08
9.124688e-08
3.527466e-08
-8.703148e-08
-9.839908e-08
-4.364263e-08
6.401511e-08
1.073782e-07
6.801775e-08
-6.245264e-08
-1.072307e-07
-6.966265e-08
8.736578e-08
1.037594e-07
4.493830e-08
-3.984090e-08
-1.003744e-07
-9.236666e-08
4.128341e-08
1.037038e-07
9.082498e-08
-8.542892e-08
-1.068895e-07
-4.667413e-08
5.618854e-08
1.119215e-07
7.581547e-08
-6.963754e-08
-1.129173e-07
-6.230658e-08
6.868963e-08
1.140951e-07
6.310961e-08
-5.688816e-08
-1.131871e-07
-7.503438e-08
7.626432e-08
1.130067e-07
5.427038e-08
-4.827726e-08
-1.108190e-07
-8.266689e-08
3.794769e-08
3.813622e-08
-3.665683e-08
-3.880128e-08
7.081602e-08
1.079629e-07
4.863971e-08
-4.296720e-08
-1.054608e-07
-7.778533e-08
3.864913e-08
3.708395e-08
-3.783282e-08
-3.825777e-08
4.936763e-08
5.156904e-08
4.228720e-08
-3.761379e-08
-4.768443e-08
4.238106e-08
8.884682e-08
4.022314e-08
-3.533218e-08
-8.732792e-08
-4.991067e-08
4.788967e-08
3.876803e-08
-4.116870e-08
-5.112794e-08
-5.011401e-08
-3.644087e-08
5.051916e-08
6.287347e-08
5.462556e-08
3.548402e-08
5.576619e-08
-5.463412e-08
-5.316406e-08
-6.293868e-08
-5.232365e-08
6.272825e-08
7.065529e-08
5.183659e-08
4.814219e-08
-4.543043e-08
-4.955111e-08
-6.988286e-08
-6.458665e-08
-3.657827e-08
3.704348e-08
7.072058e-08
7.608077e-08
4.920418e-08
4.561135e-08
7.074070e-08
-6.849584e-08
-5.004736e-08
-4.634047e-08
-7.466606e-08
-7.275458e-08
-4.016347e-08
7.407571e-08
8.217390e-08
5.024171e-08
6.210788e-08
-6.185562e-08
-3.696278e-08
-4.688675e-08
-8.053054e-08
-7.666750e-08
-3.808080e-08
7.109831e-08
8.947910e-08
5.679994e-08
-5.294611e-08
-8.830282e-08
-7.465089e-08
5.951803e-08
9.478630e-08
6.986918e-08
-6.569704e-08
-9.510628e-08
-6.399346e-08
4.008818e-08
9.076330e-08
8.790488e-08
3.796537e-08
-8.430516e-08
-9.357474e-08
-4.457819e-08
7.075207e-08
1.022796e-07
6.091962e-08
-5.589113e-08
-1.012194e-07
-7.575944e-08
3.949100e-08
9.658164e-08
9.102656e-08
-8.662210e-08
-9.976791e-08
-4.437989e-08
6.365566e-08
1.081713e-07
6.840214e-08
-6.274669e-08
-1.080680e-07
-6.938659e-08
8.600988e-08
1.052501e-07
4.634120e-08
-4.111503e-08
-1.020198e-07
-9.121515e-08
3.831187e-08
1.020746e-07
9.387924e-08
-5.754381e-08
-3.987363e-08
3.648405e-08
5.855676e-08
-8.863283e-08
-1.057048e-07
-4.355388e-08
5.152375e-08
1.109296e-07
8.055917e-08
-6.531341e-08
-5.667691e-08
5.241479e-08
6.859987e-08
-7.441481e-08
-1.126387e-07
-5.754112e-08
6.250245e-08
1.143556e-07
6.931241e-08
-4.120760e-08
-4.191543e-08
3.825887e-08
4.504005e-08
-6.296182e-08
-1.143850e-07
-6.886121e-08
7.000569e-08
1.149420e-07
6.175046e-08
-4.902088e-08
5.128421e-08
-5.546766e-08
-1.138241e-07
-7.644037e-08
7.356655e-08
1.147511e-07
5.822590e-08
-8.103588e-08
-5.753084e-08
4.768924e-08
3.888417e-08
-3.768325e-08
-4.763090e-08
5.056808e-08
8.370996e-08
-5.202478e-08
-1.130972e-07
-7.998081e-08
7.306926e-08
1.147992e-07
5.872027e-08
-9.923606e-08
-8.618284e-08
3.998911e-08
3.808388e-08
-3.761188e-08
-4.013034e-08
7.978404e-08
1.029764e-07
3.975926e-08
-5.250561e-08
-1.132199e-07
-7.948773e-08
6.852606e-08
1.149402e-07
6.324163e-08
-3.925922e-08
-1.054522e-07
-9.206555e-08
8.613296e-08
1.090139e-07
4.474389e-08
-5.693283e-08
-1.140474e-07
-7.495229e-08
6.009252e-08
1.138800e-07
7.177261e-08
-4.696201e-08
-1.097080e-07
-8.530696e-08
7.918675e-08
1.121402e-07
5.283532e-08
-6.543299e-08
-1.142791e-07
-6.639948e-08
4.841583e-08
1.093515e-07
8.375219e-08
-5.900550e-08
-1.125754e-07
-7.301403e-08
6.677700e-08
1.131724e-07
6.516150e-08
-7.774611e-08
-1.115294e-07
-5.428674e-08
3.493690e-08
9.880523e-08
9.706920e-08
-7.514021e-08
-1.107248e-07
-5.689021e-08
5.103673e-08
1.089638e-07
8.103702e-08
-9.220564e-08
-1.028839e-07
-3.991587e-08
8.097485e-08
1.070247e-07
5.131493e-08
-9.265465e-08
-1.004025e-07
-3.905122e-08
9.632608e-08
9.715556e-08
3.571566e-08
-4.588920e-08
-1.044843e-07
-8.643261e-08
5.764349e-08
1.068029e-07
7.427483e-08
-5.197413e-08
-1.049686e-07
-8.021498e-08
7.476178e-08
1.066174e-07
5.741285e-08
-6.873770e-08
-1.075577e-07
-6.329312e-08
9.132358e-08
9.539829e-08
3.987151e-08
-7.775221e-08
-1.031534e-07
-5.371191e-08
4.848832e-08
1.011790e-07
8.266146e-08
-3.541216e-08
-9.163987e-08
-9.515698e-08
-3.849999e-08
6.315253e-08
1.017735e-07
6.822245e-08
-4.842259e-08
-9.751769e-08
-8.275971e-08
7.820714e-08
9.955348e-08
5.322683e-08
-6.327094e-08
-1.017245e-07
-6.824401e-08
8.435454e-08
9.225877e-08
4.542784e-08
-7.854102e-08
-9.562528e-08
-5.096074e-08
4.631332e-08
9.359438e-08
8.248651e-08
-4.117854e-08
-8.946121e-08
-8.786504e-08
-3.736847e-08
5.084079e-08
9.157706e-08
7.701751e-08
-6.100965e-08
-9.374325e-08
-6.843461e-08
6.416209e-08
9.401487e-08
6.516248e-08
-7.328678e-08
-9.291778e-08
-5.523815e-08
6.216851e-08
8.917965e-08
6.502252e-08
-5.005954e-08
-8.593789e-08
-7.652746e-08
7.329202e-08
8.740103e-08
5.378866e-08
-6.136999e-08
-8.904987e-08
-6.600462e-08
6.561713e-08
8.331631e-08
5.866104e-08
-4.559536e-08
-7.849708e-08
-7.664224e-08
-3.989187e-08
3.650427e-08
7.429509e-08
8.020087e-08
4.882295e-08
-5.543721e-08
-8.264878e-08
-6.870121e-08
6.246590e-08
7.694840e-08
5.719820e-08
-4.627758e-08
-7.316854e-08
-7.150330e-08
-4.043882e-08
3.741219e-08
6.959827e-08
7.451059e-08
4.901089e-08
-5.453819e-08
-7.643019e-08
-6.501561e-08
5.411786e-08
6.960892e-08
5.863103e-08
3.548832e-08
-5.068875e-08
-6.848911e-08
-6.234843e-08
-3.550549e-08
6.053425e-08
6.909102e-08
5.274184e-08
-5.676244e-08
-6.966255e-08
-5.636612e-08
4.271453e-08
6.295669e-08
6.883796e-08
6.301843e-08
5.265102e-08
3.582017e-08
-4.778211e-08
-5.974692e-08
-6.765895e-08
-6.681881e-08
-5.101160e-08
4.903135e-08
6.604734e-08
6.807030e-08
6.059149e-08
4.908412e-08
-5.153246e-08
-6.224134e-08
-6.866949e-08
-6.410398e-08
-4.483875e-08
5.051863e-08
8.175725e-08
9.716497e-08
8.847628e-08
5.821793e-08
-4.456147e-08
-7.994141e-08
-9.684868e-08
-8.973795e-08
-6.223084e-08
5.933876e-08
8.799044e-08
9.721574e-08
8.230247e-08
4.796902e-08
-5.487582e-08
-8.660795e-08
-9.737394e-08
-8.395746e-08
-5.342044e-08
3.979468e-08
6.172710e-08
7.098504e-08
6.754859e-08
5.723572e-08
3.874595e-08
-5.190945e-08
-6.455793e-08
-7.088213e-08
-6.671895e-08
-4.837215e-08
4.628791e-08
6.565394e-08
7.104223e-08
6.536127e-08
5.334133e-08
-3.666424e-08
-5.601893e-08
-6.686991e-08
-7.109952e-08
-6.313604e-08
-4.195581e-08
5.085472e-08
6.853109e-08
6.056021e-08
3.857470e-08
-5.327885e-08
-6.856653e-08
-5.955083e-08
5.758333e-08
6.887879e-08
5.519441e-08
-3.669207e-08
-5.888084e-08
-6.886633e-08
-5.318157e-08
5.925550e-08
7.656332e-08
5.977199e-08
-4.921411e-08
-7.406267e-08
-6.896964e-08
-3.722386e-08
6.684946e-08
7.509948e-08
5.189410e-08
-5.723930e-08
-7.637092e-08
-6.192858e-08
6.238053e-08
8.308088e-08
6.148037e-08
-4.865661e-08
-7.964320e-08
-7.408030e-08
-3.681584e-08
7.151558e-08
8.102194e-08
5.186455e-08
-5.836033e-08
-8.276817e-08
-6.558014e-08
5.889283e-08
8.849116e-08
6.776326e-08
-5.311170e-08
-8.673713e-08
-7.366796e-08
7.027208e-08
8.784121e-08
5.681418e-08
-6.423953e-08
-8.873291e-08
-6.277464e-08
4.780785e-08
8.996871e-08
7.929049e-08
-6.390110e-08
-9.359402e-08
-6.533006e-08
6.102279e-08
9.349013e-08
6.795871e-08
-7.577020e-08
-9.164864e-08
-5.213551e-08
8.181266e-08
9.343436e-08
4.820633e-08
-8.083230e-08
-9.413378e-08
-4.813825e-08
4.360213e-08
9.179432e-08
8.455572e-08
3.562622e-08
-4.388263e-08
-9.096409e-08
-8.552793e-08
-3.493151e-08
6.041863e-08
1.012271e-07
7.078224e-08
-5.103449e-08
-9.841190e-08
-8.023923e-08
7.557311e-08
1.000987e-07
5.587859e-08
-6.589716e-08
-1.015363e-07
-6.550241e-08
8.925458e-08
9.674000e-08
4.210011e-08
-7.994627e-08
-1.020975e-07
-5.133964e-08
4.621280e-08
9.982756e-08
8.470114e-08
-3.752947e-08
-9.324786e-08
-9.328707e-08
-3.647814e-08
5.549829e-08
1.060883e-07
7.635177e-08
-5.411915e-08
-1.054937e-07
-7.805778e-08
7.255744e-08
1.068422e-07
5.959011e-08
-7.088055e-08
-1.071411e-07
-6.109534e-08
7.910012e-08
1.075155e-07
5.316644e-08
-9.406324e-08
-9.901774e-08
-3.750751e-08
9.477117e-08
9.837326e-08
3.732851e-08
-4.767931e-08
-1.052317e-07
-8.462757e-08
9.753760e-08
9.816339e-08
-7.668193e-08
-1.102079e-07
-5.535982e-08
4.957129e-08
1.082323e-07
8.251143e-08
-9.345174e-08
-1.017729e-07
-3.862371e-08
4.728243e-08
1.087045e-07
8.491059e-08
-6.026962e-08
-1.126627e-07
-7.173799e-08
6.551010e-08
1.130693e-07
6.643282e-08
-7.896412e-08
-1.110498e-07
-5.309368e-08
5.919271e-08
1.136621e-07
7.269851e-08
-4.783510e-08
-1.100506e-07
-8.441936e-08
7.827693e-08
1.123517e-07
5.374155e-08
-6.636689e-08
-1.141989e-07
-6.547721e-08
6.794010e-08
1.149226e-07
6.382906e-08
-3.977694e-08
-1.058417e-07
-9.180597e-08
8.587218e-08
1.093369e-07
4.529380e-08
-5.751128e-08
-1.141179e-07
-7.436290e-08
7.283216e-08
1.148172e-07
5.895317e-08
-3.501637e-08
-1.000449e-07
-8.756044e-08
3.830111e-08
3.765839e-08
-3.729003e-08
-3.854968e-08
8.123847e-08
1.038231e-07
4.016401e-08
-5.273192e-08
-1.132723e-07
-7.925139e-08
7.368376e-08
1.147379e-07
5.810836e-08
-8.340690e-08
-6.066108e-08
4.780527e-08
4.048502e-08
-3.935939e-08
-4.791855e-08
5.367940e-08
8.619888e-08
-5.191041e-08
-1.130660e-07
-8.009658e-08
7.047697e-08
1.149314e-07
6.127988e-08
-5.156644e-08
5.376042e-08
-5.500668e-08
-1.137429e-07
-7.690614e-08
6.330652e-08
1.144876e-07
6.849258e-08
-4.003370e-08
-3.999585e-08
3.631296e-08
4.375550e-08
-6.214233e-08
-1.143937e-07
-6.967967e-08
5.260170e-08
1.114091e-07
7.946086e-08
-6.354304e-08
-5.651098e-08
5.229708e-08
6.701053e-08
-7.327177e-08
-1.129554e-07
-5.866496e-08
3.950766e-08
1.031234e-07
9.271166e-08
-6.031517e-08
-4.238861e-08
3.881729e-08
6.148623e-08
-8.734759e-08
-1.065900e-07
-4.483659e-08
8.770325e-08
1.044902e-07
4.465901e-08
-3.951441e-08
-1.010358e-07
-9.280525e-08
6.576701e-08
1.084346e-07
6.632913e-08
-6.066070e-08
-1.080320e-07
-7.150805e-08
4.151602e-08
9.823302e-08
8.929913e-08
-8.469795e-08
-1.011680e-07
-4.652703e-08
7.338688e-08
1.021021e-07
5.833259e-08
-5.330725e-08
-1.006913e-07
-7.832866e-08
4.262519e-08
9.273900e-08
8.603726e-08
3.547099e-08
-8.219215e-08
-9.526606e-08
-4.724073e-08
6.260523e-08
9.543931e-08
6.713799e-08
-6.285641e-08
-9.538377e-08
-6.706525e-08
7.409803e-08
8.901192e-08
5.378122e-08
-4.990968e-08
-8.747336e-08
-7.749350e-08
3.761457e-08
7.676437e-08
8.114547e-08
4.717470e-08
5.900700e-08
-5.885805e-08
-4.382719e-08
-7.918748e-08
-7.912321e-08
-4.115376e-08
4.021787e-08
7.327579e-08
7.510132e-08
4.620804e-08
4.568264e-08
7.205424e-08
-6.998876e-08
-5.014399e-08
-4.332736e-08
-7.338899e-08
-7.507069e-08
-4.343105e-08
3.708857e-08
6.546060e-08
7.032904e-08
4.918833e-08
4.957769e-08
-4.676573e-08
-3.626826e-08
-4.682358e-08
-6.927156e-08
-6.712487e-08
-3.981785e-08
5.355933e-08
6.373891e-08
5.297192e-08
5.341993e-08
-5.219531e-08
-5.135824e-08
-6.355723e-08
-5.525625e-08
3.791771e-08
5.151606e-08
5.170478e-08
4.081619e-08
-3.584264e-08
-4.715153e-08
3.933192e-08
8.619116e-08
3.892196e-08
-8.477851e-08
-4.681446e-08
4.751687e-08
3.705707e-08
-3.961027e-08
-5.108962e-08
-5.211110e-08
-3.948384e-08
3.979260e-08
3.872297e-08
-3.682807e-08
-4.021458e-08
6.924060e-08
1.070609e-07
4.817496e-08
-4.254171e-08
-1.045945e-07
-7.628981e-08
4.017694e-08
3.735371e-08
-3.831306e-08
-4.000121e-08
7.650614e-08
1.127955e-07
5.368320e-08
-4.771232e-08
-1.105316e-07
-8.292606e-08
6.960067e-08
1.140985e-07
6.217696e-08
-5.596877e-08
-1.130483e-07
-7.594777e-08
5.740646e-08
1.123080e-07
7.457456e-08
-6.837084e-08
-1.131182e-07
-6.356101e-08
4.262362e-08
1.047247e-07
8.950881e-08
-8.400160e-08
-1.077216e-07
-4.810043e-08
8.911867e-08
1.028815e-07
4.318550e-08
-3.817719e-08
-9.926741e-08
-9.399850e-08
6.622520e-08
1.076309e-07
6.585083e-08
-6.027131e-08
-1.071682e-07
-7.187861e-08
4.094138e-08
9.692356e-08
8.951297e-08
-8.508741e-08
-9.989450e-08
-4.586047e-08
7.083903e-08
1.014312e-07
6.070203e-08
-5.575483e-08
-1.003617e-07
-7.575056e-08
3.956492e-08
8.950820e-08
8.784154e-08
3.905396e-08
-3.509769e-08
-8.440424e-08
-9.233354e-08
-4.396983e-08
5.751727e-08
9.340521e-08
7.128029e-08
-6.727790e-08
-9.394636e-08
-6.191417e-08
6.793068e-08
8.880850e-08
5.945554e-08
-5.572197e-08
-8.799177e-08
-7.152161e-08
7.021535e-08
8.216246e-08
5.375920e-08
-5.050175e-08
-8.095568e-08
-7.297140e-08
6.626215e-08
7.605135e-08
5.314482e-08
-5.042330e-08
-7.510448e-08
-6.851839e-08
-3.587239e-08
5.747413e-08
6.952932e-08
5.535795e-08
-5.332129e-08
-6.923445e-08
-5.952425e-08
4.450281e-08
5.958775e-08
5.612204e-08
3.975639e-08
-3.814482e-08
-5.502458e-08
-6.005480e-08
-4.637346e-08
4.384921e-08
4.936291e-08
4.372809e-08
-4.286165e-08
-4.926970e-08
-4.480072e-08
3.501992e-08
-3.493079e-08
