# vtk DataFile Version 3.0
PyVPM Particles
ASCII
DATASET UNSTRUCTURED_GRID
POINTS 1346 float
-3.001310e+00 -2.713104e-01 0.0
-3.001310e+00 -2.413104e-01 0.0
-3.001310e+00 -2.113104e-01 0.0
-3.001310e+00 2.086896e-01 0.0
-3.001310e+00 2.386896e-01 0.0
-3.001310e+00 2.686896e-01 0.0
-2.971310e+00 -3.313104e-01 0.0
-2.971310e+00 -3.013104e-01 0.0
-2.971310e+00 -2.713104e-01 0.0
-2.971310e+00 -2.413104e-01 0.0
-2.971310e+00 2.386896e-01 0.0
-2.971310e+00 2.686896e-01 0.0
-2.971310e+00 2.986896e-01 0.0
-2.971310e+00 3.286896e-01 0.0
-2.941310e+00 -3.613104e-01 0.0
-2.941310e+00 -3.313104e-01 0.0
-2.941310e+00 -3.013104e-01 0.0
-2.941310e+00 2.986896e-01 0.0
-2.941310e+00 3.286896e-01 0.0
-2.941310e+00 3.586896e-01 0.0
-2.911310e+00 -3.913104e-01 0.0
-2.911310e+00 -3.613104e-01 0.0
-2.911310e+00 -3.313104e-01 0.0
-2.911310e+00 3.286896e-01 0.0
-2.911310e+00 3.586896e-01 0.0
-2.911310e+00 3.886896e-01 0.0
-2.881310e+00 -4.213104e-01 0.0
-2.881310e+00 -3.913104e-01 0.0
-2.881310e+00 -3.613104e-01 0.0
-2.881310e+00 3.586896e-01 0.0
-2.881310e+00 3.886896e-01 0.0
-2.881310e+00 4.186896e-01 0.0
-2.851310e+00 -4.513104e-01 0.0
-2.851310e+00 -4.213104e-01 0.0
-2.851310e+00 -3.913104e-01 0.0
-2.851310e+00 3.886896e-01 0.0
-2.851310e+00 4.186896e-01 0.0
-2.851310e+00 4.486896e-01 0.0
-2.821310e+00 -4.813104e-01 0.0
-2.821310e+00 -4.513104e-01 0.0
-2.821310e+00 -4.213104e-01 0.0
-2.821310e+00 4.186896e-01 0.0
-2.821310e+00 4.486896e-01 0.0
-2.821310e+00 4.786896e-01 0.0
-2.791310e+00 -5.113104e-01 0.0
-2.791310e+00 -4.813104e-01 0.0
-2.791310e+00 -4.513104e-01 0.0
-2.791310e+00 -4.213104e-01 0.0
-2.791310e+00 4.186896e-01 0.0
-2.791310e+00 4.486896e-01 0.0
-2.791310e+00 4.786896e-01 0.0
-2.791310e+00 5.086896e-01 0.0
-2.761310e+00 -5.113104e-01 0.0
-2.761310e+00 -4.813104e-01 0.0
-2.761310e+00 -4.513104e-01 0.0
-2.761310e+00 4.486896e-01 0.0
-2.761310e+00 4.786896e-01 0.0
-2.761310e+00 5.086896e-01 0.0
-2.731310e+00 -5.413104e-01 0.0
-2.731310e+00 -5.113104e-01 0.0
-2.731310e+00 -4.813104e-01 0.0
-2.731310e+00 -4.513104e-01 0.0
-2.731310e+00 4.786896e-01 0.0
-2.731310e+00 5.086896e-01 0.0
-2.731310e+00 5.386896e-01 0.0
-2.701310e+00 -5.413104e-01 0.0
-2.701310e+00 -5.113104e-01 0.0
-2.701310e+00 -4.813104e-01 0.0
-2.701310e+00 4.786896e-01 0.0
-2.701310e+00 5.086896e-01 0.0
-2.701310e+00 5.386896e-01 0.0
-2.671310e+00 -5.413104e-01 0.0
-2.671310e+00 -5.113104e-01 0.0
-2.671310e+00 -4.813104e-01 0.0
-2.671310e+00 4.786896e-01 0.0
-2.671310e+00 5.086896e-01 0.0
-2.671310e+00 5.386896e-01 0.0
-2.641310e+00 -5.713104e-01 0.0
-2.641310e+00 -5.413104e-01 0.0
-2.641310e+00 -5.113104e-01 0.0
-2.641310e+00 5.086896e-01 0.0
-2.641310e+00 5.386896e-01 0.0
-2.641310e+00 5.686896e-01 0.0
-2.611310e+00 -5.713104e-01 0.0
-2.611310e+00 -5.413104e-01 0.0
-2.611310e+00 -5.113104e-01 0.0
-2.611310e+00 5.086896e-01 0.0
-2.611310e+00 5.386896e-01 0.0
-2.611310e+00 5.686896e-01 0.0
-2.581310e+00 -5.713104e-01 0.0
-2.581310e+00 -5.413104e-01 0.0
-2.581310e+00 -5.113104e-01 0.0
-2.581310e+00 5.086896e-01 0.0
-2.581310e+00 5.386896e-01 0.0
-2.581310e+00 5.686896e-01 0.0
-2.551310e+00 -5.713104e-01 0.0
-2.551310e+00 -5.413104e-01 0.0
-2.551310e+00 -5.113104e-01 0.0
-2.551310e+00 5.086896e-01 0.0
-2.551310e+00 5.386896e-01 0.0
-2.551310e+00 5.686896e-01 0.0
-2.521310e+00 -5.713104e-01 0.0
-2.521310e+00 -5.413104e-01 0.0
-2.521310e+00 -5.113104e-01 0.0
-2.521310e+00 5.086896e-01 0.0
-2.521310e+00 5.386896e-01 0.0
-2.521310e+00 5.686896e-01 0.0
-2.491310e+00 -5.713104e-01 0.0
-2.491310e+00 -5.413104e-01 0.0
-2.491310e+00 -5.113104e-01 0.0
-2.491310e+00 5.086896e-01 0.0
-2.491310e+00 5.386896e-01 0.0
-2.491310e+00 5.686896e-01 0.0
-2.461310e+00 -5.713104e-01 0.0
-2.461310e+00 -5.413104e-01 0.0
-2.461310e+00 -5.113104e-01 0.0
-2.461310e+00 5.086896e-01 0.0
-2.461310e+00 5.386896e-01 0.0
-2.461310e+00 5.686896e-01 0.0
-2.431310e+00 -5.713104e-01 0.0
-2.431310e+00 -5.413104e-01 0.0
-2.431310e+00 -5.113104e-01 0.0
-2.431310e+00 5.086896e-01 0.0
-2.431310e+00 5.386896e-01 0.0
-2.431310e+00 5.686896e-01 0.0
-2.401310e+00 -5.713104e-01 0.0
-2.401310e+00 -5.413104e-01 0.0
-2.401310e+00 -5.113104e-01 0.0
-2.401310e+00 5.086896e-01 0.0
-2.401310e+00 5.386896e-01 0.0
-2.401310e+00 5.686896e-01 0.0
-2.371310e+00 -5.713104e-01 0.0
-2.371310e+00 -5.413104e-01 0.0
-2.371310e+00 -5.113104e-01 0.0
-2.371310e+00 5.086896e-01 0.0
-2.371310e+00 5.386896e-01 0.0
-2.371310e+00 5.686896e-01 0.0
-2.341310e+00 -5.413104e-01 0.0
-2.341310e+00 -5.113104e-01 0.0
-2.341310e+00 -4.813104e-01 0.0
-2.341310e+00 5.086896e-01 0.0
-2.341310e+00 5.386896e-01 0.0
-2.341310e+00 5.686896e-01 0.0
-2.311310e+00 -5.413104e-01 0.0
-2.311310e+00 -5.113104e-01 0.0
-2.311310e+00 -4.813104e-01 0.0
-2.311310e+00 4.786896e-01 0.0
-2.311310e+00 5.086896e-01 0.0
-2.311310e+00 5.386896e-01 0.0
-2.281310e+00 -5.413104e-01 0.0
-2.281310e+00 -5.113104e-01 0.0
-2.281310e+00 -4.813104e-01 0.0
-2.281310e+00 4.786896e-01 0.0
-2.281310e+00 5.086896e-01 0.0
-2.281310e+00 5.386896e-01 0.0
-2.251310e+00 -5.113104e-01 0.0
-2.251310e+00 -4.813104e-01 0.0
-2.251310e+00 -4.513104e-01 0.0
-2.251310e+00 4.486896e-01 0.0
-2.251310e+00 4.786896e-01 0.0
-2.251310e+00 5.086896e-01 0.0
-2.221310e+00 -5.113104e-01 0.0
-2.221310e+00 -4.813104e-01 0.0
-2.221310e+00 -4.513104e-01 0.0
-2.221310e+00 4.486896e-01 0.0
-2.221310e+00 4.786896e-01 0.0
-2.221310e+00 5.086896e-01 0.0
-2.191310e+00 -4.813104e-01 0.0
-2.191310e+00 -4.513104e-01 0.0
-2.191310e+00 -4.213104e-01 0.0
-2.191310e+00 4.186896e-01 0.0
-2.191310e+00 4.486896e-01 0.0
-2.191310e+00 4.786896e-01 0.0
-2.161310e+00 -4.513104e-01 0.0
-2.161310e+00 -4.213104e-01 0.0
-2.161310e+00 -3.913104e-01 0.0
-2.161310e+00 3.886896e-01 0.0
-2.161310e+00 4.186896e-01 0.0
-2.161310e+00 4.486896e-01 0.0
-2.161310e+00 4.786896e-01 0.0
-2.131310e+00 -4.513104e-01 0.0
-2.131310e+00 -4.213104e-01 0.0
-2.131310e+00 -3.913104e-01 0.0
-2.131310e+00 -3.613104e-01 0.0
-2.131310e+00 3.586896e-01 0.0
-2.131310e+00 3.886896e-01 0.0
-2.131310e+00 4.186896e-01 0.0
-2.131310e+00 4.486896e-01 0.0
-2.101310e+00 -4.213104e-01 0.0
-2.101310e+00 -3.913104e-01 0.0
-2.101310e+00 -3.613104e-01 0.0
-2.101310e+00 -3.313104e-01 0.0
-2.101310e+00 3.286896e-01 0.0
-2.101310e+00 3.586896e-01 0.0
-2.101310e+00 3.886896e-01 0.0
-2.101310e+00 4.186896e-01 0.0
-2.071310e+00 -3.913104e-01 0.0
-2.071310e+00 -3.613104e-01 0.0
-2.071310e+00 -3.313104e-01 0.0
-2.071310e+00 -3.013104e-01 0.0
-2.071310e+00 2.986896e-01 0.0
-2.071310e+00 3.286896e-01 0.0
-2.071310e+00 3.586896e-01 0.0
-2.071310e+00 3.886896e-01 0.0
-2.041310e+00 -3.313104e-01 0.0
-2.041310e+00 -3.013104e-01 0.0
-2.041310e+00 -2.713104e-01 0.0
-2.041310e+00 2.686896e-01 0.0
-2.041310e+00 2.986896e-01 0.0
-2.041310e+00 3.286896e-01 0.0
-2.041310e+00 3.586896e-01 0.0
-2.011310e+00 -3.013104e-01 0.0
-2.011310e+00 -2.713104e-01 0.0
-2.011310e+00 -2.413104e-01 0.0
-2.011310e+00 -2.113104e-01 0.0
-2.011310e+00 2.086896e-01 0.0
-2.011310e+00 2.386896e-01 0.0
-2.011310e+00 2.686896e-01 0.0
-2.011310e+00 2.986896e-01 0.0
-1.981310e+00 -2.113104e-01 0.0
-1.981310e+00 -1.813104e-01 0.0
-1.981310e+00 1.786896e-01 0.0
-1.981310e+00 2.086896e-01 0.0
-1.981310e+00 2.386896e-01 0.0
-1.771310e+00 -2.371310e+00 0.0
-1.771310e+00 -2.341310e+00 0.0
-1.771310e+00 -1.981310e+00 0.0
-1.771310e+00 -1.951310e+00 0.0
-1.771310e+00 1.948690e+00 0.0
-1.771310e+00 1.978690e+00 0.0
-1.771310e+00 2.338690e+00 0.0
-1.771310e+00 2.368690e+00 0.0
-1.741310e+00 -2.461310e+00 0.0
-1.741310e+00 -2.431310e+00 0.0
-1.741310e+00 -2.401310e+00 0.0
-1.741310e+00 -2.371310e+00 0.0
-1.741310e+00 -1.951310e+00 0.0
-1.741310e+00 -1.921310e+00 0.0
-1.741310e+00 -1.891310e+00 0.0
-1.741310e+00 -1.861310e+00 0.0
-1.741310e+00 1.888690e+00 0.0
-1.741310e+00 1.918690e+00 0.0
-1.741310e+00 1.948690e+00 0.0
-1.741310e+00 2.368690e+00 0.0
-1.741310e+00 2.398690e+00 0.0
-1.741310e+00 2.428690e+00 0.0
-1.741310e+00 2.458690e+00 0.0
-1.711310e+00 -2.491310e+00 0.0
-1.711310e+00 -2.461310e+00 0.0
-1.711310e+00 -2.431310e+00 0.0
-1.711310e+00 -1.891310e+00 0.0
-1.711310e+00 -1.861310e+00 0.0
-1.711310e+00 -1.831310e+00 0.0
-1.711310e+00 1.828690e+00 0.0
-1.711310e+00 1.858690e+00 0.0
-1.711310e+00 1.888690e+00 0.0
-1.711310e+00 1.918690e+00 0.0
-1.711310e+00 2.428690e+00 0.0
-1.711310e+00 2.458690e+00 0.0
-1.711310e+00 2.488690e+00 0.0
-1.711310e+00 2.518690e+00 0.0
-1.681310e+00 -2.551310e+00 0.0
-1.681310e+00 -2.521310e+00 0.0
-1.681310e+00 -2.491310e+00 0.0
-1.681310e+00 -2.461310e+00 0.0
-1.681310e+00 -1.861310e+00 0.0
-1.681310e+00 -1.831310e+00 0.0
-1.681310e+00 -1.801310e+00 0.0
-1.681310e+00 -1.771310e+00 0.0
-1.681310e+00 1.798690e+00 0.0
-1.681310e+00 1.828690e+00 0.0
-1.681310e+00 1.858690e+00 0.0
-1.681310e+00 2.458690e+00 0.0
-1.681310e+00 2.488690e+00 0.0
-1.681310e+00 2.518690e+00 0.0
-1.681310e+00 2.548690e+00 0.0
-1.651310e+00 -2.581310e+00 0.0
-1.651310e+00 -2.551310e+00 0.0
-1.651310e+00 -2.521310e+00 0.0
-1.651310e+00 -2.491310e+00 0.0
-1.651310e+00 -1.831310e+00 0.0
-1.651310e+00 -1.801310e+00 0.0
-1.651310e+00 -1.771310e+00 0.0
-1.651310e+00 -1.741310e+00 0.0
-1.651310e+00 1.738690e+00 0.0
-1.651310e+00 1.768690e+00 0.0
-1.651310e+00 1.798690e+00 0.0
-1.651310e+00 1.828690e+00 0.0
-1.651310e+00 2.488690e+00 0.0
-1.651310e+00 2.518690e+00 0.0
-1.651310e+00 2.548690e+00 0.0
-1.651310e+00 2.578690e+00 0.0
-1.621310e+00 -2.611310e+00 0.0
-1.621310e+00 -2.581310e+00 0.0
-1.621310e+00 -2.551310e+00 0.0
-1.621310e+00 -2.521310e+00 0.0
-1.621310e+00 -1.801310e+00 0.0
-1.621310e+00 -1.771310e+00 0.0
-1.621310e+00 -1.741310e+00 0.0
-1.621310e+00 -1.711310e+00 0.0
-1.621310e+00 1.738690e+00 0.0
-1.621310e+00 1.768690e+00 0.0
-1.621310e+00 1.798690e+00 0.0
-1.621310e+00 2.518690e+00 0.0
-1.621310e+00 2.548690e+00 0.0
-1.621310e+00 2.578690e+00 0.0
-1.621310e+00 2.608690e+00 0.0
-1.591310e+00 -2.641310e+00 0.0
-1.591310e+00 -2.611310e+00 0.0
-1.591310e+00 -2.581310e+00 0.0
-1.591310e+00 -2.551310e+00 0.0
-1.591310e+00 -1.771310e+00 0.0
-1.591310e+00 -1.741310e+00 0.0
-1.591310e+00 -1.711310e+00 0.0
-1.591310e+00 1.708690e+00 0.0
-1.591310e+00 1.738690e+00 0.0
-1.591310e+00 1.768690e+00 0.0
-1.591310e+00 2.548690e+00 0.0
-1.591310e+00 2.578690e+00 0.0
-1.591310e+00 2.608690e+00 0.0
-1.591310e+00 2.638690e+00 0.0
-1.561310e+00 -2.641310e+00 0.0
-1.561310e+00 -2.611310e+00 0.0
-1.561310e+00 -2.581310e+00 0.0
-1.561310e+00 -1.741310e+00 0.0
-1.561310e+00 -1.711310e+00 0.0
-1.561310e+00 -1.681310e+00 0.0
-1.561310e+00 1.678690e+00 0.0
-1.561310e+00 1.708690e+00 0.0
-1.561310e+00 1.738690e+00 0.0
-1.561310e+00 2.578690e+00 0.0
-1.561310e+00 2.608690e+00 0.0
-1.561310e+00 2.638690e+00 0.0
-1.531310e+00 -2.671310e+00 0.0
-1.531310e+00 -2.641310e+00 0.0
-1.531310e+00 -2.611310e+00 0.0
-1.531310e+00 -1.741310e+00 0.0
-1.531310e+00 -1.711310e+00 0.0
-1.531310e+00 -1.681310e+00 0.0
-1.531310e+00 -1.651310e+00 0.0
-1.531310e+00 1.648690e+00 0.0
-1.531310e+00 1.678690e+00 0.0
-1.531310e+00 1.708690e+00 0.0
-1.531310e+00 1.738690e+00 0.0
-1.531310e+00 2.608690e+00 0.0
-1.531310e+00 2.638690e+00 0.0
-1.531310e+00 2.668690e+00 0.0
-1.501310e+00 -2.671310e+00 0.0
-1.501310e+00 -2.641310e+00 0.0
-1.501310e+00 -2.611310e+00 0.0
-1.501310e+00 -1.711310e+00 0.0
-1.501310e+00 -1.681310e+00 0.0
-1.501310e+00 -1.651310e+00 0.0
-1.501310e+00 1.648690e+00 0.0
-1.501310e+00 1.678690e+00 0.0
-1.501310e+00 1.708690e+00 0.0
-1.501310e+00 2.608690e+00 0.0
-1.501310e+00 2.638690e+00 0.0
-1.501310e+00 2.668690e+00 0.0
-1.501310e+00 2.698690e+00 0.0
-1.471310e+00 -2.701310e+00 0.0
-1.471310e+00 -2.671310e+00 0.0
-1.471310e+00 -2.641310e+00 0.0
-1.471310e+00 -1.681310e+00 0.0
-1.471310e+00 -1.651310e+00 0.0
-1.471310e+00 -1.621310e+00 0.0
-1.471310e+00 1.618690e+00 0.0
-1.471310e+00 1.648690e+00 0.0
-1.471310e+00 1.678690e+00 0.0
-1.471310e+00 1.708690e+00 0.0
-1.471310e+00 2.638690e+00 0.0
-1.471310e+00 2.668690e+00 0.0
-1.471310e+00 2.698690e+00 0.0
-1.441310e+00 -2.701310e+00 0.0
-1.441310e+00 -2.671310e+00 0.0
-1.441310e+00 -2.641310e+00 0.0
-1.441310e+00 -1.681310e+00 0.0
-1.441310e+00 -1.651310e+00 0.0
-1.441310e+00 -1.621310e+00 0.0
-1.441310e+00 1.618690e+00 0.0
-1.441310e+00 1.648690e+00 0.0
-1.441310e+00 1.678690e+00 0.0
-1.441310e+00 2.638690e+00 0.0
-1.441310e+00 2.668690e+00 0.0
-1.441310e+00 2.698690e+00 0.0
-1.411310e+00 -2.731310e+00 0.0
-1.411310e+00 -2.701310e+00 0.0
-1.411310e+00 -2.671310e+00 0.0
-1.411310e+00 -1.681310e+00 0.0
-1.411310e+00 -1.651310e+00 0.0
-1.411310e+00 -1.621310e+00 0.0
-1.411310e+00 1.618690e+00 0.0
-1.411310e+00 1.648690e+00 0.0
-1.411310e+00 1.678690e+00 0.0
-1.411310e+00 2.668690e+00 0.0
-1.411310e+00 2.698690e+00 0.0
-1.411310e+00 2.728690e+00 0.0
-1.381310e+00 -2.731310e+00 0.0
-1.381310e+00 -2.701310e+00 0.0
-1.381310e+00 -2.671310e+00 0.0
-1.381310e+00 -1.651310e+00 0.0
-1.381310e+00 -1.621310e+00 0.0
-1.381310e+00 -1.591310e+00 0.0
-1.381310e+00 1.588690e+00 0.0
-1.381310e+00 1.618690e+00 0.0
-1.381310e+00 1.648690e+00 0.0
-1.381310e+00 2.668690e+00 0.0
-1.381310e+00 2.698690e+00 0.0
-1.381310e+00 2.728690e+00 0.0
-1.351310e+00 -2.731310e+00 0.0
-1.351310e+00 -2.701310e+00 0.0
-1.351310e+00 -2.671310e+00 0.0
-1.351310e+00 -1.651310e+00 0.0
-1.351310e+00 -1.621310e+00 0.0
-1.351310e+00 -1.591310e+00 0.0
-1.351310e+00 1.588690e+00 0.0
-1.351310e+00 1.618690e+00 0.0
-1.351310e+00 1.648690e+00 0.0
-1.351310e+00 2.668690e+00 0.0
-1.351310e+00 2.698690e+00 0.0
-1.351310e+00 2.728690e+00 0.0
-1.321310e+00 -2.731310e+00 0.0
-1.321310e+00 -2.701310e+00 0.0
-1.321310e+00 -2.671310e+00 0.0
-1.321310e+00 -1.651310e+00 0.0
-1.321310e+00 -1.621310e+00 0.0
-1.321310e+00 -1.591310e+00 0.0
-1.321310e+00 1.588690e+00 0.0
-1.321310e+00 1.618690e+00 0.0
-1.321310e+00 1.648690e+00 0.0
-1.321310e+00 2.668690e+00 0.0
-1.321310e+00 2.698690e+00 0.0
-1.321310e+00 2.728690e+00 0.0
-1.291310e+00 -2.731310e+00 0.0
-1.291310e+00 -2.701310e+00 0.0
-1.291310e+00 -2.671310e+00 0.0
-1.291310e+00 -1.651310e+00 0.0
-1.291310e+00 -1.621310e+00 0.0
-1.291310e+00 -1.591310e+00 0.0
-1.291310e+00 1.588690e+00 0.0
-1.291310e+00 1.618690e+00 0.0
-1.291310e+00 1.648690e+00 0.0
-1.291310e+00 2.668690e+00 0.0
-1.291310e+00 2.698690e+00 0.0
-1.291310e+00 2.728690e+00 0.0
-1.261310e+00 -2.731310e+00 0.0
-1.261310e+00 -2.701310e+00 0.0
-1.261310e+00 -2.671310e+00 0.0
-1.261310e+00 -1.651310e+00 0.0
-1.261310e+00 -1.621310e+00 0.0
-1.261310e+00 -1.591310e+00 0.0
-1.261310e+00 1.588690e+00 0.0
-1.261310e+00 1.618690e+00 0.0
-1.261310e+00 1.648690e+00 0.0
-1.261310e+00 2.698690e+00 0.0
-1.261310e+00 2.728690e+00 0.0
-1.231310e+00 -2.731310e+00 0.0
-1.231310e+00 -2.701310e+00 0.0
-1.231310e+00 -2.671310e+00 0.0
-1.231310e+00 -1.651310e+00 0.0
-1.231310e+00 -1.621310e+00 0.0
-1.231310e+00 -1.591310e+00 0.0
-1.231310e+00 1.588690e+00 0.0
-1.231310e+00 1.618690e+00 0.0
-1.231310e+00 1.648690e+00 0.0
-1.231310e+00 2.698690e+00 0.0
-1.231310e+00 2.728690e+00 0.0
-1.201310e+00 -2.731310e+00 0.0
-1.201310e+00 -2.701310e+00 0.0
-1.201310e+00 -2.671310e+00 0.0
-1.201310e+00 -1.651310e+00 0.0
-1.201310e+00 -1.621310e+00 0.0
-1.201310e+00 -1.591310e+00 0.0
-1.201310e+00 1.588690e+00 0.0
-1.201310e+00 1.618690e+00 0.0
-1.201310e+00 1.648690e+00 0.0
-1.201310e+00 2.668690e+00 0.0
-1.201310e+00 2.698690e+00 0.0
-1.201310e+00 2.728690e+00 0.0
-1.171310e+00 -2.731310e+00 0.0
-1.171310e+00 -2.701310e+00 0.0
-1.171310e+00 -2.671310e+00 0.0
-1.171310e+00 -1.651310e+00 0.0
-1.171310e+00 -1.621310e+00 0.0
-1.171310e+00 -1.591310e+00 0.0
-1.171310e+00 1.588690e+00 0.0
-1.171310e+00 1.618690e+00 0.0
-1.171310e+00 1.648690e+00 0.0
-1.171310e+00 2.668690e+00 0.0
-1.171310e+00 2.698690e+00 0.0
-1.171310e+00 2.728690e+00 0.0
-1.141310e+00 -2.731310e+00 0.0
-1.141310e+00 -2.701310e+00 0.0
-1.141310e+00 -2.671310e+00 0.0
-1.141310e+00 -1.651310e+00 0.0
-1.141310e+00 -1.621310e+00 0.0
-1.141310e+00 -1.591310e+00 0.0
-1.141310e+00 1.588690e+00 0.0
-1.141310e+00 1.618690e+00 0.0
-1.141310e+00 1.648690e+00 0.0
-1.141310e+00 2.668690e+00 0.0
-1.141310e+00 2.698690e+00 0.0
-1.141310e+00 2.728690e+00 0.0
-1.111310e+00 -2.731310e+00 0.0
-1.111310e+00 -2.701310e+00 0.0
-1.111310e+00 -2.671310e+00 0.0
-1.111310e+00 -1.651310e+00 0.0
-1.111310e+00 -1.621310e+00 0.0
-1.111310e+00 -1.591310e+00 0.0
-1.111310e+00 1.618690e+00 0.0
-1.111310e+00 1.648690e+00 0.0
-1.111310e+00 1.678690e+00 0.0
-1.111310e+00 2.668690e+00 0.0
-1.111310e+00 2.698690e+00 0.0
-1.111310e+00 2.728690e+00 0.0
-1.081310e+00 -2.731310e+00 0.0
-1.081310e+00 -2.701310e+00 0.0
-1.081310e+00 -2.671310e+00 0.0
-1.081310e+00 -1.681310e+00 0.0
-1.081310e+00 -1.651310e+00 0.0
-1.081310e+00 -1.621310e+00 0.0
-1.081310e+00 1.618690e+00 0.0
-1.081310e+00 1.648690e+00 0.0
-1.081310e+00 1.678690e+00 0.0
-1.081310e+00 2.668690e+00 0.0
-1.081310e+00 2.698690e+00 0.0
-1.081310e+00 2.728690e+00 0.0
-1.051310e+00 -2.701310e+00 0.0
-1.051310e+00 -2.671310e+00 0.0
-1.051310e+00 -2.641310e+00 0.0
-1.051310e+00 -1.681310e+00 0.0
-1.051310e+00 -1.651310e+00 0.0
-1.051310e+00 -1.621310e+00 0.0
-1.051310e+00 1.618690e+00 0.0
-1.051310e+00 1.648690e+00 0.0
-1.051310e+00 1.678690e+00 0.0
-1.051310e+00 2.638690e+00 0.0
-1.051310e+00 2.668690e+00 0.0
-1.051310e+00 2.698690e+00 0.0
-1.021310e+00 -2.701310e+00 0.0
-1.021310e+00 -2.671310e+00 0.0
-1.021310e+00 -2.641310e+00 0.0
-1.021310e+00 -1.711310e+00 0.0
-1.021310e+00 -1.681310e+00 0.0
-1.021310e+00 -1.651310e+00 0.0
-1.021310e+00 -1.621310e+00 0.0
-1.021310e+00 1.648690e+00 0.0
-1.021310e+00 1.678690e+00 0.0
-1.021310e+00 1.708690e+00 0.0
-1.021310e+00 2.638690e+00 0.0
-1.021310e+00 2.668690e+00 0.0
-1.021310e+00 2.698690e+00 0.0
-9.913104e-01 -2.671310e+00 0.0
-9.913104e-01 -2.641310e+00 0.0
-9.913104e-01 -2.611310e+00 0.0
-9.913104e-01 -1.711310e+00 0.0
-9.913104e-01 -1.681310e+00 0.0
-9.913104e-01 -1.651310e+00 0.0
-9.913104e-01 1.648690e+00 0.0
-9.913104e-01 1.678690e+00 0.0
-9.913104e-01 1.708690e+00 0.0
-9.913104e-01 2.608690e+00 0.0
-9.913104e-01 2.638690e+00 0.0
-9.913104e-01 2.668690e+00 0.0
-9.613104e-01 -2.671310e+00 0.0
-9.613104e-01 -2.641310e+00 0.0
-9.613104e-01 -2.611310e+00 0.0
-9.613104e-01 -1.741310e+00 0.0
-9.613104e-01 -1.711310e+00 0.0
-9.613104e-01 -1.681310e+00 0.0
-9.613104e-01 -1.651310e+00 0.0
-9.613104e-01 1.678690e+00 0.0
-9.613104e-01 1.708690e+00 0.0
-9.613104e-01 1.738690e+00 0.0
-9.613104e-01 2.608690e+00 0.0
-9.613104e-01 2.638690e+00 0.0
-9.613104e-01 2.668690e+00 0.0
-9.313104e-01 -2.641310e+00 0.0
-9.313104e-01 -2.611310e+00 0.0
-9.313104e-01 -2.581310e+00 0.0
-9.313104e-01 -1.741310e+00 0.0
-9.313104e-01 -1.711310e+00 0.0
-9.313104e-01 -1.681310e+00 0.0
-9.313104e-01 1.678690e+00 0.0
-9.313104e-01 1.708690e+00 0.0
-9.313104e-01 1.738690e+00 0.0
-9.313104e-01 2.578690e+00 0.0
-9.313104e-01 2.608690e+00 0.0
-9.313104e-01 2.638690e+00 0.0
-9.013104e-01 -2.611310e+00 0.0
-9.013104e-01 -2.581310e+00 0.0
-9.013104e-01 -2.551310e+00 0.0
-9.013104e-01 -1.771310e+00 0.0
-9.013104e-01 -1.741310e+00 0.0
-9.013104e-01 -1.711310e+00 0.0
-9.013104e-01 1.708690e+00 0.0
-9.013104e-01 1.738690e+00 0.0
-9.013104e-01 1.768690e+00 0.0
-9.013104e-01 2.548690e+00 0.0
-9.013104e-01 2.578690e+00 0.0
-9.013104e-01 2.608690e+00 0.0
-9.013104e-01 2.638690e+00 0.0
-8.713104e-01 -2.611310e+00 0.0
-8.713104e-01 -2.581310e+00 0.0
-8.713104e-01 -2.551310e+00 0.0
-8.713104e-01 -2.521310e+00 0.0
-8.713104e-01 -1.801310e+00 0.0
-8.713104e-01 -1.771310e+00 0.0
-8.713104e-01 -1.741310e+00 0.0
-8.713104e-01 1.738690e+00 0.0
-8.713104e-01 1.768690e+00 0.0
-8.713104e-01 1.798690e+00 0.0
-8.713104e-01 2.518690e+00 0.0
-8.713104e-01 2.548690e+00 0.0
-8.713104e-01 2.578690e+00 0.0
-8.713104e-01 2.608690e+00 0.0
-8.413104e-01 -2.581310e+00 0.0
-8.413104e-01 -2.551310e+00 0.0
-8.413104e-01 -2.521310e+00 0.0
-8.413104e-01 -2.491310e+00 0.0
-8.413104e-01 -1.831310e+00 0.0
-8.413104e-01 -1.801310e+00 0.0
-8.413104e-01 -1.771310e+00 0.0
-8.413104e-01 1.768690e+00 0.0
-8.413104e-01 1.798690e+00 0.0
-8.413104e-01 1.828690e+00 0.0
-8.413104e-01 2.488690e+00 0.0
-8.413104e-01 2.518690e+00 0.0
-8.413104e-01 2.548690e+00 0.0
-8.413104e-01 2.578690e+00 0.0
-8.113104e-01 -2.521310e+00 0.0
-8.113104e-01 -2.491310e+00 0.0
-8.113104e-01 -2.461310e+00 0.0
-8.113104e-01 -1.861310e+00 0.0
-8.113104e-01 -1.831310e+00 0.0
-8.113104e-01 -1.801310e+00 0.0
-8.113104e-01 1.798690e+00 0.0
-8.113104e-01 1.828690e+00 0.0
-8.113104e-01 1.858690e+00 0.0
-8.113104e-01 1.888690e+00 0.0
-8.113104e-01 2.458690e+00 0.0
-8.113104e-01 2.488690e+00 0.0
-8.113104e-01 2.518690e+00 0.0
-8.113104e-01 2.548690e+00 0.0
-7.813104e-01 -2.491310e+00 0.0
-7.813104e-01 -2.461310e+00 0.0
-7.813104e-01 -2.431310e+00 0.0
-7.813104e-01 -2.401310e+00 0.0
-7.813104e-01 -1.921310e+00 0.0
-7.813104e-01 -1.891310e+00 0.0
-7.813104e-01 -1.861310e+00 0.0
-7.813104e-01 -1.831310e+00 0.0
-7.813104e-01 1.828690e+00 0.0
-7.813104e-01 1.858690e+00 0.0
-7.813104e-01 1.888690e+00 0.0
-7.813104e-01 1.918690e+00 0.0
-7.813104e-01 2.398690e+00 0.0
-7.813104e-01 2.428690e+00 0.0
-7.813104e-01 2.458690e+00 0.0
-7.813104e-01 2.488690e+00 0.0
-7.513104e-01 -2.431310e+00 0.0
-7.513104e-01 -2.401310e+00 0.0
-7.513104e-01 -2.371310e+00 0.0
-7.513104e-01 -1.951310e+00 0.0
-7.513104e-01 -1.921310e+00 0.0
-7.513104e-01 -1.891310e+00 0.0
-7.513104e-01 1.888690e+00 0.0
-7.513104e-01 1.918690e+00 0.0
-7.513104e-01 1.948690e+00 0.0
-7.513104e-01 2.368690e+00 0.0
-7.513104e-01 2.398690e+00 0.0
-7.513104e-01 2.428690e+00 0.0
-7.213104e-01 -1.981310e+00 0.0
-7.213104e-01 1.978690e+00 0.0
7.486896e-01 -2.431310e+00 0.0
7.486896e-01 -2.401310e+00 0.0
7.486896e-01 -2.371310e+00 0.0
7.486896e-01 -1.951310e+00 0.0
7.486896e-01 -1.921310e+00 0.0
7.486896e-01 -1.891310e+00 0.0
7.486896e-01 1.888690e+00 0.0
7.486896e-01 1.918690e+00 0.0
7.486896e-01 1.948690e+00 0.0
7.486896e-01 1.978690e+00 0.0
7.486896e-01 2.368690e+00 0.0
7.486896e-01 2.398690e+00 0.0
7.486896e-01 2.428690e+00 0.0
7.786896e-01 -2.491310e+00 0.0
7.786896e-01 -2.461310e+00 0.0
7.786896e-01 -2.431310e+00 0.0
7.786896e-01 -2.401310e+00 0.0
7.786896e-01 -1.921310e+00 0.0
7.786896e-01 -1.891310e+00 0.0
7.786896e-01 -1.861310e+00 0.0
7.786896e-01 -1.831310e+00 0.0
7.786896e-01 1.828690e+00 0.0
7.786896e-01 1.858690e+00 0.0
7.786896e-01 1.888690e+00 0.0
7.786896e-01 1.918690e+00 0.0
7.786896e-01 2.398690e+00 0.0
7.786896e-01 2.428690e+00 0.0
7.786896e-01 2.458690e+00 0.0
7.786896e-01 2.488690e+00 0.0
8.086896e-01 -2.521310e+00 0.0
8.086896e-01 -2.491310e+00 0.0
8.086896e-01 -2.461310e+00 0.0
8.086896e-01 -1.891310e+00 0.0
8.086896e-01 -1.861310e+00 0.0
8.086896e-01 -1.831310e+00 0.0
8.086896e-01 -1.801310e+00 0.0
8.086896e-01 1.798690e+00 0.0
8.086896e-01 1.828690e+00 0.0
8.086896e-01 1.858690e+00 0.0
8.086896e-01 1.888690e+00 0.0
8.086896e-01 2.458690e+00 0.0
8.086896e-01 2.488690e+00 0.0
8.086896e-01 2.518690e+00 0.0
8.386896e-01 -2.581310e+00 0.0
8.386896e-01 -2.551310e+00 0.0
8.386896e-01 -2.521310e+00 0.0
8.386896e-01 -2.491310e+00 0.0
8.386896e-01 -1.831310e+00 0.0
8.386896e-01 -1.801310e+00 0.0
8.386896e-01 -1.771310e+00 0.0
8.386896e-01 1.768690e+00 0.0
8.386896e-01 1.798690e+00 0.0
8.386896e-01 1.828690e+00 0.0
8.386896e-01 2.488690e+00 0.0
8.386896e-01 2.518690e+00 0.0
8.386896e-01 2.548690e+00 0.0
8.386896e-01 2.578690e+00 0.0
8.686896e-01 -2.611310e+00 0.0
8.686896e-01 -2.581310e+00 0.0
8.686896e-01 -2.551310e+00 0.0
8.686896e-01 -2.521310e+00 0.0
8.686896e-01 -1.801310e+00 0.0
8.686896e-01 -1.771310e+00 0.0
8.686896e-01 -1.741310e+00 0.0
8.686896e-01 1.738690e+00 0.0
8.686896e-01 1.768690e+00 0.0
8.686896e-01 1.798690e+00 0.0
8.686896e-01 2.518690e+00 0.0
8.686896e-01 2.548690e+00 0.0
8.686896e-01 2.578690e+00 0.0
8.686896e-01 2.608690e+00 0.0
8.986896e-01 -2.611310e+00 0.0
8.986896e-01 -2.581310e+00 0.0
8.986896e-01 -2.551310e+00 0.0
8.986896e-01 -1.771310e+00 0.0
8.986896e-01 -1.741310e+00 0.0
8.986896e-01 -1.711310e+00 0.0
8.986896e-01 1.708690e+00 0.0
8.986896e-01 1.738690e+00 0.0
8.986896e-01 1.768690e+00 0.0
8.986896e-01 2.548690e+00 0.0
8.986896e-01 2.578690e+00 0.0
8.986896e-01 2.608690e+00 0.0
9.286896e-01 -2.641310e+00 0.0
9.286896e-01 -2.611310e+00 0.0
9.286896e-01 -2.581310e+00 0.0
9.286896e-01 -1.741310e+00 0.0
9.286896e-01 -1.711310e+00 0.0
9.286896e-01 -1.681310e+00 0.0
9.286896e-01 1.678690e+00 0.0
9.286896e-01 1.708690e+00 0.0
9.286896e-01 1.738690e+00 0.0
9.286896e-01 1.768690e+00 0.0
9.286896e-01 2.578690e+00 0.0
9.286896e-01 2.608690e+00 0.0
9.286896e-01 2.638690e+00 0.0
9.586896e-01 -2.671310e+00 0.0
9.586896e-01 -2.641310e+00 0.0
9.586896e-01 -2.611310e+00 0.0
9.586896e-01 -1.741310e+00 0.0
9.586896e-01 -1.711310e+00 0.0
9.586896e-01 -1.681310e+00 0.0
9.586896e-01 1.678690e+00 0.0
9.586896e-01 1.708690e+00 0.0
9.586896e-01 1.738690e+00 0.0
9.586896e-01 2.608690e+00 0.0
9.586896e-01 2.638690e+00 0.0
9.586896e-01 2.668690e+00 0.0
9.886896e-01 -2.671310e+00 0.0
9.886896e-01 -2.641310e+00 0.0
9.886896e-01 -2.611310e+00 0.0
9.886896e-01 -1.711310e+00 0.0
9.886896e-01 -1.681310e+00 0.0
9.886896e-01 -1.651310e+00 0.0
9.886896e-01 1.648690e+00 0.0
9.886896e-01 1.678690e+00 0.0
9.886896e-01 1.708690e+00 0.0
9.886896e-01 2.608690e+00 0.0
9.886896e-01 2.638690e+00 0.0
9.886896e-01 2.668690e+00 0.0
1.018690e+00 -2.701310e+00 0.0
1.018690e+00 -2.671310e+00 0.0
1.018690e+00 -2.641310e+00 0.0
1.018690e+00 -1.711310e+00 0.0
1.018690e+00 -1.681310e+00 0.0
1.018690e+00 -1.651310e+00 0.0
1.018690e+00 1.648690e+00 0.0
1.018690e+00 1.678690e+00 0.0
1.018690e+00 1.708690e+00 0.0
1.018690e+00 2.638690e+00 0.0
1.018690e+00 2.668690e+00 0.0
1.018690e+00 2.698690e+00 0.0
1.048690e+00 -2.701310e+00 0.0
1.048690e+00 -2.671310e+00 0.0
1.048690e+00 -2.641310e+00 0.0
1.048690e+00 -1.681310e+00 0.0
1.048690e+00 -1.651310e+00 0.0
1.048690e+00 -1.621310e+00 0.0
1.048690e+00 1.618690e+00 0.0
1.048690e+00 1.648690e+00 0.0
1.048690e+00 1.678690e+00 0.0
1.048690e+00 2.638690e+00 0.0
1.048690e+00 2.668690e+00 0.0
1.048690e+00 2.698690e+00 0.0
1.078690e+00 -2.701310e+00 0.0
1.078690e+00 -2.671310e+00 0.0
1.078690e+00 -2.641310e+00 0.0
1.078690e+00 -1.681310e+00 0.0
1.078690e+00 -1.651310e+00 0.0
1.078690e+00 -1.621310e+00 0.0
1.078690e+00 1.618690e+00 0.0
1.078690e+00 1.648690e+00 0.0
1.078690e+00 1.678690e+00 0.0
1.078690e+00 2.668690e+00 0.0
1.078690e+00 2.698690e+00 0.0
1.078690e+00 2.728690e+00 0.0
1.108690e+00 -2.731310e+00 0.0
1.108690e+00 -2.701310e+00 0.0
1.108690e+00 -2.671310e+00 0.0
1.108690e+00 -1.651310e+00 0.0
1.108690e+00 -1.621310e+00 0.0
1.108690e+00 -1.591310e+00 0.0
1.108690e+00 1.618690e+00 0.0
1.108690e+00 1.648690e+00 0.0
1.108690e+00 1.678690e+00 0.0
1.108690e+00 2.668690e+00 0.0
1.108690e+00 2.698690e+00 0.0
1.108690e+00 2.728690e+00 0.0
1.138690e+00 -2.731310e+00 0.0
1.138690e+00 -2.701310e+00 0.0
1.138690e+00 -2.671310e+00 0.0
1.138690e+00 -1.651310e+00 0.0
1.138690e+00 -1.621310e+00 0.0
1.138690e+00 -1.591310e+00 0.0
1.138690e+00 1.588690e+00 0.0
1.138690e+00 1.618690e+00 0.0
1.138690e+00 1.648690e+00 0.0
1.138690e+00 2.668690e+00 0.0
1.138690e+00 2.698690e+00 0.0
1.138690e+00 2.728690e+00 0.0
1.168690e+00 -2.731310e+00 0.0
1.168690e+00 -2.701310e+00 0.0
1.168690e+00 -2.671310e+00 0.0
1.168690e+00 -1.651310e+00 0.0
1.168690e+00 -1.621310e+00 0.0
1.168690e+00 -1.591310e+00 0.0
1.168690e+00 1.588690e+00 0.0
1.168690e+00 1.618690e+00 0.0
1.168690e+00 1.648690e+00 0.0
1.168690e+00 2.668690e+00 0.0
1.168690e+00 2.698690e+00 0.0
1.168690e+00 2.728690e+00 0.0
1.198690e+00 -2.731310e+00 0.0
1.198690e+00 -2.701310e+00 0.0
1.198690e+00 -2.671310e+00 0.0
1.198690e+00 -1.651310e+00 0.0
1.198690e+00 -1.621310e+00 0.0
1.198690e+00 -1.591310e+00 0.0
1.198690e+00 1.588690e+00 0.0
1.198690e+00 1.618690e+00 0.0
1.198690e+00 1.648690e+00 0.0
1.198690e+00 2.668690e+00 0.0
1.198690e+00 2.698690e+00 0.0
1.198690e+00 2.728690e+00 0.0
1.228690e+00 -2.731310e+00 0.0
1.228690e+00 -2.701310e+00 0.0
1.228690e+00 -2.671310e+00 0.0
1.228690e+00 -1.651310e+00 0.0
1.228690e+00 -1.621310e+00 0.0
1.228690e+00 -1.591310e+00 0.0
1.228690e+00 1.588690e+00 0.0
1.228690e+00 1.618690e+00 0.0
1.228690e+00 1.648690e+00 0.0
1.228690e+00 2.698690e+00 0.0
1.228690e+00 2.728690e+00 0.0
1.258690e+00 -2.731310e+00 0.0
1.258690e+00 -2.701310e+00 0.0
1.258690e+00 -2.671310e+00 0.0
1.258690e+00 -1.651310e+00 0.0
1.258690e+00 -1.621310e+00 0.0
1.258690e+00 -1.591310e+00 0.0
1.258690e+00 1.588690e+00 0.0
1.258690e+00 1.618690e+00 0.0
1.258690e+00 1.648690e+00 0.0
1.258690e+00 2.698690e+00 0.0
1.258690e+00 2.728690e+00 0.0
1.288690e+00 -2.731310e+00 0.0
1.288690e+00 -2.701310e+00 0.0
1.288690e+00 -2.671310e+00 0.0
1.288690e+00 -1.651310e+00 0.0
1.288690e+00 -1.621310e+00 0.0
1.288690e+00 -1.591310e+00 0.0
1.288690e+00 1.588690e+00 0.0
1.288690e+00 1.618690e+00 0.0
1.288690e+00 1.648690e+00 0.0
1.288690e+00 2.668690e+00 0.0
1.288690e+00 2.698690e+00 0.0
1.288690e+00 2.728690e+00 0.0
1.318690e+00 -2.731310e+00 0.0
1.318690e+00 -2.701310e+00 0.0
1.318690e+00 -2.671310e+00 0.0
1.318690e+00 -1.651310e+00 0.0
1.318690e+00 -1.621310e+00 0.0
1.318690e+00 -1.591310e+00 0.0
1.318690e+00 1.588690e+00 0.0
1.318690e+00 1.618690e+00 0.0
1.318690e+00 1.648690e+00 0.0
1.318690e+00 2.668690e+00 0.0
1.318690e+00 2.698690e+00 0.0
1.318690e+00 2.728690e+00 0.0
1.348690e+00 -2.731310e+00 0.0
1.348690e+00 -2.701310e+00 0.0
1.348690e+00 -2.671310e+00 0.0
1.348690e+00 -1.651310e+00 0.0
1.348690e+00 -1.621310e+00 0.0
1.348690e+00 -1.591310e+00 0.0
1.348690e+00 1.588690e+00 0.0
1.348690e+00 1.618690e+00 0.0
1.348690e+00 1.648690e+00 0.0
1.348690e+00 2.668690e+00 0.0
1.348690e+00 2.698690e+00 0.0
1.348690e+00 2.728690e+00 0.0
1.378690e+00 -2.731310e+00 0.0
1.378690e+00 -2.701310e+00 0.0
1.378690e+00 -2.671310e+00 0.0
1.378690e+00 -1.651310e+00 0.0
1.378690e+00 -1.621310e+00 0.0
1.378690e+00 -1.591310e+00 0.0
1.378690e+00 1.588690e+00 0.0
1.378690e+00 1.618690e+00 0.0
1.378690e+00 1.648690e+00 0.0
1.378690e+00 2.668690e+00 0.0
1.378690e+00 2.698690e+00 0.0
1.378690e+00 2.728690e+00 0.0
1.408690e+00 -2.731310e+00 0.0
1.408690e+00 -2.701310e+00 0.0
1.408690e+00 -2.671310e+00 0.0
1.408690e+00 -1.681310e+00 0.0
1.408690e+00 -1.651310e+00 0.0
1.408690e+00 -1.621310e+00 0.0
1.408690e+00 1.618690e+00 0.0
1.408690e+00 1.648690e+00 0.0
1.408690e+00 1.678690e+00 0.0
1.408690e+00 2.668690e+00 0.0
1.408690e+00 2.698690e+00 0.0
1.408690e+00 2.728690e+00 0.0
1.438690e+00 -2.701310e+00 0.0
1.438690e+00 -2.671310e+00 0.0
1.438690e+00 -2.641310e+00 0.0
1.438690e+00 -1.681310e+00 0.0
1.438690e+00 -1.651310e+00 0.0
1.438690e+00 -1.621310e+00 0.0
1.438690e+00 1.618690e+00 0.0
1.438690e+00 1.648690e+00 0.0
1.438690e+00 1.678690e+00 0.0
1.438690e+00 2.638690e+00 0.0
1.438690e+00 2.668690e+00 0.0
1.438690e+00 2.698690e+00 0.0
1.468690e+00 -2.701310e+00 0.0
1.468690e+00 -2.671310e+00 0.0
1.468690e+00 -2.641310e+00 0.0
1.468690e+00 -1.681310e+00 0.0
1.468690e+00 -1.651310e+00 0.0
1.468690e+00 -1.621310e+00 0.0
1.468690e+00 1.618690e+00 0.0
1.468690e+00 1.648690e+00 0.0
1.468690e+00 1.678690e+00 0.0
1.468690e+00 2.638690e+00 0.0
1.468690e+00 2.668690e+00 0.0
1.468690e+00 2.698690e+00 0.0
1.498690e+00 -2.671310e+00 0.0
1.498690e+00 -2.641310e+00 0.0
1.498690e+00 -2.611310e+00 0.0
1.498690e+00 -1.711310e+00 0.0
1.498690e+00 -1.681310e+00 0.0
1.498690e+00 -1.651310e+00 0.0
1.498690e+00 1.648690e+00 0.0
1.498690e+00 1.678690e+00 0.0
1.498690e+00 1.708690e+00 0.0
1.498690e+00 2.608690e+00 0.0
1.498690e+00 2.638690e+00 0.0
1.498690e+00 2.668690e+00 0.0
1.498690e+00 2.698690e+00 0.0
1.528690e+00 -2.671310e+00 0.0
1.528690e+00 -2.641310e+00 0.0
1.528690e+00 -2.611310e+00 0.0
1.528690e+00 -1.711310e+00 0.0
1.528690e+00 -1.681310e+00 0.0
1.528690e+00 -1.651310e+00 0.0
1.528690e+00 1.648690e+00 0.0
1.528690e+00 1.678690e+00 0.0
1.528690e+00 1.708690e+00 0.0
1.528690e+00 1.738690e+00 0.0
1.528690e+00 2.608690e+00 0.0
1.528690e+00 2.638690e+00 0.0
1.528690e+00 2.668690e+00 0.0
1.558690e+00 -2.641310e+00 0.0
1.558690e+00 -2.611310e+00 0.0
1.558690e+00 -2.581310e+00 0.0
1.558690e+00 -1.741310e+00 0.0
1.558690e+00 -1.711310e+00 0.0
1.558690e+00 -1.681310e+00 0.0
1.558690e+00 1.678690e+00 0.0
1.558690e+00 1.708690e+00 0.0
1.558690e+00 1.738690e+00 0.0
1.558690e+00 2.578690e+00 0.0
1.558690e+00 2.608690e+00 0.0
1.558690e+00 2.638690e+00 0.0
1.588690e+00 -2.641310e+00 0.0
1.588690e+00 -2.611310e+00 0.0
1.588690e+00 -2.581310e+00 0.0
1.588690e+00 -2.551310e+00 0.0
1.588690e+00 -1.771310e+00 0.0
1.588690e+00 -1.741310e+00 0.0
1.588690e+00 -1.711310e+00 0.0
1.588690e+00 1.708690e+00 0.0
1.588690e+00 1.738690e+00 0.0
1.588690e+00 1.768690e+00 0.0
1.588690e+00 2.548690e+00 0.0
1.588690e+00 2.578690e+00 0.0
1.588690e+00 2.608690e+00 0.0
1.588690e+00 2.638690e+00 0.0
1.618690e+00 -2.611310e+00 0.0
1.618690e+00 -2.581310e+00 0.0
1.618690e+00 -2.551310e+00 0.0
1.618690e+00 -2.521310e+00 0.0
1.618690e+00 -1.801310e+00 0.0
1.618690e+00 -1.771310e+00 0.0
1.618690e+00 -1.741310e+00 0.0
1.618690e+00 -1.711310e+00 0.0
1.618690e+00 1.708690e+00 0.0
1.618690e+00 1.738690e+00 0.0
1.618690e+00 1.768690e+00 0.0
1.618690e+00 1.798690e+00 0.0
1.618690e+00 2.548690e+00 0.0
1.618690e+00 2.578690e+00 0.0
1.618690e+00 2.608690e+00 0.0
1.648690e+00 -2.581310e+00 0.0
1.648690e+00 -2.551310e+00 0.0
1.648690e+00 -2.521310e+00 0.0
1.648690e+00 -2.491310e+00 0.0
1.648690e+00 -1.831310e+00 0.0
1.648690e+00 -1.801310e+00 0.0
1.648690e+00 -1.771310e+00 0.0
1.648690e+00 -1.741310e+00 0.0
1.648690e+00 1.738690e+00 0.0
1.648690e+00 1.768690e+00 0.0
1.648690e+00 1.798690e+00 0.0
1.648690e+00 1.828690e+00 0.0
1.648690e+00 2.518690e+00 0.0
1.648690e+00 2.548690e+00 0.0
1.648690e+00 2.578690e+00 0.0
1.678690e+00 -2.551310e+00 0.0
1.678690e+00 -2.521310e+00 0.0
1.678690e+00 -2.491310e+00 0.0
1.678690e+00 -2.461310e+00 0.0
1.678690e+00 -1.861310e+00 0.0
1.678690e+00 -1.831310e+00 0.0
1.678690e+00 -1.801310e+00 0.0
1.678690e+00 -1.771310e+00 0.0
1.678690e+00 1.768690e+00 0.0
1.678690e+00 1.798690e+00 0.0
1.678690e+00 1.828690e+00 0.0
1.678690e+00 1.858690e+00 0.0
1.678690e+00 2.458690e+00 0.0
1.678690e+00 2.488690e+00 0.0
1.678690e+00 2.518690e+00 0.0
1.678690e+00 2.548690e+00 0.0
1.708690e+00 -2.521310e+00 0.0
1.708690e+00 -2.491310e+00 0.0
1.708690e+00 -2.461310e+00 0.0
1.708690e+00 -2.431310e+00 0.0
1.708690e+00 -1.891310e+00 0.0
1.708690e+00 -1.861310e+00 0.0
1.708690e+00 -1.831310e+00 0.0
1.708690e+00 1.828690e+00 0.0
1.708690e+00 1.858690e+00 0.0
1.708690e+00 1.888690e+00 0.0
1.708690e+00 2.428690e+00 0.0
1.708690e+00 2.458690e+00 0.0
1.708690e+00 2.488690e+00 0.0
1.708690e+00 2.518690e+00 0.0
1.738690e+00 -2.461310e+00 0.0
1.738690e+00 -2.431310e+00 0.0
1.738690e+00 -2.401310e+00 0.0
1.738690e+00 -2.371310e+00 0.0
1.738690e+00 -1.951310e+00 0.0
1.738690e+00 -1.921310e+00 0.0
1.738690e+00 -1.891310e+00 0.0
1.738690e+00 -1.861310e+00 0.0
1.738690e+00 1.858690e+00 0.0
1.738690e+00 1.888690e+00 0.0
1.738690e+00 1.918690e+00 0.0
1.738690e+00 1.948690e+00 0.0
1.738690e+00 2.368690e+00 0.0
1.738690e+00 2.398690e+00 0.0
1.738690e+00 2.428690e+00 0.0
1.738690e+00 2.458690e+00 0.0
1.768690e+00 -2.401310e+00 0.0
1.768690e+00 -2.371310e+00 0.0
1.768690e+00 -2.341310e+00 0.0
1.768690e+00 -1.981310e+00 0.0
1.768690e+00 -1.951310e+00 0.0
1.768690e+00 1.948690e+00 0.0
1.768690e+00 1.978690e+00 0.0
1.768690e+00 2.338690e+00 0.0
1.768690e+00 2.368690e+00 0.0
1.768690e+00 2.398690e+00 0.0
1.978690e+00 -2.113104e-01 0.0
1.978690e+00 -1.813104e-01 0.0
1.978690e+00 1.786896e-01 0.0
1.978690e+00 2.086896e-01 0.0
2.008690e+00 -3.013104e-01 0.0
2.008690e+00 -2.713104e-01 0.0
2.008690e+00 -2.413104e-01 0.0
2.008690e+00 -2.113104e-01 0.0
2.008690e+00 2.086896e-01 0.0
2.008690e+00 2.386896e-01 0.0
2.008690e+00 2.686896e-01 0.0
2.008690e+00 2.986896e-01 0.0
2.038690e+00 -3.313104e-01 0.0
2.038690e+00 -3.013104e-01 0.0
2.038690e+00 -2.713104e-01 0.0
2.038690e+00 2.686896e-01 0.0
2.038690e+00 2.986896e-01 0.0
2.038690e+00 3.286896e-01 0.0
2.068690e+00 -3.913104e-01 0.0
2.068690e+00 -3.613104e-01 0.0
2.068690e+00 -3.313104e-01 0.0
2.068690e+00 -3.013104e-01 0.0
2.068690e+00 2.986896e-01 0.0
2.068690e+00 3.286896e-01 0.0
2.068690e+00 3.586896e-01 0.0
2.068690e+00 3.886896e-01 0.0
2.098690e+00 -4.213104e-01 0.0
2.098690e+00 -3.913104e-01 0.0
2.098690e+00 -3.613104e-01 0.0
2.098690e+00 -3.313104e-01 0.0
2.098690e+00 3.286896e-01 0.0
2.098690e+00 3.586896e-01 0.0
2.098690e+00 3.886896e-01 0.0
2.098690e+00 4.186896e-01 0.0
2.128690e+00 -4.513104e-01 0.0
2.128690e+00 -4.213104e-01 0.0
2.128690e+00 -3.913104e-01 0.0
2.128690e+00 -3.613104e-01 0.0
2.128690e+00 3.586896e-01 0.0
2.128690e+00 3.886896e-01 0.0
2.128690e+00 4.186896e-01 0.0
2.128690e+00 4.486896e-01 0.0
2.158690e+00 -4.513104e-01 0.0
2.158690e+00 -4.213104e-01 0.0
2.158690e+00 -3.913104e-01 0.0
2.158690e+00 3.886896e-01 0.0
2.158690e+00 4.186896e-01 0.0
2.158690e+00 4.486896e-01 0.0
2.158690e+00 4.786896e-01 0.0
2.188690e+00 -4.813104e-01 0.0
2.188690e+00 -4.513104e-01 0.0
2.188690e+00 -4.213104e-01 0.0
2.188690e+00 4.186896e-01 0.0
2.188690e+00 4.486896e-01 0.0
2.188690e+00 4.786896e-01 0.0
2.218690e+00 -5.113104e-01 0.0
2.218690e+00 -4.813104e-01 0.0
2.218690e+00 -4.513104e-01 0.0
2.218690e+00 4.486896e-01 0.0
2.218690e+00 4.786896e-01 0.0
2.218690e+00 5.086896e-01 0.0
2.248690e+00 -5.113104e-01 0.0
2.248690e+00 -4.813104e-01 0.0
2.248690e+00 -4.513104e-01 0.0
2.248690e+00 4.486896e-01 0.0
2.248690e+00 4.786896e-01 0.0
2.248690e+00 5.086896e-01 0.0
2.278690e+00 -5.413104e-01 0.0
2.278690e+00 -5.113104e-01 0.0
2.278690e+00 -4.813104e-01 0.0
2.278690e+00 4.786896e-01 0.0
2.278690e+00 5.086896e-01 0.0
2.278690e+00 5.386896e-01 0.0
2.308690e+00 -5.413104e-01 0.0
2.308690e+00 -5.113104e-01 0.0
2.308690e+00 -4.813104e-01 0.0
2.308690e+00 4.786896e-01 0.0
2.308690e+00 5.086896e-01 0.0
2.308690e+00 5.386896e-01 0.0
2.338690e+00 -5.413104e-01 0.0
2.338690e+00 -5.113104e-01 0.0
2.338690e+00 -4.813104e-01 0.0
2.338690e+00 5.086896e-01 0.0
2.338690e+00 5.386896e-01 0.0
2.338690e+00 5.686896e-01 0.0
2.368690e+00 -5.713104e-01 0.0
2.368690e+00 -5.413104e-01 0.0
2.368690e+00 -5.113104e-01 0.0
2.368690e+00 5.086896e-01 0.0
2.368690e+00 5.386896e-01 0.0
2.368690e+00 5.686896e-01 0.0
2.398690e+00 -5.713104e-01 0.0
2.398690e+00 -5.413104e-01 0.0
2.398690e+00 -5.113104e-01 0.0
2.398690e+00 5.086896e-01 0.0
2.398690e+00 5.386896e-01 0.0
2.398690e+00 5.686896e-01 0.0
2.428690e+00 -5.713104e-01 0.0
2.428690e+00 -5.413104e-01 0.0
2.428690e+00 -5.113104e-01 0.0
2.428690e+00 5.086896e-01 0.0
2.428690e+00 5.386896e-01 0.0
2.428690e+00 5.686896e-01 0.0
2.458690e+00 -5.713104e-01 0.0
2.458690e+00 -5.413104e-01 0.0
2.458690e+00 -5.113104e-01 0.0
2.458690e+00 5.086896e-01 0.0
2.458690e+00 5.386896e-01 0.0
2.458690e+00 5.686896e-01 0.0
2.488690e+00 -5.713104e-01 0.0
2.488690e+00 -5.413104e-01 0.0
2.488690e+00 -5.113104e-01 0.0
2.488690e+00 5.086896e-01 0.0
2.488690e+00 5.386896e-01 0.0
2.488690e+00 5.686896e-01 0.0
2.518690e+00 -5.713104e-01 0.0
2.518690e+00 -5.413104e-01 0.0
2.518690e+00 -5.113104e-01 0.0
2.518690e+00 5.086896e-01 0.0
2.518690e+00 5.386896e-01 0.0
2.518690e+00 5.686896e-01 0.0
2.548690e+00 -5.713104e-01 0.0
2.548690e+00 -5.413104e-01 0.0
2.548690e+00 -5.113104e-01 0.0
2.548690e+00 5.086896e-01 0.0
2.548690e+00 5.386896e-01 0.0
2.548690e+00 5.686896e-01 0.0
2.578690e+00 -5.713104e-01 0.0
2.578690e+00 -5.413104e-01 0.0
2.578690e+00 -5.113104e-01 0.0
2.578690e+00 5.086896e-01 0.0
2.578690e+00 5.386896e-01 0.0
2.578690e+00 5.686896e-01 0.0
2.608690e+00 -5.713104e-01 0.0
2.608690e+00 -5.413104e-01 0.0
2.608690e+00 -5.113104e-01 0.0
2.608690e+00 5.086896e-01 0.0
2.608690e+00 5.386896e-01 0.0
2.608690e+00 5.686896e-01 0.0
2.638690e+00 -5.713104e-01 0.0
2.638690e+00 -5.413104e-01 0.0
2.638690e+00 -5.113104e-01 0.0
2.638690e+00 5.086896e-01 0.0
2.638690e+00 5.386896e-01 0.0
2.638690e+00 5.686896e-01 0.0
2.668690e+00 -5.413104e-01 0.0
2.668690e+00 -5.113104e-01 0.0
2.668690e+00 -4.813104e-01 0.0
2.668690e+00 4.786896e-01 0.0
2.668690e+00 5.086896e-01 0.0
2.668690e+00 5.386896e-01 0.0
2.698690e+00 -5.413104e-01 0.0
2.698690e+00 -5.113104e-01 0.0
2.698690e+00 -4.813104e-01 0.0
2.698690e+00 4.786896e-01 0.0
2.698690e+00 5.086896e-01 0.0
2.698690e+00 5.386896e-01 0.0
2.728690e+00 -5.413104e-01 0.0
2.728690e+00 -5.113104e-01 0.0
2.728690e+00 -4.813104e-01 0.0
2.728690e+00 4.786896e-01 0.0
2.728690e+00 5.086896e-01 0.0
2.728690e+00 5.386896e-01 0.0
2.758690e+00 -5.113104e-01 0.0
2.758690e+00 -4.813104e-01 0.0
2.758690e+00 -4.513104e-01 0.0
2.758690e+00 4.486896e-01 0.0
2.758690e+00 4.786896e-01 0.0
2.758690e+00 5.086896e-01 0.0
2.788690e+00 -5.113104e-01 0.0
2.788690e+00 -4.813104e-01 0.0
2.788690e+00 -4.513104e-01 0.0
2.788690e+00 -4.213104e-01 0.0
2.788690e+00 4.186896e-01 0.0
2.788690e+00 4.486896e-01 0.0
2.788690e+00 4.786896e-01 0.0
2.788690e+00 5.086896e-01 0.0
2.818690e+00 -4.813104e-01 0.0
2.818690e+00 -4.513104e-01 0.0
2.818690e+00 -4.213104e-01 0.0
2.818690e+00 4.186896e-01 0.0
2.818690e+00 4.486896e-01 0.0
2.818690e+00 4.786896e-01 0.0
2.848690e+00 -4.513104e-01 0.0
2.848690e+00 -4.213104e-01 0.0
2.848690e+00 -3.913104e-01 0.0
2.848690e+00 3.886896e-01 0.0
2.848690e+00 4.186896e-01 0.0
2.848690e+00 4.486896e-01 0.0
2.878690e+00 -4.213104e-01 0.0
2.878690e+00 -3.913104e-01 0.0
2.878690e+00 -3.613104e-01 0.0
2.878690e+00 3.586896e-01 0.0
2.878690e+00 3.886896e-01 0.0
2.878690e+00 4.186896e-01 0.0
2.908690e+00 -3.913104e-01 0.0
2.908690e+00 -3.613104e-01 0.0
2.908690e+00 -3.313104e-01 0.0
2.908690e+00 3.286896e-01 0.0
2.908690e+00 3.586896e-01 0.0
2.908690e+00 3.886896e-01 0.0
2.908690e+00 4.186896e-01 0.0
2.938690e+00 -3.613104e-01 0.0
2.938690e+00 -3.313104e-01 0.0
2.938690e+00 -3.013104e-01 0.0
2.938690e+00 2.986896e-01 0.0
2.938690e+00 3.286896e-01 0.0
2.938690e+00 3.586896e-01 0.0
2.968690e+00 -3.313104e-01 0.0
2.968690e+00 -3.013104e-01 0.0
2.968690e+00 -2.713104e-01 0.0
2.968690e+00 -2.413104e-01 0.0
2.968690e+00 2.386896e-01 0.0
2.968690e+00 2.686896e-01 0.0
2.968690e+00 2.986896e-01 0.0
2.968690e+00 3.286896e-01 0.0
2.998690e+00 -2.713104e-01 0.0
2.998690e+00 -2.413104e-01 0.0
2.998690e+00 -2.113104e-01 0.0
2.998690e+00 2.086896e-01 0.0
2.998690e+00 2.386896e-01 0.0
2.998690e+00 2.686896e-01 0.0
3.028690e+00 -1.813104e-01 0.0
3.028690e+00 1.786896e-01 0.0

CELLS 1346 2692
1 0
1 1
1 2
1 3
1 4
1 5
1 6
1 7
1 8
1 9
1 10
1 11
1 12
1 13
1 14
1 15
1 16
1 17
1 18
1 19
1 20
1 21
1 22
1 23
1 24
1 25
1 26
1 27
1 28
1 29
1 30
1 31
1 32
1 33
1 34
1 35
1 36
1 37
1 38
1 39
1 40
1 41
1 42
1 43
1 44
1 45
1 46
1 47
1 48
1 49
1 50
1 51
1 52
1 53
1 54
1 55
1 56
1 57
1 58
1 59
1 60
1 61
1 62
1 63
1 64
1 65
1 66
1 67
1 68
1 69
1 70
1 71
1 72
1 73
1 74
1 75
1 76
1 77
1 78
1 79
1 80
1 81
1 82
1 83
1 84
1 85
1 86
1 87
1 88
1 89
1 90
1 91
1 92
1 93
1 94
1 95
1 96
1 97
1 98
1 99
1 100
1 101
1 102
1 103
1 104
1 105
1 106
1 107
1 108
1 109
1 110
1 111
1 112
1 113
1 114
1 115
1 116
1 117
1 118
1 119
1 120
1 121
1 122
1 123
1 124
1 125
1 126
1 127
1 128
1 129
1 130
1 131
1 132
1 133
1 134
1 135
1 136
1 137
1 138
1 139
1 140
1 141
1 142
1 143
1 144
1 145
1 146
1 147
1 148
1 149
1 150
1 151
1 152
1 153
1 154
1 155
1 156
1 157
1 158
1 159
1 160
1 161
1 162
1 163
1 164
1 165
1 166
1 167
1 168
1 169
1 170
1 171
1 172
1 173
1 174
1 175
1 176
1 177
1 178
1 179
1 180
1 181
1 182
1 183
1 184
1 185
1 186
1 187
1 188
1 189
1 190
1 191
1 192
1 193
1 194
1 195
1 196
1 197
1 198
1 199
1 200
1 201
1 202
1 203
1 204
1 205
1 206
1 207
1 208
1 209
1 210
1 211
1 212
1 213
1 214
1 215
1 216
1 217
1 218
1 219
1 220
1 221
1 222
1 223
1 224
1 225
1 226
1 227
1 228
1 229
1 230
1 231
1 232
1 233
1 234
1 235
1 236
1 237
1 238
1 239
1 240
1 241
1 242
1 243
1 244
1 245
1 246
1 247
1 248
1 249
1 250
1 251
1 252
1 253
1 254
1 255
1 256
1 257
1 258
1 259
1 260
1 261
1 262
1 263
1 264
1 265
1 266
1 267
1 268
1 269
1 270
1 271
1 272
1 273
1 274
1 275
1 276
1 277
1 278
1 279
1 280
1 281
1 282
1 283
1 284
1 285
1 286
1 287
1 288
1 289
1 290
1 291
1 292
1 293
1 294
1 295
1 296
1 297
1 298
1 299
1 300
1 301
1 302
1 303
1 304
1 305
1 306
1 307
1 308
1 309
1 310
1 311
1 312
1 313
1 314
1 315
1 316
1 317
1 318
1 319
1 320
1 321
1 322
1 323
1 324
1 325
1 326
1 327
1 328
1 329
1 330
1 331
1 332
1 333
1 334
1 335
1 336
1 337
1 338
1 339
1 340
1 341
1 342
1 343
1 344
1 345
1 346
1 347
1 348
1 349
1 350
1 351
1 352
1 353
1 354
1 355
1 356
1 357
1 358
1 359
1 360
1 361
1 362
1 363
1 364
1 365
1 366
1 367
1 368
1 369
1 370
1 371
1 372
1 373
1 374
1 375
1 376
1 377
1 378
1 379
1 380
1 381
1 382
1 383
1 384
1 385
1 386
1 387
1 388
1 389
1 390
1 391
1 392
1 393
1 394
1 395
1 396
1 397
1 398
1 399
1 400
1 401
1 402
1 403
1 404
1 405
1 406
1 407
1 408
1 409
1 410
1 411
1 412
1 413
1 414
1 415
1 416
1 417
1 418
1 419
1 420
1 421
1 422
1 423
1 424
1 425
1 426
1 427
1 428
1 429
1 430
1 431
1 432
1 433
1 434
1 435
1 436
1 437
1 438
1 439
1 440
1 441
1 442
1 443
1 444
1 445
1 446
1 447
1 448
1 449
1 450
1 451
1 452
1 453
1 454
1 455
1 456
1 457
1 458
1 459
1 460
1 461
1 462
1 463
1 464
1 465
1 466
1 467
1 468
1 469
1 470
1 471
1 472
1 473
1 474
1 475
1 476
1 477
1 478
1 479
1 480
1 481
1 482
1 483
1 484
1 485
1 486
1 487
1 488
1 489
1 490
1 491
1 492
1 493
1 494
1 495
1 496
1 497
1 498
1 499
1 500
1 501
1 502
1 503
1 504
1 505
1 506
1 507
1 508
1 509
1 510
1 511
1 512
1 513
1 514
1 515
1 516
1 517
1 518
1 519
1 520
1 521
1 522
1 523
1 524
1 525
1 526
1 527
1 528
1 529
1 530
1 531
1 532
1 533
1 534
1 535
1 536
1 537
1 538
1 539
1 540
1 541
1 542
1 543
1 544
1 545
1 546
1 547
1 548
1 549
1 550
1 551
1 552
1 553
1 554
1 555
1 556
1 557
1 558
1 559
1 560
1 561
1 562
1 563
1 564
1 565
1 566
1 567
1 568
1 569
1 570
1 571
1 572
1 573
1 574
1 575
1 576
1 577
1 578
1 579
1 580
1 581
1 582
1 583
1 584
1 585
1 586
1 587
1 588
1 589
1 590
1 591
1 592
1 593
1 594
1 595
1 596
1 597
1 598
1 599
1 600
1 601
1 602
1 603
1 604
1 605
1 606
1 607
1 608
1 609
1 610
1 611
1 612
1 613
1 614
1 615
1 616
1 617
1 618
1 619
1 620
1 621
1 622
1 623
1 624
1 625
1 626
1 627
1 628
1 629
1 630
1 631
1 632
1 633
1 634
1 635
1 636
1 637
1 638
1 639
1 640
1 641
1 642
1 643
1 644
1 645
1 646
1 647
1 648
1 649
1 650
1 651
1 652
1 653
1 654
1 655
1 656
1 657
1 658
1 659
1 660
1 661
1 662
1 663
1 664
1 665
1 666
1 667
1 668
1 669
1 670
1 671
1 672
1 673
1 674
1 675
1 676
1 677
1 678
1 679
1 680
1 681
1 682
1 683
1 684
1 685
1 686
1 687
1 688
1 689
1 690
1 691
1 692
1 693
1 694
1 695
1 696
1 697
1 698
1 699
1 700
1 701
1 702
1 703
1 704
1 705
1 706
1 707
1 708
1 709
1 710
1 711
1 712
1 713
1 714
1 715
1 716
1 717
1 718
1 719
1 720
1 721
1 722
1 723
1 724
1 725
1 726
1 727
1 728
1 729
1 730
1 731
1 732
1 733
1 734
1 735
1 736
1 737
1 738
1 739
1 740
1 741
1 742
1 743
1 744
1 745
1 746
1 747
1 748
1 749
1 750
1 751
1 752
1 753
1 754
1 755
1 756
1 757
1 758
1 759
1 760
1 761
1 762
1 763
1 764
1 765
1 766
1 767
1 768
1 769
1 770
1 771
1 772
1 773
1 774
1 775
1 776
1 777
1 778
1 779
1 780
1 781
1 782
1 783
1 784
1 785
1 786
1 787
1 788
1 789
1 790
1 791
1 792
1 793
1 794
1 795
1 796
1 797
1 798
1 799
1 800
1 801
1 802
1 803
1 804
1 805
1 806
1 807
1 808
1 809
1 810
1 811
1 812
1 813
1 814
1 815
1 816
1 817
1 818
1 819
1 820
1 821
1 822
1 823
1 824
1 825
1 826
1 827
1 828
1 829
1 830
1 831
1 832
1 833
1 834
1 835
1 836
1 837
1 838
1 839
1 840
1 841
1 842
1 843
1 844
1 845
1 846
1 847
1 848
1 849
1 850
1 851
1 852
1 853
1 854
1 855
1 856
1 857
1 858
1 859
1 860
1 861
1 862
1 863
1 864
1 865
1 866
1 867
1 868
1 869
1 870
1 871
1 872
1 873
1 874
1 875
1 876
1 877
1 878
1 879
1 880
1 881
1 882
1 883
1 884
1 885
1 886
1 887
1 888
1 889
1 890
1 891
1 892
1 893
1 894
1 895
1 896
1 897
1 898
1 899
1 900
1 901
1 902
1 903
1 904
1 905
1 906
1 907
1 908
1 909
1 910
1 911
1 912
1 913
1 914
1 915
1 916
1 917
1 918
1 919
1 920
1 921
1 922
1 923
1 924
1 925
1 926
1 927
1 928
1 929
1 930
1 931
1 932
1 933
1 934
1 935
1 936
1 937
1 938
1 939
1 940
1 941
1 942
1 943
1 944
1 945
1 946
1 947
1 948
1 949
1 950
1 951
1 952
1 953
1 954
1 955
1 956
1 957
1 958
1 959
1 960
1 961
1 962
1 963
1 964
1 965
1 966
1 967
1 968
1 969
1 970
1 971
1 972
1 973
1 974
1 975
1 976
1 977
1 978
1 979
1 980
1 981
1 982
1 983
1 984
1 985
1 986
1 987
1 988
1 989
1 990
1 991
1 992
1 993
1 994
1 995
1 996
1 997
1 998
1 999
1 1000
1 1001
1 1002
1 1003
1 1004
1 1005
1 1006
1 1007
1 1008
1 1009
1 1010
1 1011
1 1012
1 1013
1 1014
1 1015
1 1016
1 1017
1 1018
1 1019
1 1020
1 1021
1 1022
1 1023
1 1024
1 1025
1 1026
1 1027
1 1028
1 1029
1 1030
1 1031
1 1032
1 1033
1 1034
1 1035
1 1036
1 1037
1 1038
1 1039
1 1040
1 1041
1 1042
1 1043
1 1044
1 1045
1 1046
1 1047
1 1048
1 1049
1 1050
1 1051
1 1052
1 1053
1 1054
1 1055
1 1056
1 1057
1 1058
1 1059
1 1060
1 1061
1 1062
1 1063
1 1064
1 1065
1 1066
1 1067
1 1068
1 1069
1 1070
1 1071
1 1072
1 1073
1 1074
1 1075
1 1076
1 1077
1 1078
1 1079
1 1080
1 1081
1 1082
1 1083
1 1084
1 1085
1 1086
1 1087
1 1088
1 1089
1 1090
1 1091
1 1092
1 1093
1 1094
1 1095
1 1096
1 1097
1 1098
1 1099
1 1100
1 1101
1 1102
1 1103
1 1104
1 1105
1 1106
1 1107
1 1108
1 1109
1 1110
1 1111
1 1112
1 1113
1 1114
1 1115
1 1116
1 1117
1 1118
1 1119
1 1120
1 1121
1 1122
1 1123
1 1124
1 1125
1 1126
1 1127
1 1128
1 1129
1 1130
1 1131
1 1132
1 1133
1 1134
1 1135
1 1136
1 1137
1 1138
1 1139
1 1140
1 1141
1 1142
1 1143
1 1144
1 1145
1 1146
1 1147
1 1148
1 1149
1 1150
1 1151
1 1152
1 1153
1 1154
1 1155
1 1156
1 1157
1 1158
1 1159
1 1160
1 1161
1 1162
1 1163
1 1164
1 1165
1 1166
1 1167
1 1168
1 1169
1 1170
1 1171
1 1172
1 1173
1 1174
1 1175
1 1176
1 1177
1 1178
1 1179
1 1180
1 1181
1 1182
1 1183
1 1184
1 1185
1 1186
1 1187
1 1188
1 1189
1 1190
1 1191
1 1192
1 1193
1 1194
1 1195
1 1196
1 1197
1 1198
1 1199
1 1200
1 1201
1 1202
1 1203
1 1204
1 1205
1 1206
1 1207
1 1208
1 1209
1 1210
1 1211
1 1212
1 1213
1 1214
1 1215
1 1216
1 1217
1 1218
1 1219
1 1220
1 1221
1 1222
1 1223
1 1224
1 1225
1 1226
1 1227
1 1228
1 1229
1 1230
1 1231
1 1232
1 1233
1 1234
1 1235
1 1236
1 1237
1 1238
1 1239
1 1240
1 1241
1 1242
1 1243
1 1244
1 1245
1 1246
1 1247
1 1248
1 1249
1 1250
1 1251
1 1252
1 1253
1 1254
1 1255
1 1256
1 1257
1 1258
1 1259
1 1260
1 1261
1 1262
1 1263
1 1264
1 1265
1 1266
1 1267
1 1268
1 1269
1 1270
1 1271
1 1272
1 1273
1 1274
1 1275
1 1276
1 1277
1 1278
1 1279
1 1280
1 1281
1 1282
1 1283
1 1284
1 1285
1 1286
1 1287
1 1288
1 1289
1 1290
1 1291
1 1292
1 1293
1 1294
1 1295
1 1296
1 1297
1 1298
1 1299
1 1300
1 1301
1 1302
1 1303
1 1304
1 1305
1 1306
1 1307
1 1308
1 1309
1 1310
1 1311
1 1312
1 1313
1 1314
1 1315
1 1316
1 1317
1 1318
1 1319
1 1320
1 1321
1 1322
1 1323
1 1324
1 1325
1 1326
1 1327
1 1328
1 1329
1 1330
1 1331
1 1332
1 1333
1 1334
1 1335
1 1336
1 1337
1 1338
1 1339
1 1340
1 1341
1 1342
1 1343
1 1344
1 1345

CELL_TYPES 1346
1
1
1
1
1
1
1
1
1
1
1
1
1
1
1
1
1
1
1
1
1
1
1
1
1
1
1
1
1
1
1
1
1
1
1
1
1
1
1
1
1
1
1
1
1
1
1
1
1
1
1
1
1
1
1
1
1
1
1
1
1
1
1
1
1
1
1
1
1
1
1
1
1
1
1
1
1
1
1
1
1
1
1
1
1
1
1
1
1
1
1
1
1
1
1
1
1
1
1
1
1
1
1
1
1
1
1
1
1
1
1
1
1
1
1
1
1
1
1
1
1
1
1
1
1
1
1
1
1
1
1
1
1
1
1
1
1
1
1
1
1
1
1
1
1
1
1
1
1
1
1
1
1
1
1
1
1
1
1
1
1
1
1
1
1
1
1
1
1
1
1
1
1
1
1
1
1
1
1
1
1
1
1
1
1
1
1
1
1
1
1
1
1
1
1
1
1
1
1
1
1
1
1
1
1
1
1
1
1
1
1
1
1
1
1
1
1
1
1
1
1
1
1
1
1
1
1
1
1
1
1
1
1
1
1
1
1
1
1
1
1
1
1
1
1
1
1
1
1
1
1
1
1
1
1
1
1
1
1
1
1
1
1
1
1
1
1
1
1
1
1
1
1
1
1
1
1
1
1
1
1
1
1
1
1
1
1
1
1
1
1
1
1
1
1
1
1
1
1
1
1
1
1
1
1
1
1
1
1
1
1
1
1
1
1
1
1
1
1
1
1
1
1
1
1
1
1
1
1
1
1
1
1
1
1
1
1
1
1
1
1
1
1
1
1
1
1
1
1
1
1
1
1
1
1
1
1
1
1
1
1
1
1
1
1
1
1
1
1
1
1
1
1
1
1
1
1
1
1
1
1
1
1
1
1
1
1
1
1
1
1
1
1
1
1
1
1
1
1
1
1
1
1
1
1
1
1
1
1
1
1
1
1
1
1
1
1
1
1
1
1
1
1
1
1
1
1
1
1
1
1
1
1
1
1
1
1
1
1
1
1
1
1
1
1
1
1
1
1
1
1
1
1
1
1
1
1
1
1
1
1
1
1
1
1
1
1
1
1
1
1
1
1
1
1
1
1
1
1
1
1
1
1
1
1
1
1
1
1
1
1
1
1
1
1
1
1
1
1
1
1
1
1
1
1
1
1
1
1
1
1
1
1
1
1
1
1
1
1
1
1
1
1
1
1
1
1
1
1
1
1
1
1
1
1
1
1
1
1
1
1
1
1
1
1
1
1
1
1
1
1
1
1
1
1
1
1
1
1
1
1
1
1
1
1
1
1
1
1
1
1
1
1
1
1
1
1
1
1
1
1
1
1
1
1
1
1
1
1
1
1
1
1
1
1
1
1
1
1
1
1
1
1
1
1
1
1
1
1
1
1
1
1
1
1
1
1
1
1
1
1
1
1
1
1
1
1
1
1
1
1
1
1
1
1
1
1
1
1
1
1
1
1
1
1
1
1
1
1
1
1
1
1
1
1
1
1
1
1
1
1
1
1
1
1
1
1
1
1
1
1
1
1
1
1
1
1
1
1
1
1
1
1
1
1
1
1
1
1
1
1
1
1
1
1
1
1
1
1
1
1
1
1
1
1
1
1
1
1
1
1
1
1
1
1
1
1
1
1
1
1
1
1
1
1
1
1
1
1
1
1
1
1
1
1
1
1
1
1
1
1
1
1
1
1
1
1
1
1
1
1
1
1
1
1
1
1
1
1
1
1
1
1
1
1
1
1
1
1
1
1
1
1
1
1
1
1
1
1
1
1
1
1
1
1
1
1
1
1
1
1
1
1
1
1
1
1
1
1
1
1
1
1
1
1
1
1
1
1
1
1
1
1
1
1
1
1
1
1
1
1
1
1
1
1
1
1
1
1
1
1
1
1
1
1
1
1
1
1
1
1
1
1
1
1
1
1
1
1
1
1
1
1
1
1
1
1
1
1
1
1
1
1
1
1
1
1
1
1
1
1
1
1
1
1
1
1
1
1
1
1
1
1
1
1
1
1
1
1
1
1
1
1
1
1
1
1
1
1
1
1
1
1
1
1
1
1
1
1
1
1
1
1
1
1
1
1
1
1
1
1
1
1
1
1
1
1
1
1
1
1
1
1
1
1
1
1
1
1
1
1
1
1
1
1
1
1
1
1
1
1
1
1
1
1
1
1
1
1
1
1
1
1
1
1
1
1
1
1
1
1
1
1
1
1
1
1
1
1
1
1
1
1
1
1
1
1
1
1
1
1
1
1
1
1
1
1
1
1
1
1
1
1
1
1
1
1
1
1
1
1
1
1
1
1
1
1
1
1
1
1
1
1
1
1
1
1
1
1
1
1
1
1
1
1
1
1
1
1
1
1
1
1
1
1
1
1
1
1
1
1
1
1
1
1
1
1
1
1
1
1
1
1
1
1
1
1
1
1
1
1
1
1
1
1
1
1
1
1
1
1
1
1
1
1
1
1
1
1
1
1
1
1
1
1
1
1
1
1
1
1
1
1
1
1
1
1
1
1
1
1
1
1
1
1
1
1
1
1
1
1
1
1
1
1
1
1
1
1
1
1
1
1
1
1
1
1
1
1
1
1
1
1
1
1
1
1
1
1
1
1
1
1
1
1
1
1
1
1
1
1
1
1
1
1
1
1
1
1
1
1
1
1
1
1
1
1
1
1
1
1
1
1
1
1
1
1
1
1
1
1
1
1
1
1
1
1
1
1
1
1
1
1
1
1
1
1
1
1
1
1
1
1
1
1
1
1
1
1
1
1
1
1
1
1
1
1
1
1
1
1
1
1
1
1
1
1
1
1
1
1
1
1
1
1
1
1
1
1
1
1
1
1
1
1
1
1
1
1
1
1
1
1
1
1
1
1
1
1
1
1
1
1
1
1
1
1
1
1
1
1
1
1
1
1
1
1
1
1
1
1
1
1
1
1
1
1
1
1
1
1
1
1
1
1
1
1
1
1
1
1
1
1
1
1
1
1
1
1
1
1
1
1
1
1
1
1
1
1
1
1
1
1
1
1
1
1
1
1
1
1
1
1
1
1
1

POINT_DATA 1346
SCALARS Vorticity float 1
LOOKUP_TABLE default
4.119120e-08
4.819904e-08
4.428986e-08
-4.354550e-08
-4.826529e-08
-4.222954e-08
4.130273e-08
5.777712e-08
5.682022e-08
4.197834e-08
-4.042048e-08
-5.591659e-08
-5.844866e-08
-4.320423e-08
5.433399e-08
6.885653e-08
5.744968e-08
-5.556291e-08
-6.884481e-08
-5.649979e-08
6.325005e-08
7.615867e-08
5.590190e-08
-5.326959e-08
-7.553098e-08
-6.567041e-08
6.716748e-08
8.246311e-08
5.672371e-08
-5.352504e-08
-8.160158e-08
-7.009066e-08
6.473926e-08
8.868146e-08
6.237783e-08
-5.872001e-08
-8.824080e-08
-6.843252e-08
5.439288e-08
9.232094e-08
7.385842e-08
-7.000899e-08
-9.322783e-08
-5.877066e-08
3.705129e-08
8.729638e-08
8.950302e-08
4.171126e-08
-3.764663e-08
-8.634358e-08
-9.038523e-08
-4.132220e-08
6.811100e-08
1.014339e-07
6.335074e-08
-5.841471e-08
-1.007240e-07
-7.307349e-08
3.885019e-08
9.517543e-08
9.124688e-08
3.527466e-08
-8.703148e-08
-9.839908e-08
-4.364263e-08
6.401511e-08
1.073782e-07
6.801775e-08
-6.245264e-08
-1.072307e-07
-6.966265e-08
8.736578e-08
1.037594e-07
4.493830e-08
-3.984090e-08
-1.003744e-07
-9.236666e-08
4.128341e-08
1.037038e-07
9.082498e-08
-8.542892e-08
-1.068895e-07
-4.667413e-08
5.618854e-08
1.119215e-07
7.581547e-08
-6.963754e-08
-1.129173e-07
-6.230658e-08
6.875501e-08
1.141039e-07
6.310961e-08
-5.688816e-08
-1.131944e-07
-7.509075e-08
7.765715e-08
1.133286e-07
5.431680e-08
-4.831605e-08
-1.110968e-07
-8.391077e-08
8.250986e-08
1.121073e-07
4.961393e-08
-4.380758e-08
-1.091760e-07
-8.862671e-08
8.334529e-08
1.118366e-07
4.880848e-08
-4.304098e-08
-1.087875e-07
-8.943197e-08
8.018513e-08
1.127562e-07
5.184850e-08
-4.594403e-08
-1.101579e-07
-8.637591e-08
7.297667e-08
1.139673e-07
5.890140e-08
-5.276330e-08
-1.124267e-07
-7.929990e-08
6.186347e-08
1.133933e-07
7.004197e-08
-6.378866e-08
-1.135296e-07
-6.812749e-08
4.771187e-08
1.080816e-07
8.443247e-08
-7.858212e-08
-1.103464e-07
-5.347901e-08
9.525929e-08
9.899226e-08
3.698190e-08
-9.459204e-08
-9.959652e-08
-3.719710e-08
7.444251e-08
1.075061e-07
5.775779e-08
-5.222810e-08
-1.058874e-07
-8.000172e-08
4.920422e-08
1.024259e-07
8.218693e-08
-7.711967e-08
-1.043268e-07
-5.452276e-08
8.078872e-08
9.970606e-08
5.075760e-08
-4.594106e-08
-9.732252e-08
-8.531534e-08
4.968633e-08
9.635355e-08
8.007938e-08
-7.578890e-08
-9.801055e-08
-5.450495e-08
6.932233e-08
9.513381e-08
6.062393e-08
-5.629382e-08
-9.423584e-08
-7.356912e-08
7.913194e-08
8.651066e-08
4.793042e-08
-4.416120e-08
-8.434639e-08
-8.205676e-08
-3.851482e-08
4.301891e-08
8.021230e-08
7.805396e-08
4.212551e-08
-3.889945e-08
-7.564267e-08
-8.205413e-08
-4.668325e-08
4.510490e-08
7.588485e-08
7.240964e-08
4.185574e-08
-3.905039e-08
-7.034725e-08
-7.723214e-08
-4.835473e-08
4.124024e-08
6.790074e-08
6.864418e-08
4.559873e-08
-4.323230e-08
-6.728404e-08
-6.923410e-08
-4.399372e-08
5.608302e-08
6.339579e-08
5.049987e-08
-4.880083e-08
-6.295873e-08
-5.758418e-08
-3.492477e-08
4.027298e-08
5.237320e-08
5.073798e-08
3.898013e-08
-3.775076e-08
-4.999610e-08
-5.279140e-08
-4.176070e-08
4.008375e-08
3.808388e-08
-3.761188e-08
-4.019689e-08
-3.524302e-08
3.876669e-08
3.691095e-08
-3.796431e-08
-3.813612e-08
3.780189e-08
3.824893e-08
-3.646901e-08
-3.887867e-08
4.012750e-08
5.149729e-08
4.968740e-08
3.833678e-08
-4.163679e-08
-5.132232e-08
-4.981697e-08
-3.579243e-08
4.902744e-08
5.172577e-08
4.274379e-08
-3.715641e-08
-4.896550e-08
-5.187777e-08
-4.154673e-08
5.626505e-08
6.239275e-08
4.930010e-08
-5.378146e-08
-6.293273e-08
-5.158649e-08
4.973983e-08
6.279537e-08
5.520845e-08
3.619895e-08
-4.763298e-08
-6.189208e-08
-5.764722e-08
-3.599602e-08
4.318200e-08
6.828890e-08
6.711547e-08
4.387954e-08
-5.050490e-08
-7.023059e-08
-6.383713e-08
-3.547113e-08
6.190242e-08
7.090977e-08
5.277420e-08
-4.156929e-08
-6.566103e-08
-6.942790e-08
-4.588220e-08
4.798421e-08
7.657477e-08
7.017053e-08
3.946644e-08
-4.752873e-08
-7.528586e-08
-7.194013e-08
-3.885878e-08
3.576822e-08
6.980123e-08
7.658794e-08
5.039540e-08
-3.675923e-08
-6.797239e-08
-7.762053e-08
-5.118241e-08
4.684437e-08
8.167494e-08
7.521556e-08
3.892912e-08
-4.827588e-08
-8.125094e-08
-7.562498e-08
-3.664838e-08
7.291672e-08
8.275267e-08
5.164321e-08
-3.584041e-08
-7.259188e-08
-8.310881e-08
-5.051422e-08
3.920563e-08
8.215837e-08
8.363845e-08
4.369947e-08
-5.454556e-08
-8.884533e-08
-7.320328e-08
6.955667e-08
8.983370e-08
5.840015e-08
-4.008318e-08
-8.109014e-08
-8.462599e-08
-4.309780e-08
7.446380e-08
9.355989e-08
5.521995e-08
-6.744394e-08
-9.504063e-08
-6.214125e-08
5.764607e-08
9.448922e-08
7.156340e-08
-5.096280e-08
-9.201322e-08
-7.838267e-08
5.619475e-08
9.812419e-08
7.415749e-08
-3.562321e-08
-8.584677e-08
-9.246902e-08
-4.268959e-08
3.828299e-08
8.945052e-08
8.928346e-08
3.967523e-08
-6.964475e-08
-9.894679e-08
-6.106091e-08
8.696753e-08
9.590318e-08
4.404702e-08
-5.797361e-08
-1.017422e-07
-7.369991e-08
6.862980e-08
1.025212e-07
6.302063e-08
-3.952672e-08
-9.273584e-08
-9.091161e-08
-3.599147e-08
5.724555e-08
1.047674e-07
7.447162e-08
-8.850149e-08
-9.851843e-08
-4.231738e-08
3.753893e-08
9.508421e-08
9.272979e-08
3.579263e-08
-6.917227e-08
-1.055551e-07
-6.270795e-08
8.296802e-08
1.044509e-07
4.925057e-08
-6.509608e-08
-1.082103e-07
-6.700805e-08
6.127613e-08
1.079727e-07
7.074472e-08
-4.405247e-08
-1.016835e-07
-8.808067e-08
4.039806e-08
1.018790e-07
9.147017e-08
-4.325124e-08
-1.034482e-07
-8.910126e-08
8.373900e-08
1.063759e-07
4.859286e-08
-8.631781e-08
-1.051448e-07
-4.565451e-08
5.759794e-08
1.112732e-07
7.442112e-08
-9.086513e-08
-1.042841e-07
-4.133511e-08
3.623619e-08
1.003619e-07
9.591583e-08
-6.834594e-08
-1.120547e-07
-6.365884e-08
7.281179e-08
1.129122e-07
5.918094e-08
-7.698578e-08
-1.120382e-07
-5.501564e-08
4.909179e-08
1.099579e-07
8.305673e-08
-5.313612e-08
-1.114256e-07
-7.901091e-08
8.423808e-08
1.104542e-07
4.802599e-08
-6.559340e-08
-1.144898e-07
-6.621200e-08
5.988732e-08
1.140604e-07
7.195777e-08
-4.237928e-08
-1.073156e-07
-9.014085e-08
9.143661e-08
1.072056e-07
4.114590e-08
-5.805635e-08
-1.144052e-07
-7.377069e-08
6.732753e-08
1.151214e-07
6.440465e-08
-3.589034e-08
-1.030883e-07
-9.693983e-08
9.466281e-08
1.052713e-07
3.808522e-08
-5.457334e-08
-1.138995e-07
-7.733058e-08
7.087700e-08
1.151559e-07
6.086201e-08
-1.007348e-07
-9.992097e-08
9.421795e-08
1.055589e-07
3.850816e-08
-5.506084e-08
-1.139919e-07
-7.683494e-08
7.038009e-08
1.151718e-07
6.135949e-08
-1.010797e-07
-9.951290e-08
9.005283e-08
1.079446e-07
4.246560e-08
-5.953566e-08
-1.145365e-07
-7.228726e-08
6.585499e-08
1.150239e-07
6.589876e-08
-3.712704e-08
-1.040129e-07
-9.564946e-08
8.182478e-08
1.112438e-07
5.036176e-08
-6.806594e-08
-1.142309e-07
-6.376833e-08
5.750827e-08
1.134329e-07
7.440004e-08
-4.460845e-08
-1.084485e-07
-8.782546e-08
6.937076e-08
1.130369e-07
6.259134e-08
-8.026729e-08
-1.107304e-07
-5.181803e-08
4.605440e-08
1.081953e-07
8.617350e-08
-5.648630e-08
-1.120572e-07
-7.558978e-08
5.344438e-08
1.097987e-07
7.860810e-08
-9.428693e-08
-1.012678e-07
-3.780347e-08
9.692757e-08
9.893183e-08
3.546462e-08
-7.264787e-08
-1.112013e-07
-5.937361e-08
3.619328e-08
9.809185e-08
9.534804e-08
-4.811437e-08
-1.056312e-07
-8.420160e-08
7.862822e-08
1.078535e-07
5.363449e-08
-9.064057e-08
-1.019113e-07
-4.115070e-08
7.705176e-08
1.060246e-07
5.513551e-08
-7.104919e-08
-1.073407e-07
-6.093769e-08
5.532349e-08
1.062584e-07
7.654129e-08
-4.976282e-08
-1.040686e-07
-8.241179e-08
5.063907e-08
1.020832e-07
8.065280e-08
-3.723152e-08
-9.326586e-08
-9.362708e-08
-3.658914e-08
8.958736e-08
9.680390e-08
4.180308e-08
-7.564540e-08
-1.037668e-07
-5.592355e-08
8.013430e-08
9.878176e-08
5.121452e-08
-6.533391e-08
-1.018279e-07
-6.613647e-08
6.102599e-08
1.015941e-07
7.026013e-08
-4.647024e-08
-9.649690e-08
-8.455772e-08
4.823189e-08
9.450549e-08
8.088252e-08
-4.292326e-08
-9.068346e-08
-8.645640e-08
-3.564392e-08
8.278172e-08
9.327735e-08
4.724040e-08
-7.682131e-08
-9.630245e-08
-5.292145e-08
6.595250e-08
9.396700e-08
6.344427e-08
-7.486334e-08
-9.242336e-08
-5.340652e-08
4.902956e-08
9.086995e-08
7.849739e-08
-5.927033e-08
-9.347207e-08
-7.016601e-08
7.466848e-08
8.684240e-08
5.223496e-08
-6.289774e-08
-8.915927e-08
-6.442603e-08
6.054148e-08
8.909794e-08
6.651128e-08
-4.852275e-08
-8.521157e-08
-7.778831e-08
-3.491634e-08
3.789914e-08
7.530474e-08
7.952996e-08
4.747746e-08
-5.678188e-08
-8.297072e-08
-6.744297e-08
6.428315e-08
8.348468e-08
5.998409e-08
-4.426968e-08
-7.770112e-08
-7.753004e-08
-4.133080e-08
3.866277e-08
7.041604e-08
7.398314e-08
4.787441e-08
-5.564981e-08
-7.668025e-08
-6.397730e-08
6.135729e-08
7.707587e-08
5.828298e-08
-4.514565e-08
-7.253953e-08
-7.222362e-08
-4.171058e-08
6.129696e-08
6.876592e-08
5.137055e-08
-5.718868e-08
-6.960444e-08
-5.544325e-08
5.315171e-08
6.946682e-08
5.906550e-08
3.504831e-08
-4.923520e-08
-6.806264e-08
-6.303752e-08
-3.656430e-08
4.805246e-08
6.034912e-08
5.391731e-08
3.664776e-08
-4.125923e-08
-5.705302e-08
-5.901187e-08
-4.270193e-08
4.072662e-08
5.824643e-08
5.794489e-08
4.286420e-08
-3.505397e-08
-5.264805e-08
-6.051742e-08
-4.977244e-08
4.561163e-08
4.910293e-08
4.201801e-08
-4.449722e-08
-4.937014e-08
-4.289459e-08
4.179919e-08
4.928856e-08
4.527506e-08
-4.107912e-08
-4.884027e-08
-4.639911e-08
-3.506280e-08
3.506501e-08
4.313156e-08
4.824889e-08
4.280974e-08
-4.493878e-08
-4.805815e-08
-4.016582e-08
3.900477e-08
4.781964e-08
4.558231e-08
3.579700e-08
-4.198023e-08
-4.814797e-08
-4.402648e-08
4.492862e-08
5.894786e-08
5.498126e-08
3.896367e-08
-4.341969e-08
-5.756322e-08
-5.701696e-08
-3.949252e-08
3.751940e-08
5.606327e-08
5.824437e-08
4.494569e-08
-3.740188e-08
-5.388636e-08
-5.933701e-08
-4.671552e-08
5.840264e-08
6.864010e-08
5.373424e-08
-3.574625e-08
-5.912445e-08
-6.866942e-08
-5.221797e-08
4.985884e-08
6.825513e-08
6.081584e-08
3.781199e-08
-5.171144e-08
-6.821645e-08
-6.030437e-08
3.550570e-08
6.775637e-08
7.470029e-08
5.078263e-08
-5.830113e-08
-7.648568e-08
-6.083493e-08
5.810447e-08
7.655513e-08
6.079618e-08
-4.809687e-08
-7.355562e-08
-6.978712e-08
-3.845827e-08
3.489250e-08
7.261174e-08
8.048763e-08
5.052983e-08
-5.966518e-08
-8.294241e-08
-6.426941e-08
6.100948e-08
8.310165e-08
6.275117e-08
-4.732958e-08
-7.897677e-08
-7.506685e-08
-3.820293e-08
7.171074e-08
8.743336e-08
5.527527e-08
-6.571782e-08
-8.868658e-08
-6.117272e-08
5.725907e-08
8.825886e-08
6.918903e-08
-5.157655e-08
-8.615549e-08
-7.500707e-08
6.282319e-08
9.359809e-08
6.628470e-08
-7.726397e-08
-9.101083e-08
-5.032926e-08
4.603427e-08
8.912888e-08
8.067418e-08
3.594532e-08
-6.219121e-08
-9.348164e-08
-6.708938e-08
4.546905e-08
9.283070e-08
8.304882e-08
-4.566143e-08
-9.205043e-08
-8.402980e-08
8.016608e-08
9.431221e-08
5.004245e-08
-7.919573e-08
-9.494811e-08
-5.006241e-08
7.754239e-08
9.947666e-08
5.385365e-08
-6.793764e-08
-1.014911e-07
-6.339429e-08
5.830529e-08
1.009007e-07
7.278043e-08
-4.905734e-08
-9.752931e-08
-8.209667e-08
4.832034e-08
1.008512e-07
8.276105e-08
-3.939753e-08
-9.476448e-08
-9.167064e-08
8.744603e-08
9.802815e-08
4.407224e-08
-7.789247e-08
-1.028407e-07
-5.351853e-08
7.486274e-08
1.063714e-07
5.730262e-08
-7.316931e-08
-1.067991e-07
-5.875857e-08
5.320777e-08
1.054236e-07
7.857987e-08
-5.188664e-08
-1.047130e-07
-8.028530e-08
9.660518e-08
9.664938e-08
3.537166e-08
-4.993266e-08
-1.062741e-07
-8.236381e-08
7.673496e-08
1.082345e-07
5.550510e-08
-9.212018e-08
-1.006061e-07
-3.956621e-08
5.195093e-08
1.091567e-07
8.011541e-08
-9.547355e-08
-1.000858e-07
-3.655232e-08
9.560743e-08
9.995760e-08
3.679986e-08
-7.420897e-08
-1.107769e-07
-5.782104e-08
6.809858e-08
1.130146e-07
6.386317e-08
-8.146373e-08
-1.101800e-07
-5.064835e-08
4.495005e-08
1.074857e-07
8.730248e-08
-5.774110e-08
-1.122219e-07
-7.431511e-08
8.090495e-08
1.115076e-07
5.125596e-08
-6.899813e-08
-1.140923e-07
-6.285330e-08
5.662166e-08
1.131600e-07
7.531847e-08
-4.546410e-08
-1.088421e-07
-8.693623e-08
8.950263e-08
1.082235e-07
4.299121e-08
-6.011831e-08
-1.145693e-07
-7.169736e-08
6.527258e-08
1.149687e-07
6.648673e-08
-3.762005e-08
-1.043643e-07
-9.513258e-08
9.400711e-08
1.056940e-07
3.870932e-08
-5.529002e-08
-1.140296e-07
-7.659750e-08
7.014246e-08
1.151733e-07
6.159302e-08
-1.012390e-07
-9.931631e-08
9.476791e-08
1.052025e-07
3.798531e-08
-5.445771e-08
-1.138763e-07
-7.744762e-08
7.099304e-08
1.151486e-07
6.074275e-08
-1.006493e-07
-1.000141e-07
9.186347e-08
1.069614e-07
4.073245e-08
-5.759066e-08
-1.143535e-07
-7.424343e-08
6.779628e-08
1.151403e-07
6.393232e-08
-3.550350e-08
-1.027855e-07
-9.734041e-08
8.503293e-08
1.101655e-07
4.725867e-08
-6.477195e-08
-1.145497e-07
-6.702582e-08
6.068314e-08
1.142396e-07
7.114367e-08
-4.165023e-08
-1.069101e-07
-9.090041e-08
7.397665e-08
1.128087e-07
5.803054e-08
-7.585586e-08
-1.124234e-07
-5.612185e-08
5.014896e-08
1.105061e-07
8.198438e-08
-5.201251e-08
-1.111441e-07
-8.016222e-08
5.904366e-08
1.116808e-07
7.296497e-08
-8.962480e-08
-1.052392e-07
-4.258252e-08
3.739513e-08
1.014760e-07
9.481329e-08
-6.686124e-08
-1.122436e-07
-6.514027e-08
4.190904e-08
1.030808e-07
9.003363e-08
-4.161454e-08
-1.025539e-07
-9.073719e-08
8.546790e-08
1.057168e-07
4.688253e-08
-8.474507e-08
-1.061386e-07
-4.726216e-08
8.496837e-08
1.036970e-07
4.724454e-08
-6.301130e-08
-1.082987e-07
-6.912882e-08
6.337514e-08
1.083600e-07
6.868724e-08
-4.212424e-08
-1.006605e-07
-8.996895e-08
5.959751e-08
1.054417e-07
7.222059e-08
-8.665502e-08
-1.000270e-07
-4.441588e-08
3.950888e-08
9.683009e-08
9.109340e-08
-6.685327e-08
-1.059042e-07
-6.510323e-08
8.920155e-08
9.457795e-08
4.161894e-08
-5.538715e-08
-1.013584e-07
-7.630135e-08
7.127930e-08
1.024902e-07
6.043976e-08
-3.720196e-08
-9.112639e-08
-9.293945e-08
-3.815865e-08
5.905812e-08
9.900469e-08
7.160141e-08
-8.383038e-08
-9.428134e-08
-4.530218e-08
4.076194e-08
9.153459e-08
8.752854e-08
3.713371e-08
-6.697034e-08
-9.946422e-08
-6.395205e-08
7.732690e-08
9.291777e-08
5.228099e-08
-6.464134e-08
-9.547397e-08
-6.522328e-08
6.072937e-08
9.529724e-08
6.888407e-08
-4.804255e-08
-9.101243e-08
-8.108886e-08
4.214230e-08
8.445615e-08
8.199736e-08
4.074419e-08
-5.151354e-08
-8.816560e-08
-7.611586e-08
7.261104e-08
8.952164e-08
5.539962e-08
-3.720480e-08
-7.915813e-08
-8.664410e-08
-4.615083e-08
5.013810e-08
8.343963e-08
7.317407e-08
3.598836e-08
-4.521072e-08
-8.004156e-08
-7.818279e-08
-3.967076e-08
3.617768e-08
7.569441e-08
8.186655e-08
4.858286e-08
-7.031350e-08
-8.455194e-08
-5.385300e-08
5.137540e-08
7.820812e-08
6.824579e-08
3.650200e-08
-4.451986e-08
-7.413095e-08
-7.435978e-08
-4.209108e-08
3.889920e-08
7.245069e-08
7.573885e-08
4.741388e-08
-6.582013e-08
-7.894191e-08
-5.458139e-08
4.655126e-08
7.026792e-08
6.585396e-08
4.104181e-08
-4.780723e-08
-6.973636e-08
-6.645888e-08
-3.868043e-08
3.596583e-08
6.470937e-08
7.070418e-08
5.016468e-08
-3.871782e-08
-6.415745e-08
-7.113947e-08
-4.926213e-08
3.699719e-08
5.885204e-08
6.240726e-08
4.718051e-08
-5.203615e-08
-6.365298e-08
-5.456571e-08
5.281833e-08
6.376247e-08
5.362225e-08
-4.541130e-08
-6.166484e-08
-6.006088e-08
-3.922004e-08
4.309329e-08
5.308624e-08
4.923950e-08
3.659941e-08
-4.011307e-08
-5.135510e-08
-5.187717e-08
-3.883681e-08
3.725553e-08
5.123628e-08
5.193549e-08
4.131219e-08
-3.536120e-08
-4.836150e-08
-5.329079e-08
-4.445574e-08
3.593179e-08
4.024580e-08
3.713943e-08
-3.848859e-08
-3.992176e-08
3.968826e-08
3.888093e-08
-3.659983e-08
-4.024646e-08
-3.661923e-08
3.839477e-08
3.765839e-08
-3.729003e-08
-3.861552e-08
3.723990e-08
5.045556e-08
5.086558e-08
4.058092e-08
-3.942686e-08
-5.029306e-08
-5.104361e-08
-3.875582e-08
5.321458e-08
6.290663e-08
5.238039e-08
-5.081236e-08
-6.271652e-08
-5.485306e-08
3.796042e-08
6.547197e-08
6.939977e-08
4.835999e-08
-4.604207e-08
-6.830785e-08
-6.702687e-08
-4.065776e-08
4.179712e-08
7.370135e-08
7.383362e-08
4.486754e-08
-4.204856e-08
-7.204131e-08
-7.532562e-08
-4.499033e-08
3.988722e-08
7.788756e-08
7.955454e-08
4.517086e-08
-4.190137e-08
-7.743921e-08
-8.000822e-08
-4.345584e-08
7.638646e-08
8.752119e-08
5.096294e-08
-4.716650e-08
-8.569386e-08
-7.952614e-08
-3.570532e-08
6.627833e-08
9.505290e-08
6.350369e-08
-5.922030e-08
-9.453218e-08
-7.059781e-08
4.696662e-08
9.481962e-08
8.230458e-08
-7.820363e-08
-9.680514e-08
-5.169739e-08
7.826798e-08
1.004091e-07
5.332263e-08
-4.844553e-08
-9.835863e-08
-8.292512e-08
4.700074e-08
1.011663e-07
8.419759e-08
-7.927393e-08
-1.033628e-07
-5.222868e-08
7.232896e-08
1.076968e-07
5.983933e-08
-5.428722e-08
-1.063767e-07
-7.793142e-08
9.373677e-08
1.000853e-07
3.853520e-08
-9.587719e-08
-9.822781e-08
-3.578743e-08
4.638812e-08
1.072895e-07
8.576898e-08
-7.999064e-08
-1.097475e-07
-5.208521e-08
6.072733e-08
1.131632e-07
7.119628e-08
-6.494916e-08
-1.134700e-07
-6.696712e-08
7.215593e-08
1.140225e-07
5.971550e-08
-5.355709e-08
-1.126025e-07
-7.848407e-08
7.972308e-08
1.128736e-07
5.230213e-08
-4.637852e-08
-1.103417e-07
-8.592677e-08
8.323062e-08
1.118762e-07
4.892034e-08
-4.314679e-08
-1.088420e-07
-8.932054e-08
8.274302e-08
1.120362e-07
4.939154e-08
-4.359479e-08
-1.090699e-07
-8.884998e-08
7.824361e-08
1.132119e-07
5.374577e-08
-4.776474e-08
-1.108922e-07
-8.448246e-08
6.968896e-08
1.141107e-07
6.217696e-08
-5.596877e-08
-1.130584e-07
-7.602407e-08
5.740646e-08
1.123080e-07
7.457456e-08
-6.837084e-08
-1.131182e-07
-6.356101e-08
4.262362e-08
1.047247e-07
8.950881e-08
-8.400160e-08
-1.077216e-07
-4.810043e-08
8.911867e-08
1.028815e-07
4.318550e-08
-3.817719e-08
-9.926741e-08
-9.399850e-08
6.622520e-08
1.076309e-07
6.585083e-08
-6.027131e-08
-1.071682e-07
-7.187861e-08
4.094138e-08
9.692356e-08
8.951297e-08
-8.508741e-08
-9.989450e-08
-4.586047e-08
7.083903e-08
1.014312e-07
6.070203e-08
-5.575483e-08
-1.003617e-07
-7.575056e-08
3.956492e-08
8.950820e-08
8.784154e-08
3.905396e-08
-3.509769e-08
-8.440424e-08
-9.233354e-08
-4.396983e-08
5.751727e-08
9.340521e-08
7.128029e-08
-6.727790e-08
-9.394636e-08
-6.191417e-08
6.793068e-08
8.880850e-08
5.945554e-08
-5.572197e-08
-8.799177e-08
-7.152161e-08
7.021535e-08
8.216246e-08
5.375920e-08
-5.050175e-08
-8.095568e-08
-7.297140e-08
6.626215e-08
7.605135e-08
5.314482e-08
-5.042330e-08
-7.510448e-08
-6.851839e-08
-3.587239e-08
5.747413e-08
6.952932e-08
5.535795e-08
-5.332129e-08
-6.923445e-08
-5.952425e-08
4.450281e-08
5.958775e-08
5.612204e-08
3.975639e-08
-3.814482e-08
-5.502458e-08
-6.005480e-08
-4.637346e-08
4.384921e-08
4.936291e-08
4.372809e-08
-4.286165e-08
-4.926970e-08
-4.480072e-08
3.501992e-08
-3.493079e-08
